<svg xmlns="http://www.w3.org/2000/svg" xmlns:xlink="http://www.w3.org/1999/xlink" width="300" zoomAndPan="magnify" viewBox="0 0 224.87999 195.000001" height="260" preserveAspectRatio="xMidYMid meet" version="1.2"><defs><clipPath id="7a6c60bc12"><path d="M 94 109 L 128 109 L 128 145 L 94 145 Z M 94 109 "/></clipPath><clipPath id="c72d1c00f0"><path d="M 94.3125 119.160156 L 117.625 109.851562 L 127.65625 134.972656 L 104.339844 144.285156 Z M 94.3125 119.160156 "/></clipPath></defs><g id="a53cb94952"><path style=" stroke:none;fill-rule:nonzero;fill:#301829;fill-opacity:1;" d="M 110.734375 76.824219 C 109.679688 89.988281 110.320312 104.09375 116.21875 114.976562 C 121.832031 125.332031 131.769531 131.386719 141.804688 131.984375 C 147.101562 132.300781 153.277344 131.640625 156.746094 136.609375 C 149.683594 138.289062 143.65625 143.859375 137.601562 148.757812 C 131.546875 153.65625 124.691406 158.164062 117.558594 157.277344 C 112.515625 156.648438 107.949219 153.359375 103.929688 149.542969 C 91.175781 137.429688 82.5 119.578125 77.0625 100.699219 C 71.625 81.820312 69.191406 61.789062 66.996094 41.871094 C 66.261719 35.160156 65.628906 27.875 68.339844 21.96875 C 71.289062 15.539062 77.65625 12.460938 83.550781 12.796875 C 89.441406 13.128906 94.953125 16.304688 100.097656 19.851562 C 104.75 23.058594 113.34375 28.660156 114.605469 35.855469 C 115.09375 38.640625 114.109375 42.21875 113.953125 45.042969 C 113.671875 50.125 113.136719 55.175781 112.542969 60.21875 C 111.890625 65.75 111.171875 71.265625 110.726562 76.824219 Z M 110.734375 76.824219 "/><path style=" stroke:none;fill-rule:nonzero;fill:#ffe1d6;fill-opacity:1;" d="M 56.878906 62.15625 C 55.925781 66.820312 55.425781 72.300781 58.707031 75.757812 C 60.539062 77.683594 63.277344 78.570312 65.9375 78.585938 C 68.597656 78.601562 71.203125 77.828125 73.671875 76.847656 C 81.1875 73.863281 87.824219 68.929688 93.457031 63.121094 C 99.085938 57.320312 103.75 50.648438 107.996094 43.761719 C 109.996094 40.519531 111.980469 36.898438 111.488281 33.121094 C 111.082031 29.996094 109.027344 27.332031 106.746094 25.167969 C 102.546875 21.171875 97.40625 18.332031 92.328125 15.535156 C 89.269531 13.851562 86.023438 12.117188 82.53125 12.1875 C 79.089844 12.257812 76.976562 14.246094 75.554688 17.113281 C 73.945312 20.347656 71.695312 23.335938 69.90625 26.523438 C 65.925781 33.605469 62.746094 41.132812 60.308594 48.882812 C 58.9375 53.242188 57.800781 57.671875 56.890625 62.148438 Z M 56.878906 62.15625 "/><path style=" stroke:none;fill-rule:nonzero;fill:#301829;fill-opacity:1;" d="M 96.796875 81.714844 C 97.136719 90.40625 97.894531 99.152344 100.121094 107.375 C 102.34375 115.59375 106.132812 123.320312 111.675781 128.507812 C 117.214844 133.703125 124.640625 136.097656 131.359375 133.710938 C 126.84375 134.628906 122.257812 131.9375 119.078125 127.894531 C 115.890625 123.851562 113.894531 118.589844 112.195312 113.316406 C 107.441406 98.585938 104.515625 82.375 106.867188 66.664062 C 108.003906 59.082031 110.355469 51.648438 110.136719 43.960938 C 110.082031 42.097656 109.863281 40.1875 109.097656 38.59375 C 104.125 28.265625 99.390625 47.585938 98.640625 51.207031 C 96.578125 61.15625 96.402344 71.542969 96.800781 81.71875 Z M 96.796875 81.714844 "/><path style=" stroke:none;fill-rule:nonzero;fill:#ab789c;fill-opacity:1;" d="M 73.292969 5.507812 C 71.128906 7.925781 70.582031 11.484375 71.253906 14.65625 C 71.921875 17.832031 73.65625 20.679688 75.617188 23.261719 C 84.40625 34.851562 98.300781 42.230469 112.761719 43.804688 C 114.570312 44.003906 116.441406 44.109375 118.167969 43.527344 C 119.894531 42.945312 121.445312 41.53125 121.691406 39.726562 C 121.875 38.367188 121.308594 36.992188 121.449219 35.628906 C 121.585938 34.316406 122.355469 33.167969 123.015625 32.023438 C 125.113281 28.398438 126.335938 24.035156 125.226562 20.003906 C 123.804688 14.84375 119.011719 11.429688 114.4375 8.652344 C 109.476562 5.636719 104.296875 2.8125 98.640625 1.5 C 95.035156 0.660156 91.226562 0.488281 87.59375 1.265625 C 85.789062 1.652344 84.222656 2.378906 82.546875 3.105469 C 81.132812 3.71875 79.945312 3 78.457031 3.074219 C 76.515625 3.164062 74.59375 4.0625 73.296875 5.511719 Z M 73.292969 5.507812 "/><path style=" stroke:none;fill-rule:nonzero;fill:#ffe1d6;fill-opacity:1;" d="M 91.980469 56.378906 C 92.8125 54.910156 94.980469 54.578125 96.421875 55.453125 C 97.867188 56.328125 98.59375 58.09375 98.601562 59.78125 C 98.609375 62.027344 97.382812 64.308594 95.363281 65.296875 C 93.34375 66.285156 90.621094 65.757812 89.304688 63.929688 "/><path style=" stroke:none;fill-rule:nonzero;fill:#ab789c;fill-opacity:1;" d="M 65.878906 41.984375 C 65.851562 41.632812 65.878906 41.234375 66.148438 41.011719 C 66.433594 40.777344 66.886719 40.871094 67.152344 41.128906 C 67.417969 41.386719 67.523438 41.769531 67.578125 42.136719 C 67.789062 41.816406 68.058594 41.511719 68.410156 41.359375 C 68.765625 41.210938 69.214844 41.238281 69.488281 41.507812 C 69.730469 41.746094 69.789062 42.121094 69.707031 42.449219 C 69.628906 42.777344 69.425781 43.066406 69.203125 43.320312 C 68.792969 43.789062 67.488281 45.003906 66.777344 44.785156 C 66.050781 44.558594 65.921875 42.597656 65.878906 41.984375 Z M 65.878906 41.984375 "/><path style=" stroke:none;fill-rule:nonzero;fill:#301829;fill-opacity:1;" d="M 76.109375 39.046875 C 75.269531 38.332031 74.261719 37.765625 73.25 37.25 C 72.796875 37.011719 72.203125 36.78125 71.894531 37.011719 C 71.625 37.214844 71.789062 37.640625 71.992188 37.976562 C 72.835938 39.371094 74.234375 40.636719 75.875 41.492188 C 76.707031 41.925781 77.863281 42.085938 77.621094 41.140625 C 77.425781 40.402344 76.792969 39.640625 76.105469 39.046875 Z M 76.109375 39.046875 "/><path style=" stroke:none;fill-rule:nonzero;fill:#301829;fill-opacity:1;" d="M 86.4375 47.542969 C 86.089844 47.128906 85.683594 46.714844 85.195312 46.414062 C 84.707031 46.117188 84.132812 45.953125 83.8125 46.109375 C 83.519531 46.246094 83.5 46.613281 83.554688 46.976562 C 83.742188 48.214844 84.714844 49.714844 86.09375 50.878906 C 88.035156 52.519531 88.210938 51.082031 87.804688 49.886719 C 87.542969 49.121094 87.070312 48.308594 86.433594 47.542969 Z M 86.4375 47.542969 "/><path style=" stroke:none;fill-rule:nonzero;fill:#301829;fill-opacity:1;" d="M 64.988281 64.976562 C 66.160156 66.214844 67.859375 66.933594 69.566406 66.914062 C 70.75 66.902344 72.046875 66.441406 72.589844 65.390625 C 72.320312 65.058594 71.867188 64.933594 71.4375 64.929688 C 71.007812 64.929688 70.585938 65.023438 70.164062 65.058594 C 68.226562 65.210938 66.28125 63.808594 65.820312 61.921875 C 65.703125 61.441406 65.667969 60.941406 65.511719 60.472656 C 65.28125 59.769531 64.671875 59.152344 63.894531 59.460938 C 63.253906 59.71875 63.242188 60.234375 63.285156 60.839844 C 63.390625 62.382812 63.921875 63.84375 64.988281 64.972656 Z M 64.988281 64.976562 "/><path style=" stroke:none;fill-rule:nonzero;fill:#ffffff;fill-opacity:1;" d="M 134.839844 139.714844 C 134.839844 139.714844 134.832031 139.714844 134.828125 139.714844 C 124.589844 139.0625 114.847656 137.820312 108.238281 129.871094 C 105.246094 126.273438 103.003906 121.441406 100.976562 114.207031 C 97.621094 102.269531 96.199219 89.253906 96.855469 76.566406 C 96.859375 76.453125 96.953125 76.371094 97.066406 76.371094 C 97.066406 76.371094 97.074219 76.371094 97.078125 76.371094 C 97.195312 76.375 97.285156 76.476562 97.277344 76.59375 C 96.621094 89.230469 98.042969 102.203125 101.378906 114.09375 C 103.394531 121.269531 105.609375 126.050781 108.5625 129.601562 C 115.066406 137.421875 124.710938 138.652344 134.859375 139.300781 C 134.976562 139.308594 135.058594 139.410156 135.054688 139.523438 C 135.046875 139.632812 134.957031 139.71875 134.84375 139.71875 Z M 134.839844 139.714844 "/><path style=" stroke:none;fill-rule:nonzero;fill:#ffffff;fill-opacity:1;" d="M 116.070312 34.871094 C 116.070312 34.871094 116.035156 34.871094 116.015625 34.863281 C 102.386719 31.132812 90.433594 21.382812 84.046875 8.777344 C 83.996094 8.671875 84.035156 8.546875 84.136719 8.496094 C 84.242188 8.441406 84.371094 8.484375 84.421875 8.589844 C 90.753906 21.09375 102.609375 30.757812 116.125 34.457031 C 116.238281 34.488281 116.304688 34.605469 116.273438 34.714844 C 116.25 34.808594 116.164062 34.871094 116.070312 34.871094 Z M 116.070312 34.871094 "/><path style=" stroke:none;fill-rule:nonzero;fill:#ffe1d6;fill-opacity:1;" d="M 77.625 93.835938 C 79.460938 94.421875 80.953125 95.761719 82.386719 97.050781 C 98.664062 111.640625 116.65625 124.320312 135.875 134.742188 C 143.667969 138.964844 152.449219 142.929688 161.101562 141.027344 C 168.167969 139.476562 173.8125 134.257812 178.617188 128.847656 C 184.980469 121.6875 190.535156 113.808594 195.144531 105.410156 C 196.1875 103.507812 197.234375 101.511719 198.953125 100.183594 C 200.667969 98.847656 203.269531 98.378906 204.984375 99.71875 C 206.6875 101.058594 206.867188 103.539062 206.753906 105.703125 C 206.03125 119.738281 199.164062 132.828125 190.433594 143.84375 C 183.546875 152.539062 174.433594 160.710938 163.367188 161.453125 C 154.210938 162.066406 145.609375 157.488281 137.585938 153.042969 C 122.875 144.898438 108.035156 136.574219 95.222656 125.582031 C 88.730469 120.011719 83.355469 113.789062 78.203125 107 C 76.699219 105.011719 72.714844 101.835938 72.035156 99.460938 C 70.980469 95.78125 73.792969 92.613281 77.625 93.835938 Z M 77.625 93.835938 "/><path style=" stroke:none;fill-rule:nonzero;fill:#ceb7bd;fill-opacity:1;" d="M 64.222656 87.671875 C 66.757812 88.054688 69.695312 88.738281 70.863281 91.28125 C 71.28125 92.1875 71.402344 93.214844 71.746094 94.160156 C 72.882812 97.316406 76.0625 98.835938 78.398438 101.0625 C 82.535156 105.007812 84.011719 111.277344 85.082031 117.144531 C 87.359375 129.660156 88.8125 142.328125 89.429688 155.027344 C 89.539062 157.320312 89.589844 159.769531 88.5 161.683594 C 87.375 163.652344 85.28125 164.632812 83.265625 165.34375 C 77.921875 167.230469 72.230469 168.007812 66.566406 167.628906 C 64.527344 167.492188 62.398438 167.167969 60.699219 165.859375 C 58.164062 163.910156 57.230469 160.34375 55.8125 157.320312 C 52.363281 149.976562 45.261719 144.703125 43.605469 136.679688 C 42.570312 131.65625 43.921875 126.507812 45.441406 121.722656 C 46.691406 117.785156 48.0625 113.898438 49.558594 110.070312 C 50.949219 106.503906 53.5 102.554688 54.050781 98.683594 C 54.429688 96.027344 53.300781 93.625 54.414062 91.066406 C 56.25 86.839844 60.550781 87.113281 64.222656 87.675781 Z M 64.222656 87.671875 "/><path style=" stroke:none;fill-rule:nonzero;fill:#ffe1d6;fill-opacity:1;" d="M 54.753906 88.722656 C 53.046875 89.214844 51.6875 90.96875 50.429688 92.664062 C 34.949219 113.519531 20.140625 137.179688 14.414062 166.203125 C 13.480469 170.933594 12.796875 175.898438 13.402344 180.734375 C 14.007812 185.570312 16.121094 190.277344 19.386719 192.03125 C 24.46875 194.757812 29.878906 189.746094 33.972656 184.730469 C 41.457031 175.558594 48.316406 165.390625 54.429688 154.402344 C 55.570312 152.351562 56.710938 150.199219 57.183594 147.683594 C 57.65625 145.164062 57.296875 142.167969 55.855469 140.539062 C 54.40625 138.910156 52.25 139.070312 50.59375 140.242188 C 48.933594 141.410156 47.664062 143.40625 46.433594 145.359375 C 41.742188 152.8125 37.046875 160.261719 32.355469 167.714844 C 30.714844 170.316406 28.25 173.164062 26.070312 171.53125 C 24.265625 170.175781 24.082031 166.644531 24.429688 163.8125 C 25.566406 154.527344 29.710938 146.609375 33.730469 139.070312 C 38.707031 129.734375 43.691406 120.398438 48.667969 111.058594 C 51.160156 106.394531 53.667969 101.742188 56.140625 97.054688 C 57.777344 93.949219 60.226562 87.148438 54.75 88.722656 Z M 54.753906 88.722656 "/><path style=" stroke:none;fill-rule:nonzero;fill:#c4ac81;fill-opacity:1;" d="M 114.835938 55.421875 C 99.71875 60.636719 84.597656 65.84375 69.480469 71.058594 C 66.589844 72.058594 63.460938 73.238281 61.894531 75.867188 C 60.207031 78.6875 60.851562 82.269531 61.554688 85.484375 C 65.382812 103.007812 69.207031 120.539062 73.03125 138.0625 C 74.070312 142.820312 75.453125 148.085938 79.59375 150.65625 C 83.027344 152.792969 87.394531 152.429688 91.402344 151.902344 C 122.367188 147.855469 152.382812 138.488281 181.847656 128.15625 C 186.898438 126.382812 192.277344 124.328125 195.292969 119.90625 C 199.277344 114.058594 197.78125 106.214844 196.136719 99.332031 C 192.105469 82.488281 188.039062 65.523438 181.203125 49.558594 C 178.554688 43.375 176.746094 39.082031 169.417969 40.03125 C 160.78125 41.144531 152.179688 43.527344 143.835938 45.953125 C 134.066406 48.789062 124.445312 52.101562 114.835938 55.417969 Z M 114.835938 55.421875 "/><path style=" stroke:none;fill-rule:nonzero;fill:#301829;fill-opacity:1;" d="M 133.425781 48.363281 C 132.4375 50.097656 132.558594 52.289062 133.273438 54.160156 C 133.984375 56.023438 135.222656 57.628906 136.449219 59.207031 C 138.820312 62.265625 141.1875 65.320312 143.558594 68.375 C 144.914062 70.125 146.285156 71.902344 147.128906 73.945312 C 148.214844 76.582031 148.359375 79.492188 148.597656 82.332031 C 149.941406 98.203125 154.753906 113.546875 159.542969 128.738281 C 160.097656 130.496094 160.667969 132.289062 161.789062 133.746094 C 162.90625 135.207031 164.695312 136.292969 166.523438 136.058594 C 169.019531 135.738281 170.65625 133.0625 170.707031 130.546875 C 170.757812 128.027344 169.644531 125.660156 168.582031 123.378906 C 163.023438 111.46875 158.226562 99.199219 154.230469 86.679688 C 152.199219 80.332031 150.375 73.917969 148.753906 67.449219 C 147.265625 61.484375 146.675781 54.894531 144.621094 49.121094 C 142.894531 44.273438 136.121094 43.644531 133.429688 48.363281 Z M 133.425781 48.363281 "/><path style=" stroke:none;fill-rule:nonzero;fill:#301829;fill-opacity:1;" d="M 67.679688 89.445312 C 65.6875 89.96875 63.636719 90.523438 62.039062 91.824219 C 60.449219 93.125 59.453125 95.398438 60.25 97.289062 C 60.96875 98.972656 62.894531 99.882812 64.726562 99.925781 C 66.554688 99.96875 68.320312 99.316406 70.027344 98.664062 C 105.988281 84.972656 141.386719 67.9375 179.605469 63.496094 C 181.4375 63.28125 183.351562 63.070312 184.886719 62.050781 C 186.417969 61.027344 187.394531 58.902344 186.511719 57.285156 C 185.234375 54.941406 181.746094 55.578125 179.253906 56.535156 C 171.992188 59.335938 164.546875 61.859375 157.40625 64.953125 C 150.972656 67.738281 144.292969 69.355469 137.449219 71.148438 C 122.433594 75.085938 107.417969 79.023438 92.402344 82.960938 C 84.210938 85.109375 75.976562 87.789062 67.675781 89.445312 Z M 67.679688 89.445312 "/><path style=" stroke:none;fill-rule:nonzero;fill:#ab789c;fill-opacity:1;" d="M 134.242188 61.914062 C 132.859375 61.683594 131.335938 61.621094 130.171875 62.394531 C 128.65625 63.402344 128.277344 65.441406 128.148438 67.257812 C 127.921875 70.613281 128.105469 73.992188 128.691406 77.300781 C 129.246094 80.398438 130.398438 83.753906 133.179688 85.222656 C 136.136719 86.78125 139.949219 85.527344 142.324219 83.171875 C 144.699219 80.816406 145.960938 77.589844 147.160156 74.46875 C 149.183594 76.871094 151.265625 79.320312 153.976562 80.914062 C 156.6875 82.511719 160.191406 83.109375 162.976562 81.644531 C 165.710938 80.199219 167.171875 77.132812 167.992188 74.152344 C 168.855469 71.011719 169.207031 67.734375 169.042969 64.484375 C 168.941406 62.507812 168.527344 60.324219 166.929688 59.152344 C 165.398438 58.03125 163.277344 58.21875 161.433594 58.695312 C 158.957031 59.335938 156.59375 60.417969 154.472656 61.851562 C 152.25 63.355469 150.632812 66.402344 148.472656 67.652344 C 145.941406 69.109375 144.339844 66.421875 142.257812 65.0625 C 139.839844 63.484375 137.097656 62.390625 134.25 61.914062 Z M 134.242188 61.914062 "/><path style=" stroke:none;fill-rule:nonzero;fill:#ab789c;fill-opacity:1;" d="M 140.160156 99.292969 C 140.226562 99.980469 140.34375 100.742188 141.070312 101.058594 C 141.652344 101.308594 142.332031 101.117188 142.78125 100.667969 C 143.652344 99.808594 143.667969 98.574219 143.796875 97.402344 C 143.835938 97.046875 144.355469 97.0625 144.382812 97.421875 C 144.433594 98.144531 144.636719 98.839844 145.144531 99.449219 C 145.65625 100.066406 146.496094 100.375 147.253906 100.105469 C 148.484375 99.667969 148.601562 98.230469 148.578125 97.035156 C 148.457031 90.835938 147.933594 84.644531 147.023438 78.511719 C 149.445312 84.097656 151.863281 89.683594 154.285156 95.265625 C 154.785156 96.421875 155.316406 97.621094 156.261719 98.457031 C 157.210938 99.289062 158.699219 99.652344 159.742188 98.941406 C 160.785156 98.230469 160.789062 96.304688 159.605469 95.875 L 159.644531 95.898438 C 161.933594 97.085938 164.554688 94.910156 163.753906 92.460938 C 163.261719 90.945312 162.457031 89.480469 161.621094 88.128906 C 159.742188 85.109375 148.453125 68.546875 144.78125 72.933594 C 143.898438 73.988281 143.558594 76.699219 143.089844 78.011719 C 142.28125 80.289062 141.542969 82.5625 141.027344 84.925781 C 140.007812 89.632812 139.707031 94.492188 140.160156 99.285156 Z M 140.160156 99.292969 "/><path style=" stroke:none;fill-rule:nonzero;fill:#ffffff;fill-opacity:1;" d="M 147.960938 76.746094 C 147.917969 76.746094 147.871094 76.730469 147.835938 76.707031 C 145.808594 75.261719 143.710938 73.769531 141.335938 72.921875 C 138.71875 71.992188 136.085938 72.066406 134.121094 73.121094 C 134.019531 73.175781 133.890625 73.136719 133.835938 73.03125 C 133.78125 72.933594 133.820312 72.800781 133.917969 72.746094 C 135.996094 71.636719 138.746094 71.554688 141.472656 72.523438 C 143.832031 73.363281 145.898438 74.804688 147.886719 76.222656 C 150.953125 70.730469 156.703125 66.933594 162.964844 66.300781 C 163.078125 66.292969 163.183594 66.371094 163.199219 66.488281 C 163.210938 66.601562 163.125 66.707031 163.007812 66.71875 C 156.804688 67.351562 151.105469 71.152344 148.140625 76.636719 C 148.109375 76.691406 148.058594 76.726562 148 76.742188 C 147.984375 76.742188 147.96875 76.746094 147.953125 76.746094 Z M 147.960938 76.746094 "/><path style=" stroke:none;fill-rule:nonzero;fill:#c4ac81;fill-opacity:1;" d="M 117.246094 130.214844 C 117.847656 129.039062 117.960938 127.679688 118 126.363281 C 118.042969 124.941406 118.007812 123.515625 117.898438 122.097656 C 117.878906 121.808594 117.832031 121.476562 117.589844 121.308594 C 117.363281 121.144531 117.050781 121.195312 116.777344 121.253906 C 115.117188 121.597656 113.449219 121.949219 111.789062 122.292969 C 107.683594 123.148438 103.578125 124.003906 99.472656 124.859375 C 99.113281 124.9375 98.730469 125.023438 98.480469 125.292969 C 98.003906 125.808594 98.277344 126.632812 98.582031 127.261719 C 99.589844 129.375 100.664062 131.457031 101.792969 133.511719 C 102.160156 134.175781 102.597656 134.898438 103.324219 135.113281 C 103.867188 135.269531 104.445312 135.113281 104.988281 134.949219 C 107.515625 134.195312 110.058594 133.261719 112.636719 132.695312 C 114.511719 132.285156 116.246094 132.164062 117.246094 130.214844 Z M 117.246094 130.214844 "/><path style=" stroke:none;fill-rule:nonzero;fill:#ceb7bd;fill-opacity:1;" d="M 93.492188 121.972656 C 92.9375 122.066406 92.351562 122.171875 91.988281 122.652344 C 91.796875 122.898438 91.738281 123.234375 91.875 123.511719 C 92.152344 124.089844 92.933594 124.003906 93.527344 123.855469 C 94.816406 123.523438 96.101562 123.183594 97.394531 122.851562 L 102.996094 136.738281 C 103.386719 137.710938 104.417969 138.261719 105.445312 138.058594 L 117.5625 135.585938 C 117.769531 135.546875 117.929688 135.367188 117.921875 135.15625 C 117.914062 134.792969 117.453125 134.761719 117.128906 134.8125 L 105.777344 136.652344 C 104.878906 136.800781 103.992188 136.3125 103.636719 135.46875 L 100.925781 129.074219 C 100.375 127.769531 99.820312 126.464844 99.269531 125.160156 C 98.980469 124.480469 98.695312 123.804688 98.40625 123.125 C 98.230469 122.722656 98.03125 121.742188 97.679688 121.472656 C 97.007812 120.949219 94.347656 121.839844 93.492188 121.976562 Z M 93.492188 121.972656 "/><path style=" stroke:none;fill-rule:nonzero;fill:#ceb7bd;fill-opacity:1;" d="M 115.988281 136.441406 C 116.382812 136.410156 116.800781 136.535156 117.078125 136.816406 C 117.515625 137.261719 117.507812 138.058594 117.070312 138.507812 C 116.636719 138.953125 115.855469 139 115.359375 138.621094 C 114.375 137.871094 114.796875 136.53125 115.988281 136.441406 Z M 115.988281 136.441406 "/><path style=" stroke:none;fill-rule:nonzero;fill:#ceb7bd;fill-opacity:1;" d="M 107.527344 139.371094 C 107.667969 140.015625 107.21875 140.730469 106.578125 140.886719 C 105.9375 141.042969 105.210938 140.613281 105.039062 139.972656 C 104.59375 138.328125 107.171875 137.703125 107.527344 139.371094 Z M 107.527344 139.371094 "/><path style=" stroke:none;fill-rule:nonzero;fill:#ceb7bd;fill-opacity:1;" d="M 102.539062 128.808594 C 102.4375 128.832031 102.332031 128.769531 102.304688 128.667969 C 102.28125 128.566406 102.34375 128.460938 102.445312 128.4375 L 105.453125 127.707031 L 104.714844 125.429688 C 104.679688 125.328125 104.734375 125.222656 104.835938 125.1875 C 104.9375 125.15625 105.042969 125.210938 105.074219 125.308594 L 105.828125 127.617188 L 109.804688 126.65625 C 109.613281 125.785156 109.390625 124.921875 109.132812 124.070312 C 109.101562 123.96875 109.15625 123.863281 109.257812 123.832031 C 109.359375 123.804688 109.464844 123.859375 109.492188 123.960938 C 109.753906 124.820312 109.980469 125.691406 110.175781 126.570312 L 113.964844 125.65625 C 113.851562 124.746094 113.671875 123.84375 113.433594 122.96875 C 113.402344 122.871094 113.46875 122.765625 113.566406 122.734375 C 113.667969 122.707031 113.773438 122.769531 113.804688 122.871094 C 114.046875 123.753906 114.222656 124.652344 114.34375 125.566406 L 116.027344 125.160156 L 116.304688 124.984375 C 116.390625 124.929688 116.507812 124.957031 116.5625 125.046875 C 116.617188 125.132812 116.59375 125.25 116.503906 125.304688 L 116.203125 125.496094 C 116.203125 125.496094 116.164062 125.511719 116.148438 125.519531 L 114.386719 125.945312 C 114.46875 126.671875 114.507812 127.40625 114.503906 128.136719 L 116.214844 127.726562 C 116.246094 127.71875 116.273438 127.71875 116.304688 127.726562 L 116.425781 127.753906 C 116.527344 127.78125 116.59375 127.882812 116.570312 127.984375 C 116.550781 128.054688 116.496094 128.109375 116.429688 128.125 C 116.398438 128.132812 116.371094 128.132812 116.339844 128.125 L 116.261719 128.109375 L 114.496094 128.535156 C 114.476562 129.476562 114.386719 130.414062 114.234375 131.339844 C 114.21875 131.417969 114.160156 131.476562 114.089844 131.492188 C 114.066406 131.496094 114.039062 131.5 114.015625 131.492188 C 113.910156 131.476562 113.839844 131.375 113.859375 131.273438 C 114.003906 130.398438 114.09375 129.515625 114.121094 128.621094 L 110.703125 129.445312 C 110.816406 130.28125 110.894531 131.117188 110.949219 131.957031 C 110.953125 132.046875 110.890625 132.132812 110.808594 132.152344 C 110.792969 132.152344 110.785156 132.15625 110.773438 132.15625 C 110.667969 132.164062 110.578125 132.085938 110.570312 131.980469 C 110.519531 131.164062 110.441406 130.347656 110.332031 129.535156 L 106.75 130.402344 L 107.492188 132.679688 C 107.523438 132.78125 107.46875 132.886719 107.367188 132.917969 C 107.363281 132.917969 107.359375 132.917969 107.355469 132.917969 C 107.257812 132.941406 107.164062 132.890625 107.128906 132.792969 L 106.378906 130.488281 L 103.308594 131.230469 C 103.207031 131.257812 103.101562 131.195312 103.078125 131.09375 C 103.050781 130.992188 103.113281 130.886719 103.214844 130.859375 L 106.261719 130.125 L 105.59375 128.066406 L 102.554688 128.804688 Z M 114.113281 128.230469 C 114.121094 127.5 114.085938 126.765625 114.011719 126.035156 L 110.261719 126.9375 C 110.40625 127.644531 110.535156 128.351562 110.640625 129.066406 L 114.113281 128.226562 Z M 106.621094 130.039062 L 110.269531 129.160156 C 110.164062 128.445312 110.042969 127.738281 109.894531 127.03125 L 105.953125 127.984375 L 106.625 130.039062 Z M 106.621094 130.039062 "/><path style=" stroke:none;fill-rule:nonzero;fill:#ffe1d6;fill-opacity:1;" d="M 52.441406 109.816406 C 53.378906 105.339844 54.5625 100.609375 57.882812 97.46875 C 59.527344 95.910156 62.066406 94.839844 64.046875 95.949219 C 65.523438 96.777344 66.191406 98.53125 66.542969 100.191406 C 67.570312 105.027344 66.820312 110.214844 64.46875 114.5625 C 70.738281 107.929688 79.226562 103.425781 88.238281 101.957031 C 90.972656 101.511719 94.070312 101.429688 96.191406 103.21875 C 99.132812 105.707031 98.535156 110.699219 95.980469 113.582031 C 93.425781 116.464844 89.585938 117.777344 85.921875 118.96875 C 88.632812 117.664062 92.152344 118.292969 94.238281 120.457031 C 96.332031 122.621094 96.835938 126.15625 95.4375 128.820312 C 93.671875 132.191406 89.683594 133.578125 86.382812 135.476562 C 79.183594 139.609375 74.324219 147.082031 67.015625 151.015625 C 62.207031 153.597656 48.210938 157.066406 46.144531 149.136719 C 45.457031 146.5 46.773438 143.332031 47.265625 140.757812 C 48.167969 136.054688 48.601562 131.25 49.355469 126.515625 C 50.246094 120.921875 51.277344 115.351562 52.441406 109.816406 Z M 52.441406 109.816406 "/><path style=" stroke:none;fill-rule:nonzero;fill:#ffe1d6;fill-opacity:1;" d="M 188.011719 68.105469 C 183.335938 69.960938 179.480469 73.394531 175.863281 76.890625 C 173.753906 78.9375 171.507812 81.816406 172.675781 84.515625 C 173.972656 87.511719 178.179688 87.492188 181.390625 86.882812 C 179.980469 87.925781 178.542969 89.007812 177.613281 90.5 C 176.679688 91.988281 176.375 93.996094 177.3125 95.476562 C 178.203125 96.886719 179.988281 97.480469 181.65625 97.535156 C 183.324219 97.59375 184.976562 97.21875 186.644531 97.171875 C 190.953125 97.050781 195.261719 99.277344 197.652344 102.863281 C 198.820312 104.617188 199.554688 106.652344 200.84375 108.324219 C 202.132812 109.996094 204.277344 111.296875 206.304688 110.703125 C 208.476562 110.066406 209.523438 107.636719 210.105469 105.445312 C 213.789062 91.5625 209.179688 59.699219 188.015625 68.105469 Z M 188.011719 68.105469 "/><path style=" stroke:none;fill-rule:nonzero;fill:#ffffff;fill-opacity:1;" d="M 62.882812 136.109375 C 62.839844 136.109375 62.796875 136.097656 62.765625 136.070312 C 62.667969 136.003906 62.640625 135.875 62.710938 135.78125 C 68.753906 126.914062 78.207031 120.429688 88.652344 117.988281 C 88.773438 117.960938 88.882812 118.03125 88.90625 118.144531 C 88.933594 118.257812 88.863281 118.371094 88.75 118.394531 C 78.40625 120.816406 69.042969 127.238281 63.058594 136.015625 C 63.015625 136.074219 62.953125 136.109375 62.886719 136.109375 Z M 62.882812 136.109375 "/><path style=" stroke:none;fill-rule:nonzero;fill:#ffffff;fill-opacity:1;" d="M 181.171875 87.324219 C 181.097656 87.324219 181.023438 87.285156 180.988281 87.214844 C 180.933594 87.113281 180.96875 86.984375 181.070312 86.929688 C 185.179688 84.667969 189.425781 82.328125 194.109375 81.28125 C 199.34375 80.109375 204.363281 80.894531 207.886719 83.449219 C 207.980469 83.515625 208 83.648438 207.933594 83.742188 C 207.867188 83.835938 207.734375 83.855469 207.636719 83.789062 C 204.214844 81.3125 199.3125 80.546875 194.195312 81.695312 C 189.570312 82.734375 185.351562 85.054688 181.269531 87.300781 C 181.234375 87.316406 181.203125 87.324219 181.167969 87.324219 Z M 181.171875 87.324219 "/><g clip-rule="nonzero" clip-path="url(#7a6c60bc12)"><g clip-rule="nonzero" clip-path="url(#c72d1c00f0)"><path style=" stroke:none;fill-rule:nonzero;fill:#c4ac81;fill-opacity:1;" d="M 94.3125 119.160156 L 117.625 109.851562 L 127.664062 134.988281 L 104.347656 144.296875 Z M 94.3125 119.160156 "/></g></g></g></svg>