<svg xmlns="http://www.w3.org/2000/svg" xmlns:xlink="http://www.w3.org/1999/xlink" width="300" zoomAndPan="magnify" viewBox="0 0 224.87999 195.000001" height="260" preserveAspectRatio="xMidYMid meet" version="1.2"><defs><clipPath id="2ed2118cf2"><path d="M 26 100 L 70 100 L 70 164 L 26 164 Z M 26 100 "/></clipPath><clipPath id="b0efff2107"><path d="M 86.890625 123.085938 L 62.007812 174.871094 L 10.890625 150.308594 L 35.773438 98.523438 Z M 86.890625 123.085938 "/></clipPath><clipPath id="b1ecb51ae2"><path d="M 86.890625 123.085938 L 62.007812 174.871094 L 10.890625 150.308594 L 35.773438 98.523438 Z M 86.890625 123.085938 "/></clipPath><clipPath id="ea03c93a4a"><path d="M 22 114 L 63 114 L 63 167 L 22 167 Z M 22 114 "/></clipPath><clipPath id="8cb2712795"><path d="M 72.441406 127.199219 L 58.425781 175.1875 L 11.152344 161.378906 L 25.171875 113.390625 Z M 72.441406 127.199219 "/></clipPath><clipPath id="23bb5a3fae"><path d="M 72.441406 127.199219 L 58.425781 175.1875 L 11.152344 161.378906 L 25.171875 113.390625 Z M 72.441406 127.199219 "/></clipPath><clipPath id="9437fc9675"><path d="M 22 90 L 55 90 L 55 134 L 22 134 Z M 22 90 "/></clipPath><clipPath id="00a9936073"><path d="M 39.167969 88.066406 L 62.039062 120.328125 L 30.992188 142.335938 L 8.121094 110.074219 Z M 39.167969 88.066406 "/></clipPath><clipPath id="20bb274a06"><path d="M 8.292969 109.953125 L 31.164062 142.214844 L 62.207031 120.207031 L 39.335938 87.945312 Z M 8.292969 109.953125 "/></clipPath><clipPath id="11e083dd14"><path d="M 30 120 L 70 120 L 70 166 L 30 166 Z M 30 120 "/></clipPath><clipPath id="a2c1017288"><path d="M 78.023438 129.703125 L 65.765625 174.3125 L 22.597656 162.449219 L 34.855469 117.839844 Z M 78.023438 129.703125 "/></clipPath><clipPath id="3610a77dfc"><path d="M 78.023438 129.703125 L 65.765625 174.3125 L 22.597656 162.449219 L 34.855469 117.839844 Z M 78.023438 129.703125 "/></clipPath><clipPath id="9c5328ba0c"><path d="M 22 90 L 45 90 L 45 132 L 22 132 Z M 22 90 "/></clipPath><clipPath id="267ac6041f"><path d="M 24.175781 133.027344 L 16.921875 94.152344 L 43.328125 89.222656 L 50.582031 128.101562 Z M 24.175781 133.027344 "/></clipPath><clipPath id="452c48ceff"><path d="M 16.960938 94.371094 L 24.214844 133.246094 L 50.621094 128.316406 L 43.367188 89.441406 Z M 16.960938 94.371094 "/></clipPath><clipPath id="2f33b1b1a6"><path d="M 32 99 L 62 99 L 62 116 L 32 116 Z M 32 99 "/></clipPath><clipPath id="95beee6131"><path d="M 42.015625 91.355469 L 62.9375 108.207031 L 51.234375 122.734375 L 30.316406 105.882812 Z M 42.015625 91.355469 "/></clipPath><clipPath id="af3e7046f2"><path d="M 42.015625 91.355469 L 62.9375 108.207031 L 51.234375 122.734375 L 30.316406 105.882812 Z M 42.015625 91.355469 "/></clipPath><clipPath id="11205d129d"><path d="M 43 104 L 71 104 L 71 120 L 43 120 Z M 43 104 "/></clipPath><clipPath id="fe2b94015b"><path d="M 50.8125 97.003906 L 72.15625 110.710938 L 62.882812 125.152344 L 41.535156 111.441406 Z M 50.8125 97.003906 "/></clipPath><clipPath id="711ab7e3a0"><path d="M 50.8125 97.003906 L 72.15625 110.710938 L 62.882812 125.152344 L 41.535156 111.441406 Z M 50.8125 97.003906 "/></clipPath><clipPath id="aa3208b752"><path d="M 45 103 L 70 103 L 70 119 L 45 119 Z M 45 103 "/></clipPath><clipPath id="9aa9fd8f57"><path d="M 54.933594 96.097656 L 71.820312 112.980469 L 60.738281 124.0625 L 43.855469 107.179688 Z M 54.933594 96.097656 "/></clipPath><clipPath id="ca7e42fd63"><path d="M 54.933594 96.097656 L 71.820312 112.980469 L 60.738281 124.0625 L 43.855469 107.179688 Z M 54.933594 96.097656 "/></clipPath></defs><g id="f2ad9e25c7"><path style=" stroke:none;fill-rule:nonzero;fill:#ab789c;fill-opacity:1;" d="M 206.78125 185.816406 C 178.222656 176.5 149.621094 167.3125 121.015625 158.132812 C 120.132812 157.839844 119.253906 157.539062 118.371094 157.246094 C 113.792969 155.703125 109.210938 154.175781 104.625 152.660156 C 102.28125 151.761719 99.363281 150.695312 97.507812 150.316406 C 95.339844 149.609375 93.167969 148.898438 91 148.195312 C 72.96875 142.34375 54.875 136.679688 36.722656 131.214844 C 35.410156 130.820312 33.632812 130.605469 32.949219 131.855469 C 32.0625 133.46875 34.132812 134.957031 35.808594 135.503906 C 64.363281 144.808594 92.957031 153.992188 121.558594 163.160156 C 122.441406 163.460938 123.332031 163.761719 124.21875 164.0625 C 128.839844 165.617188 133.472656 167.160156 138.105469 168.695312 C 140.386719 169.566406 143.175781 170.578125 144.996094 170.964844 C 147.199219 171.683594 149.390625 172.402344 151.589844 173.117188 C 169.621094 178.972656 187.710938 184.636719 205.867188 190.105469 C 207.179688 190.5 208.957031 190.714844 209.648438 189.464844 C 210.53125 187.855469 208.464844 186.363281 206.789062 185.816406 Z M 206.78125 185.816406 "/><path style=" stroke:none;fill-rule:nonzero;fill:#301829;fill-opacity:1;" d="M 197.636719 144.753906 C 192.113281 145.246094 186.957031 146.367188 181.753906 148.679688 C 181.613281 148.429688 181.445312 148.183594 181.25 147.972656 C 180.320312 146.972656 178.984375 146.632812 177.796875 146.429688 C 176.273438 146.171875 174.722656 146.027344 173.175781 146.007812 C 172.601562 146 171.933594 146.023438 171.308594 146.351562 C 170.40625 146.832031 169.9375 147.863281 170.234375 148.75 C 170.566406 149.769531 171.632812 150.09375 172.039062 150.21875 C 172.921875 150.488281 173.898438 150.660156 174.847656 150.828125 C 175.15625 150.878906 175.464844 150.9375 175.769531 150.992188 C 173.875 151.839844 171.925781 152.730469 170.078125 153.980469 C 168.585938 154.984375 168.648438 156.027344 168.820312 156.554688 C 168.988281 157.078125 169.460938 157.75 170.78125 157.972656 C 171.367188 158.074219 171.957031 158.121094 172.550781 158.121094 C 175.285156 158.121094 178.035156 157.082031 180.039062 155.234375 C 181.121094 154.242188 181.820312 153.164062 182.128906 152.03125 C 182.128906 152.027344 182.128906 152.023438 182.128906 152.015625 L 194.492188 154.410156 C 195.074219 154.527344 195.304688 153.6875 194.746094 153.488281 C 191.34375 152.273438 187.871094 151.242188 184.363281 150.394531 C 188.734375 148.484375 193.21875 146.832031 197.785156 145.453125 C 198.203125 145.324219 198.078125 144.707031 197.640625 144.742188 Z M 175.207031 148.78125 C 174.285156 148.617188 173.414062 148.460938 172.648438 148.226562 C 172.558594 148.199219 172.484375 148.175781 172.429688 148.15625 C 172.625 148.105469 172.890625 148.105469 173.152344 148.109375 C 174.589844 148.128906 176.035156 148.257812 177.449219 148.5 C 178.332031 148.648438 179.21875 148.859375 179.722656 149.402344 C 179.789062 149.476562 179.835938 149.566406 179.886719 149.648438 C 179.765625 149.75 179.660156 149.871094 179.578125 150.003906 L 179.207031 149.832031 C 178.007812 149.28125 176.585938 149.027344 175.207031 148.785156 Z M 178.621094 153.710938 C 176.644531 155.53125 173.78125 156.382812 171.132812 155.925781 C 171.085938 155.917969 171.042969 155.910156 171.003906 155.902344 C 171.066406 155.851562 171.144531 155.789062 171.242188 155.726562 C 173 154.539062 174.851562 153.710938 176.808594 152.835938 C 177.613281 152.472656 178.417969 152.113281 179.226562 151.726562 L 179.894531 151.402344 C 179.953125 151.457031 180.027344 151.5 180.097656 151.535156 C 179.886719 152.269531 179.394531 153.003906 178.621094 153.71875 Z M 178.621094 153.710938 "/><path style=" stroke:none;fill-rule:nonzero;fill:#ab789c;fill-opacity:1;" d="M 198.082031 119.917969 C 196.417969 120.46875 194.550781 121.496094 194.414062 123.246094 C 194.273438 124.988281 195.945312 126.292969 197.503906 127.085938 C 203.386719 130.101562 210.414062 130.8125 216.78125 129.042969 C 218.5625 128.546875 220.480469 127.6875 221.132812 125.960938 C 223.078125 120.832031 215.777344 120.089844 212.773438 119.230469 C 208 117.871094 202.777344 118.359375 198.082031 119.910156 Z M 198.082031 119.917969 "/><path style=" stroke:none;fill-rule:nonzero;fill:#301829;fill-opacity:1;" d="M 205.980469 121.207031 C 204.75 121.460938 203.386719 122.105469 203.128906 123.339844 C 202.953125 124.203125 203.414062 125.109375 204.113281 125.644531 C 204.816406 126.183594 205.710938 126.402344 206.585938 126.476562 C 208.941406 126.691406 211.457031 125.894531 212.984375 124.085938 C 215.84375 120.699219 207.386719 120.910156 205.976562 121.203125 Z M 205.980469 121.207031 "/><path style=" stroke:none;fill-rule:nonzero;fill:#ceb7bd;fill-opacity:1;" d="M 217.113281 124.015625 C 217.050781 125.40625 215.5625 126.144531 214.308594 126.535156 C 210.949219 127.566406 207.5 128.242188 204.015625 128.558594 C 208.132812 130.308594 212.054688 132.5625 215.683594 135.261719 C 216.519531 135.878906 217.375 136.539062 218.371094 136.757812 C 219.683594 137.046875 221.082031 136.496094 222.039062 135.515625 C 223 134.535156 223.550781 133.164062 223.761719 131.769531 C 224.277344 128.355469 222.804688 124.820312 220.425781 122.453125 C 218.042969 120.089844 214.867188 118.785156 211.652344 118.183594 C 207.464844 117.402344 203.175781 117.738281 198.941406 118.070312 C 196.546875 118.261719 193.878906 118.589844 192.335938 120.535156 C 190.941406 122.296875 190.921875 124.828125 191.125 127.113281 C 191.265625 128.78125 191.507812 130.496094 192.351562 131.902344 C 193.375 133.621094 195.144531 134.660156 196.871094 135.554688 C 203.210938 138.863281 210.078125 141.414062 215.320312 146.4375 C 217.261719 148.300781 219.054688 150.945312 218.425781 153.640625 C 221.066406 153.007812 222.480469 149.628906 221.910156 146.828125 C 221.332031 144.027344 219.292969 141.816406 217.074219 140.171875 C 211.238281 135.84375 203.738281 134.371094 198.285156 129.515625 C 196.777344 128.175781 195.359375 126.191406 195.894531 124.1875 C 196.339844 122.511719 197.984375 121.542969 199.535156 120.960938 C 202.757812 119.742188 206.261719 119.371094 209.65625 119.84375 C 211.542969 120.105469 217.25 121.070312 217.113281 124.019531 Z M 217.113281 124.015625 "/><path style=" stroke:none;fill-rule:nonzero;fill:#ab789c;fill-opacity:1;" d="M 209.171875 149.984375 C 208.851562 151.042969 209.417969 151.042969 210.289062 151.71875 C 211.160156 152.394531 212.296875 152.636719 213.402344 152.667969 C 215.765625 152.75 218.230469 151.882812 219.714844 150.050781 C 221.207031 148.21875 221.480469 145.367188 220.054688 143.488281 C 223.214844 146.417969 224.101562 151.527344 222.105469 155.351562 C 220.109375 159.171875 215.417969 161.371094 211.199219 160.453125 C 210.113281 160.214844 209.023438 159.769531 208.289062 158.933594 C 207.410156 157.933594 207.152344 156.542969 206.957031 155.226562 C 206.722656 153.65625 206.523438 152.035156 206.867188 150.484375 C 207.210938 148.933594 208.195312 147.410156 209.699219 146.90625 C 211.222656 146.390625 213.183594 147.160156 213.550781 148.675781 C 213.574219 146.203125 209.691406 148.289062 209.171875 149.984375 Z M 209.171875 149.984375 "/><path style=" stroke:none;fill-rule:nonzero;fill:#301829;fill-opacity:1;" d="M 197.640625 72.863281 C 198.046875 75.308594 197.375 77.804688 196.707031 80.207031 C 193.640625 91.265625 190.582031 102.328125 187.515625 113.386719 C 186.652344 116.5 185.535156 119.949219 182.6875 121.492188 C 180.503906 122.679688 177.859375 122.402344 175.417969 122.070312 C 158.097656 119.707031 140.96875 116.203125 123.855469 112.699219 C 122.027344 112.328125 120.085938 111.890625 118.800781 110.546875 C 116.476562 108.121094 117.421875 104.140625 118.5 100.917969 C 121.636719 91.601562 124.773438 82.28125 127.90625 72.964844 C 128.863281 70.125 129.945312 67.101562 132.339844 65.292969 C 135.25 63.09375 139.226562 63.304688 142.828125 63.617188 C 158.828125 65 175.074219 67.371094 191.140625 67.722656 C 194.460938 67.792969 197.03125 69.230469 197.632812 72.867188 Z M 197.640625 72.863281 "/><path style=" stroke:none;fill-rule:nonzero;fill:#ceb7bd;fill-opacity:1;" d="M 189.144531 81.8125 C 186.582031 91.195312 184.019531 100.585938 181.460938 109.96875 C 180.765625 112.515625 179.882812 115.308594 177.613281 116.660156 C 175.546875 117.890625 172.964844 117.53125 170.613281 117.136719 C 157.792969 114.964844 144.96875 112.792969 132.148438 110.625 C 128.734375 110.046875 124.925781 109.21875 123.070312 106.3125 C 120.980469 103.03125 122.324219 98.699219 123.722656 95.019531 C 126.332031 88.144531 128.945312 81.265625 131.554688 74.390625 C 132.59375 71.660156 133.835938 68.683594 136.433594 67.339844 C 138.527344 66.253906 141.019531 66.503906 143.339844 66.773438 C 151.695312 67.753906 160.054688 68.742188 168.410156 69.722656 C 172.242188 70.171875 176.261719 71.050781 180.132812 70.90625 C 182.421875 70.820312 184.429688 70.140625 186.5625 71.257812 C 190.777344 73.46875 190.21875 77.832031 189.136719 81.808594 Z M 189.144531 81.8125 "/><path style=" stroke:none;fill-rule:nonzero;fill:#301829;fill-opacity:1;" d="M 179.753906 125.785156 C 179.066406 128.042969 176.574219 129.605469 173.957031 130.347656 C 171.332031 131.09375 168.515625 131.199219 165.777344 131.597656 C 157.886719 132.757812 150.730469 136.375 142.765625 137.125 C 136.492188 137.714844 130.144531 136.488281 124.011719 135.066406 C 115.039062 132.980469 106.203125 130.457031 97.378906 127.933594 C 91.644531 126.296875 85.914062 124.660156 80.1875 123.019531 C 78.382812 122.507812 76.335938 121.78125 75.785156 120.253906 C 75.316406 118.953125 76.207031 117.550781 77.496094 116.765625 C 78.789062 115.984375 80.402344 115.6875 81.96875 115.410156 C 86.722656 114.566406 91.476562 113.71875 96.230469 112.875 C 102.257812 111.804688 108.339844 110.730469 114.527344 110.800781 C 122.617188 110.894531 130.515625 112.941406 138.414062 114.566406 C 144.96875 115.914062 151.589844 116.96875 158.238281 117.894531 C 161.558594 118.355469 164.890625 118.785156 168.226562 119.199219 C 170.816406 119.523438 173.917969 119.492188 176.324219 120.453125 C 178.734375 121.417969 180.453125 123.492188 179.753906 125.777344 Z M 179.753906 125.785156 "/><path style=" stroke:none;fill-rule:nonzero;fill:#301829;fill-opacity:1;" d="M 119.773438 121.867188 C 120.703125 122.148438 121.753906 122.542969 121.9375 123.207031 C 122.074219 123.695312 121.640625 124.171875 121.03125 124.429688 C 120.425781 124.6875 119.671875 124.757812 118.9375 124.792969 C 113.835938 125.015625 108.773438 123.558594 103.957031 122.128906 C 102.261719 121.628906 101.054688 120.53125 102.992188 119.777344 C 104.242188 119.289062 106.496094 119.226562 107.984375 119.269531 C 111.859375 119.375 116.21875 120.800781 119.773438 121.875 Z M 119.773438 121.867188 "/><path style=" stroke:none;fill-rule:nonzero;fill:#ffffff;fill-opacity:1;" d="M 149.261719 126.152344 C 145.078125 126.152344 140.96875 125.082031 137 124.042969 L 136.433594 123.898438 C 124.242188 120.722656 111.65625 118.078125 99.03125 116.050781 C 98.335938 115.941406 97.550781 115.8125 96.953125 115.476562 C 96.554688 115.246094 96.28125 114.902344 96.246094 114.574219 C 96.222656 114.359375 96.292969 114.160156 96.460938 114.007812 C 96.734375 113.746094 97.203125 113.648438 97.695312 113.5625 C 103.089844 112.613281 108.71875 112.066406 114.421875 111.9375 C 118.175781 111.851562 122.21875 112.605469 126.132812 113.332031 C 127.652344 113.613281 129.082031 113.878906 130.492188 114.097656 L 140.351562 115.632812 C 151.539062 117.371094 163.101562 119.164062 174.445312 121.082031 C 174.484375 121.085938 174.511719 121.117188 174.527344 121.148438 C 174.542969 121.183594 174.53125 121.222656 174.507812 121.25 C 173.527344 122.378906 171.558594 122.796875 169.453125 123.152344 L 157.074219 125.277344 C 154.5625 125.710938 151.96875 126.152344 149.273438 126.152344 Z M 115.011719 112.125 C 114.8125 112.125 114.617188 112.125 114.414062 112.128906 C 108.722656 112.261719 103.105469 112.804688 97.726562 113.75 C 97.261719 113.832031 96.824219 113.921875 96.585938 114.148438 C 96.46875 114.257812 96.421875 114.390625 96.433594 114.542969 C 96.46875 114.804688 96.707031 115.097656 97.042969 115.289062 C 97.609375 115.613281 98.378906 115.738281 99.054688 115.839844 C 111.6875 117.875 124.273438 120.515625 136.476562 123.691406 L 137.042969 123.839844 C 141.003906 124.871094 145.097656 125.945312 149.257812 125.945312 C 151.933594 125.945312 154.523438 125.5 157.023438 125.074219 L 169.402344 122.949219 C 171.300781 122.621094 173.226562 122.222656 174.214844 121.246094 C 162.929688 119.335938 151.429688 117.550781 140.308594 115.824219 L 130.449219 114.289062 C 129.035156 114.070312 127.601562 113.804688 126.085938 113.519531 C 122.386719 112.828125 118.566406 112.117188 115.007812 112.117188 Z M 115.011719 112.125 "/><path style=" stroke:none;fill-rule:nonzero;fill:#ffffff;fill-opacity:1;" d="M 140.941406 129.980469 C 138.117188 129.980469 135.125 129.78125 131.96875 129.378906 C 125.96875 128.617188 120.0625 127.242188 114.34375 125.910156 L 80.625 118.046875 C 80.574219 118.03125 80.535156 117.980469 80.550781 117.925781 C 80.5625 117.875 80.617188 117.835938 80.667969 117.851562 L 114.386719 125.714844 C 120.09375 127.046875 126 128.425781 131.988281 129.179688 C 138.699219 130.03125 144.699219 129.976562 149.816406 129.007812 C 149.867188 129 149.925781 129.035156 149.933594 129.089844 C 149.945312 129.148438 149.910156 129.199219 149.855469 129.210938 C 147.121094 129.722656 144.140625 129.980469 140.933594 129.980469 Z M 140.941406 129.980469 "/><path style=" stroke:none;fill-rule:nonzero;fill:#ab789c;fill-opacity:1;" d="M 128.207031 106.148438 C 129.007812 108.929688 131.417969 110.941406 134.292969 111.261719 L 164.324219 114.597656 C 166.585938 114.851562 168.960938 115.089844 171.070312 114.234375 C 172.933594 113.476562 174.355469 111.957031 175.71875 110.484375 C 178.742188 107.214844 181.769531 103.945312 184.792969 100.675781 C 186.066406 99.292969 187.371094 97.875 188.101562 96.136719 C 189.277344 93.339844 188.800781 90.160156 188.40625 87.148438 C 187.113281 77.324219 186.902344 67.359375 187.761719 57.492188 C 187.761719 58.351562 144.707031 63.042969 140.714844 63.5625 C 135.980469 64.171875 127.015625 63.5 123.703125 67.742188 C 120.417969 71.945312 122.867188 80.222656 123.5625 84.863281 C 124.640625 92.054688 126.1875 99.164062 128.199219 106.152344 Z M 128.207031 106.148438 "/><path style=" stroke:none;fill-rule:nonzero;fill:#c4ac81;fill-opacity:1;" d="M 149.3125 77.941406 C 155.347656 78.539062 161.554688 79.125 167.398438 77.476562 C 171.976562 76.1875 176.0625 73.589844 180.074219 71.035156 C 184.183594 68.417969 188.566406 65.449219 190.109375 60.828125 C 190.660156 59.167969 190.695312 57.082031 189.375 55.925781 C 188.535156 55.1875 187.347656 55.015625 186.234375 54.878906 C 181.035156 54.226562 175.835938 53.578125 170.636719 52.925781 C 165.453125 52.277344 160.21875 51.625 155.015625 52.113281 C 142.894531 53.246094 132.261719 60.339844 122.226562 67.230469 C 120.964844 68.097656 119.6875 68.984375 118.773438 70.210938 C 117.191406 72.328125 117.257812 74.511719 119.996094 75.039062 C 123.179688 75.65625 126.597656 75.695312 129.832031 76.015625 C 136.324219 76.65625 142.816406 77.296875 149.316406 77.9375 Z M 149.3125 77.941406 "/><path style=" stroke:none;fill-rule:nonzero;fill:#ffffff;fill-opacity:1;" d="M 157.269531 73.0625 C 154.578125 73.0625 151.890625 72.800781 149.257812 72.542969 L 121.738281 69.859375 C 121.609375 69.84375 121.507812 69.730469 121.523438 69.597656 C 121.539062 69.464844 121.65625 69.375 121.785156 69.382812 L 149.304688 72.066406 C 153.339844 72.464844 157.511719 72.867188 161.59375 72.316406 C 171.757812 70.933594 180.375 63.691406 187.300781 57.867188 C 187.402344 57.78125 187.554688 57.796875 187.636719 57.894531 C 187.722656 57.996094 187.710938 58.148438 187.609375 58.230469 C 180.640625 64.089844 171.964844 71.386719 161.660156 72.785156 C 160.203125 72.988281 158.742188 73.0625 157.277344 73.0625 Z M 157.269531 73.0625 "/><path style=" stroke:none;fill-rule:nonzero;fill:#ffffff;fill-opacity:1;" d="M 172.132812 111.414062 C 172.019531 111.414062 171.917969 111.332031 171.898438 111.21875 C 170.089844 100.992188 169.285156 90.542969 169.519531 80.164062 C 169.519531 80.039062 169.628906 79.933594 169.757812 79.933594 L 169.761719 79.933594 C 169.894531 79.933594 170 80.042969 169.996094 80.175781 C 169.765625 90.523438 170.5625 100.941406 172.367188 111.136719 C 172.390625 111.265625 172.304688 111.390625 172.171875 111.414062 C 172.15625 111.414062 172.144531 111.414062 172.128906 111.414062 Z M 172.132812 111.414062 "/><path style=" stroke:none;fill-rule:nonzero;fill:#301829;fill-opacity:1;" d="M 137.429688 94.8125 C 139.246094 94.90625 140.675781 96.398438 140.679688 98.21875 L 140.707031 107.976562 C 140.707031 109.222656 140.726562 110.535156 141.328125 111.632812 C 142.042969 112.941406 143.484375 113.722656 144.949219 114 C 146.417969 114.277344 147.925781 114.109375 149.40625 113.941406 C 149.542969 109.113281 149.957031 104.292969 150.644531 99.511719 C 150.964844 97.289062 152.851562 95.605469 155.09375 95.5625 C 158.71875 95.496094 162.34375 95.640625 165.953125 96.007812 C 169.351562 96.351562 172.761719 95.34375 175.355469 93.121094 C 179.3125 89.71875 183.433594 86.515625 187.699219 83.511719 L 187.347656 74.457031 C 180.597656 79.550781 174.625 85.132812 166.355469 86.910156 C 162.6875 87.703125 158.917969 87.773438 155.175781 88.070312 C 152.976562 88.238281 151.058594 86.613281 150.820312 84.421875 C 150.21875 78.902344 150.210938 73.269531 152.914062 68.53125 C 155.253906 64.433594 159.328125 61.617188 163.527344 59.453125 C 167.71875 57.292969 172.1875 55.621094 176.152344 53.058594 C 172.367188 50.980469 167.6875 51.078125 163.5625 52.359375 C 159.441406 53.640625 155.742188 55.992188 152.105469 58.320312 C 149.257812 60.136719 146.324219 62.042969 144.488281 64.875 C 140.738281 70.660156 142.59375 78.417969 140.429688 84.964844 C 140.160156 85.765625 132.820312 85.882812 131.859375 85.929688 C 129.707031 86.039062 125.75 85.175781 123.859375 86.230469 C 121.953125 87.300781 122.679688 90.082031 122.917969 91.808594 C 123.214844 93.980469 123.25 94.136719 125.464844 94.238281 C 127.011719 94.304688 128.558594 94.386719 130.101562 94.460938 L 137.433594 94.820312 Z M 137.429688 94.8125 "/><path style=" stroke:none;fill-rule:nonzero;fill:#301829;fill-opacity:1;" d="M 158.324219 63.902344 C 157.835938 64.027344 157.335938 64.117188 156.835938 64.175781 C 154.046875 64.480469 151.480469 63.511719 149.609375 61.460938 C 146.710938 58.28125 144.652344 54.078125 143.804688 49.625 C 143.332031 47.152344 143.097656 43.585938 144.652344 40.671875 C 145.613281 38.867188 147.226562 37.574219 149.105469 37.144531 C 150.785156 36.75 152.488281 37.085938 153.894531 38.089844 C 155.210938 39.03125 156.074219 40.375 156.695312 41.667969 C 157.171875 40.695312 157.824219 39.675781 158.746094 38.863281 C 160.675781 37.171875 163.269531 36.886719 165.347656 38.132812 C 167.117188 39.191406 168.359375 41.273438 168.953125 44.136719 C 169.902344 48.703125 169.234375 53.421875 167.128906 57.070312 C 165.558594 59.800781 162.242188 62.894531 158.316406 63.890625 Z M 153.589844 57.832031 C 154.304688 58.613281 155.136719 58.929688 156.214844 58.824219 C 155.003906 58.542969 154.121094 57.453125 154.132812 56.167969 C 154.136719 55.675781 154.152344 55.195312 154.167969 54.726562 C 154.148438 51.421875 153.496094 48.066406 152.257812 44.941406 C 151.738281 43.636719 151.238281 42.808594 150.777344 42.476562 C 150.628906 42.371094 150.515625 42.347656 150.34375 42.386719 C 150.09375 42.4375 149.675781 42.699219 149.40625 43.203125 C 148.777344 44.378906 148.667969 46.355469 149.097656 48.621094 C 149.757812 52.105469 151.351562 55.378906 153.589844 57.832031 Z M 159.550781 54.804688 C 159.550781 55.316406 159.542969 55.824219 159.519531 56.335938 C 159.488281 56.894531 159.292969 57.40625 158.980469 57.824219 C 160.460938 56.933594 161.777344 55.605469 162.46875 54.402344 C 163.902344 51.910156 164.355469 48.488281 163.683594 45.242188 C 163.367188 43.71875 162.851562 42.921875 162.578125 42.761719 C 162.558594 42.761719 162.4375 42.804688 162.296875 42.917969 C 161.875 43.289062 161.460938 44.058594 161.054688 45.207031 C 160.164062 47.75 159.675781 50.832031 159.546875 54.804688 Z M 159.550781 54.804688 "/><path style=" stroke:none;fill-rule:nonzero;fill:#ffe1d6;fill-opacity:1;" d="M 140.605469 51.699219 C 142.617188 52.824219 144.535156 54.429688 145.21875 56.632812 C 146.449219 60.617188 142.9375 64.808594 138.90625 65.878906 C 134.871094 66.949219 130.625 65.808594 126.613281 64.671875 C 126.992188 66.597656 127.378906 68.570312 127.109375 70.511719 C 126.835938 72.453125 125.789062 74.410156 124.007812 75.234375 C 122.066406 76.132812 119.65625 75.476562 118.042969 74.066406 C 116.425781 72.660156 115.476562 70.636719 114.824219 68.59375 C 112.777344 62.222656 112.289062 55.9375 118.5 52.503906 C 125.308594 48.730469 133.621094 47.773438 140.605469 51.699219 Z M 140.605469 51.699219 "/><path style=" stroke:none;fill-rule:nonzero;fill:#c4ac81;fill-opacity:1;" d="M 58.207031 87.386719 C 71.019531 83.511719 80.882812 73.574219 91 64.8125 C 101.113281 56.054688 113.203125 47.785156 126.566406 48.492188 C 121.84375 55.683594 117.125 62.867188 112.402344 70.054688 C 107.105469 69.796875 101.984375 72.167969 97.710938 75.316406 C 93.4375 78.460938 89.808594 82.382812 85.789062 85.851562 C 76.859375 93.5625 65.972656 98.988281 54.4375 101.480469 C 49.664062 102.507812 35.953125 104.425781 37.96875 95.542969 C 39.53125 88.683594 52.835938 89.015625 58.207031 87.390625 Z M 58.207031 87.386719 "/><path style=" stroke:none;fill-rule:nonzero;fill:#ffffff;fill-opacity:1;" d="M 144.328125 62.792969 C 144.253906 62.792969 144.183594 62.761719 144.136719 62.699219 C 140.226562 57.613281 133.347656 54.871094 127.011719 55.863281 C 126.890625 55.882812 126.761719 55.796875 126.742188 55.664062 C 126.722656 55.535156 126.808594 55.410156 126.941406 55.390625 C 133.4375 54.371094 140.503906 57.191406 144.515625 62.410156 C 144.597656 62.511719 144.578125 62.660156 144.472656 62.742188 C 144.429688 62.777344 144.378906 62.789062 144.332031 62.789062 Z M 144.328125 62.792969 "/><path style=" stroke:none;fill-rule:nonzero;fill:#301829;fill-opacity:1;" d="M 194.507812 80.792969 C 192.785156 81.492188 190.960938 81.8125 189.109375 82.027344 C 186.558594 91.378906 184.007812 100.722656 181.460938 110.070312 C 180.765625 112.617188 179.882812 115.414062 177.613281 116.765625 C 175.546875 117.992188 172.964844 117.636719 170.613281 117.242188 C 166.816406 116.597656 163.023438 115.957031 159.222656 115.3125 C 158.347656 116.730469 157.257812 117.992188 156.007812 119.09375 C 162.460938 120.242188 168.925781 121.289062 175.417969 122.171875 C 177.863281 122.507812 180.503906 122.78125 182.6875 121.597656 C 185.53125 120.054688 186.652344 116.601562 187.515625 113.488281 C 190.582031 102.429688 193.640625 91.371094 196.707031 80.3125 C 196.785156 80.03125 196.863281 79.746094 196.941406 79.460938 C 196.183594 79.988281 195.371094 80.441406 194.507812 80.789062 Z M 194.507812 80.792969 "/><path style=" stroke:none;fill-rule:nonzero;fill:#ceb7bd;fill-opacity:1;" d="M 40.941406 91.6875 C 42.421875 92.6875 43.230469 94.382812 43.976562 95.988281 C 52.457031 114.324219 60.941406 132.679688 68.042969 151.574219 C 69.039062 154.222656 69.996094 157.234375 68.722656 159.777344 C 67.449219 162.339844 64.386719 163.4375 61.582031 164.132812 C 52.523438 166.386719 43.03125 166.882812 33.796875 165.609375 C 30.894531 165.207031 27.777344 164.496094 25.917969 162.273438 C 24.429688 160.496094 24.03125 158.085938 23.730469 155.796875 C 21.152344 136.109375 21.644531 114.375 31.0625 96.300781 C 32.734375 93.089844 37.082031 89.082031 40.9375 91.6875 Z M 40.941406 91.6875 "/><path style=" stroke:none;fill-rule:nonzero;fill:#301829;fill-opacity:1;" d="M 55.273438 67.660156 C 54.53125 67.660156 53.734375 67.332031 53.199219 66.871094 C 52.449219 66.21875 52.019531 65.273438 52.035156 64.285156 C 52.042969 63.378906 52.394531 62.570312 52.722656 61.878906 C 53.371094 60.523438 54.671875 60.042969 56.578125 60.460938 C 57.109375 60.574219 57.816406 60.917969 58.09375 61.515625 C 58.3125 61.988281 58.183594 62.460938 58.089844 62.808594 L 57.273438 65.746094 C 57.121094 66.296875 56.914062 67.058594 56.21875 67.441406 C 55.9375 67.597656 55.609375 67.664062 55.269531 67.664062 Z M 55.34375 60.789062 C 54.289062 60.789062 53.566406 61.21875 53.152344 62.085938 C 52.847656 62.726562 52.519531 63.480469 52.507812 64.289062 C 52.5 65.140625 52.867188 65.949219 53.507812 66.507812 C 54.242188 67.140625 55.351562 67.371094 55.984375 67.015625 C 56.460938 66.75 56.640625 66.222656 56.8125 65.613281 L 57.628906 62.675781 C 57.726562 62.308594 57.792969 62.003906 57.660156 61.710938 C 57.5 61.355469 57.023438 61.042969 56.480469 60.921875 C 56.066406 60.832031 55.683594 60.785156 55.34375 60.785156 Z M 55.34375 60.789062 "/><path style=" stroke:none;fill-rule:nonzero;fill:#ffe1d6;fill-opacity:1;" d="M 50.417969 84.785156 C 49.4375 87.734375 47.40625 91.128906 43.53125 90.5625 C 39.726562 90.011719 37.527344 86.121094 36.320312 82.9375 C 33.480469 75.449219 31.046875 67.910156 29.039062 60.367188 C 27.917969 56.140625 26.925781 51.710938 28.339844 47.957031 C 30.4375 42.367188 37.234375 39.640625 43.769531 37.730469 C 47.316406 36.695312 52.929688 36.113281 55.597656 40.101562 C 57.859375 43.484375 56.492188 49.355469 56.339844 52.621094 C 55.824219 63.707031 53.835938 74.515625 50.425781 84.785156 Z M 50.417969 84.785156 "/><path style=" stroke:none;fill-rule:nonzero;fill:#301829;fill-opacity:1;" d="M 45.246094 76.851562 C 44.226562 77.609375 43.894531 78.953125 44.402344 80.207031 C 44.769531 81.105469 45.585938 81.964844 46.636719 82.339844 C 48.183594 82.898438 49.566406 82.265625 48.902344 80.914062 C 48.695312 80.5 45.128906 76.941406 45.246094 76.851562 Z M 45.246094 76.851562 "/><path style=" stroke:none;fill-rule:nonzero;fill:#301829;fill-opacity:1;" d="M 56.144531 61.933594 C 51.851562 61.933594 47.488281 61.695312 43.132812 61.21875 C 42.996094 61.203125 42.90625 61.085938 42.921875 60.957031 C 42.9375 60.828125 43.0625 60.734375 43.183594 60.746094 C 48.199219 61.292969 53.238281 61.527344 58.15625 61.441406 C 58.304688 61.433594 58.394531 61.546875 58.398438 61.675781 C 58.402344 61.804688 58.296875 61.914062 58.164062 61.917969 C 57.492188 61.929688 56.824219 61.9375 56.144531 61.9375 Z M 56.144531 61.933594 "/><path style=" stroke:none;fill-rule:nonzero;fill:#ffe1d6;fill-opacity:1;" d="M 155.320312 89.554688 C 155.964844 87.398438 156.53125 85.140625 157.910156 83.355469 C 159.285156 81.570312 161.742188 80.386719 163.832031 81.230469 C 165.855469 82.054688 166.8125 84.515625 166.5625 86.6875 C 166.316406 88.859375 165.128906 90.796875 163.925781 92.625 C 167.453125 89.304688 171.238281 86.265625 175.242188 83.535156 C 176.5625 82.636719 177.949219 81.757812 179.523438 81.457031 C 181.09375 81.160156 182.898438 81.578125 183.835938 82.875 C 185.503906 85.179688 183.472656 88.476562 180.96875 89.835938 C 178.464844 91.191406 175.453125 91.613281 173.269531 93.441406 C 178.144531 97.417969 177.488281 105.597656 173.371094 110.351562 C 169.253906 115.109375 162.835938 117.128906 156.652344 118.269531 C 153.808594 118.792969 150.851562 119.179688 148.050781 118.46875 C 139.3125 116.265625 144.546875 111.082031 147.574219 106.363281 C 150.921875 101.15625 153.535156 95.480469 155.3125 89.554688 Z M 155.320312 89.554688 "/><path style=" stroke:none;fill-rule:nonzero;fill:#c4ac81;fill-opacity:1;" d="M 42.632812 99.828125 C 45.34375 100.253906 47.769531 101.320312 50.199219 102.296875 C 80.605469 114.503906 119.734375 113.898438 150.691406 100.75 C 151.304688 108.347656 150.949219 116.019531 149.628906 123.617188 C 113.714844 132.03125 71.410156 128.144531 41.472656 111.722656 C 38.699219 110.199219 33.324219 108.144531 32.804688 105.289062 C 32.039062 101.058594 38.171875 99.128906 42.636719 99.828125 Z M 42.632812 99.828125 "/><path style=" stroke:none;fill-rule:nonzero;fill:#ffffff;fill-opacity:1;" d="M 168.039062 107.269531 C 167.953125 107.269531 167.871094 107.21875 167.828125 107.140625 C 167.769531 107.023438 167.8125 106.878906 167.929688 106.816406 C 171.324219 105.019531 174.226562 102.1875 176.113281 98.839844 C 176.175781 98.726562 176.324219 98.683594 176.4375 98.75 C 176.550781 98.816406 176.59375 98.960938 176.527344 99.074219 C 174.597656 102.496094 171.628906 105.398438 168.152344 107.234375 C 168.117188 107.253906 168.078125 107.261719 168.042969 107.261719 Z M 168.039062 107.269531 "/><path style=" stroke:none;fill-rule:nonzero;fill:#301829;fill-opacity:1;" d="M 63.878906 39.359375 C 65.410156 38.132812 66.183594 36.378906 66.195312 34.449219 C 68.09375 32.941406 69.234375 30.773438 68.699219 27.375 C 67.871094 22.101562 61.332031 18.617188 56.488281 20.871094 C 57.53125 16.648438 54.792969 11.855469 50.628906 10.609375 C 46.464844 9.363281 41.539062 11.867188 40.09375 15.964844 C 36.871094 13.011719 32.664062 10.785156 28.304688 11.140625 C 23.949219 11.5 19.738281 15.136719 19.859375 19.5 C 16.46875 16.242188 10.097656 17.710938 7.914062 21.878906 C 5.726562 26.042969 7.574219 31.632812 11.464844 34.285156 C 8.226562 32.773438 4.199219 35.722656 3.691406 39.253906 C 3.273438 42.128906 4.613281 44.953125 6.621094 47.109375 C 4.226562 47.855469 2.417969 49.355469 1.738281 51.34375 C 0.648438 54.539062 2.523438 58.808594 6.316406 61.757812 C 5.285156 64.027344 6.492188 67.21875 9.230469 69.453125 C 11.96875 71.691406 16.0625 72.828125 19.105469 72.203125 C 19.421875 75.179688 21.664062 78.507812 25.164062 80.59375 C 28.664062 82.679688 33.328125 83.25 35.953125 81.664062 C 38.574219 80.082031 38.550781 76.308594 35.628906 73.726562 C 38.414062 74.195312 40.988281 73.296875 41.898438 71.53125 C 42.808594 69.765625 41.996094 67.242188 39.925781 65.394531 C 42.867188 66.015625 45.722656 65.316406 47.050781 63.65625 C 48.378906 61.988281 48.117188 59.433594 46.402344 57.277344 C 49.796875 59.070312 54.023438 59.296875 56.492188 57.816406 C 58.964844 56.335938 59.511719 53.253906 57.796875 50.453125 C 61.539062 51.113281 65.035156 49.941406 66.320312 47.597656 C 67.605469 45.257812 66.601562 41.871094 63.878906 39.347656 Z M 63.878906 39.359375 "/><path style=" stroke:none;fill-rule:nonzero;fill:#ffe1d6;fill-opacity:1;" d="M 47.601562 63.359375 C 46.25 62.191406 44.722656 60.9375 42.945312 60.695312 C 41.851562 60.546875 40.816406 60.820312 39.988281 61.28125 C 38.445312 62.140625 37.539062 63.742188 37.816406 65.460938 C 38.097656 67.183594 39.65625 68.953125 41.652344 69.621094 C 42.660156 69.960938 43.90625 69.945312 44.34375 69.234375 "/><g clip-rule="nonzero" clip-path="url(#2ed2118cf2)"><g clip-rule="nonzero" clip-path="url(#b0efff2107)"><g clip-rule="nonzero" clip-path="url(#b1ecb51ae2)"><path style=" stroke:none;fill-rule:nonzero;fill:#d8cec6;fill-opacity:1;" d="M 33.160156 104.269531 L 33.273438 104.097656 C 35.566406 100.746094 38.441406 99.890625 41.90625 101.527344 C 45.8125 103.625 49.207031 107.042969 52.097656 111.789062 C 56.917969 119.957031 61.796875 131.117188 66.738281 145.277344 C 68.003906 148.96875 68.871094 152.445312 69.34375 155.707031 C 69.515625 157.9375 69.152344 159.804688 68.246094 161.3125 C 66.820312 163 64.59375 163.804688 61.578125 163.722656 C 61.152344 163.894531 57.917969 163.445312 51.882812 162.375 C 46.183594 161.960938 42.363281 161.582031 40.425781 161.246094 C 34.453125 160.277344 30.375 158.070312 28.1875 154.625 C 27.023438 152.558594 26.355469 150.203125 26.183594 147.550781 C 25.902344 145.214844 26.0625 140.695312 26.671875 133.996094 C 28.34375 119.511719 30.507812 109.601562 33.160156 104.269531 "/></g></g></g><g clip-rule="nonzero" clip-path="url(#ea03c93a4a)"><g clip-rule="nonzero" clip-path="url(#8cb2712795)"><g clip-rule="nonzero" clip-path="url(#23bb5a3fae)"><path style=" stroke:none;fill-rule:nonzero;fill:#d8cec6;fill-opacity:1;" d="M 23.734375 118.679688 L 23.804688 118.515625 C 25.296875 115.320312 27.640625 114.179688 30.839844 115.09375 C 34.484375 116.335938 37.878906 118.789062 41.027344 122.445312 C 46.3125 128.761719 52.074219 137.636719 58.316406 149.070312 C 59.921875 152.054688 61.160156 154.910156 62.023438 157.640625 C 62.488281 159.527344 62.441406 161.179688 61.878906 162.597656 C 60.894531 164.25 59.101562 165.253906 56.503906 165.609375 C 56.164062 165.816406 53.328125 165.890625 48.003906 165.828125 C 43.0625 166.277344 39.734375 166.496094 38.023438 166.480469 C 32.769531 166.496094 28.960938 165.183594 26.601562 162.539062 C 25.308594 160.933594 24.402344 159.007812 23.882812 156.761719 C 23.308594 154.796875 22.808594 150.902344 22.378906 145.074219 C 21.765625 132.425781 22.214844 123.625 23.734375 118.679688 "/></g></g></g><g clip-rule="nonzero" clip-path="url(#9437fc9675)"><g clip-rule="nonzero" clip-path="url(#00a9936073)"><g clip-rule="nonzero" clip-path="url(#20bb274a06)"><path style=" stroke:none;fill-rule:nonzero;fill:#d8cec6;fill-opacity:1;" d="M 43.195312 93.875 C 40.351562 89.738281 36.984375 89.671875 34.296875 93.128906 C 31.738281 96.441406 30.265625 100.316406 29.0625 104.34375 C 27.230469 110.5625 25.390625 116.773438 23.582031 123 C 23.296875 123.996094 23.058594 125.03125 22.953125 126.078125 C 22.558594 130.074219 25.390625 133.511719 29.347656 133.878906 C 30.605469 134 31.859375 133.886719 33.039062 133.464844 C 38.804688 131.34375 44.675781 129.417969 50.308594 127.011719 C 54.941406 125.027344 55.660156 121.738281 54.40625 117.832031 C 53.097656 113.746094 51.734375 109.660156 49.550781 105.871094 C 47.175781 101.730469 45.074219 97.445312 43.195312 93.875 Z M 43.195312 93.875 "/></g></g></g><g clip-rule="nonzero" clip-path="url(#11e083dd14)"><g clip-rule="nonzero" clip-path="url(#a2c1017288)"><g clip-rule="nonzero" clip-path="url(#3610a77dfc)"><path style=" stroke:none;fill-rule:nonzero;fill:#d8cec6;fill-opacity:1;" d="M 32.972656 125.945312 C 34.453125 120.230469 38.148438 118.804688 42.511719 121.546875 C 46.671875 124.179688 49.855469 127.871094 52.804688 131.84375 C 57.328125 137.988281 61.855469 144.113281 66.359375 150.269531 C 67.074219 151.257812 67.757812 152.304688 68.292969 153.421875 C 70.335938 157.683594 68.585938 162.621094 64.355469 164.621094 C 63.011719 165.257812 61.582031 165.636719 60.105469 165.644531 C 52.878906 165.613281 45.617188 165.84375 38.417969 165.449219 C 32.496094 165.113281 30.382812 161.765625 30.199219 156.941406 C 30.003906 151.898438 29.871094 146.832031 30.761719 141.765625 C 31.726562 136.230469 32.324219 130.648438 32.972656 125.945312 Z M 32.972656 125.945312 "/></g></g></g><g clip-rule="nonzero" clip-path="url(#9c5328ba0c)"><g clip-rule="nonzero" clip-path="url(#267ac6041f)"><g clip-rule="nonzero" clip-path="url(#452c48ceff)"><path style=" stroke:none;fill-rule:nonzero;fill:#d8cec6;fill-opacity:1;" d="M 44.761719 98.917969 C 44.460938 97.300781 44.007812 95.722656 43.308594 94.238281 C 42.886719 93.34375 42.429688 92.460938 41.621094 91.804688 C 40.675781 91.050781 39.667969 90.59375 38.425781 90.628906 C 36.816406 90.664062 35.441406 91.246094 34.132812 92.128906 C 32.8125 93.019531 31.679688 94.113281 30.664062 95.332031 C 29.765625 96.40625 28.925781 97.542969 28.332031 98.824219 C 27.855469 99.828125 27.316406 100.8125 26.910156 101.84375 C 26.464844 102.984375 26.117188 104.164062 25.765625 105.34375 C 25.488281 106.28125 25.25 107.222656 25.054688 108.183594 C 24.773438 109.503906 24.527344 110.828125 24.316406 112.160156 C 24.050781 113.777344 23.828125 115.402344 23.597656 117.023438 C 23.34375 118.78125 23.082031 120.535156 22.835938 122.292969 C 22.65625 123.613281 22.667969 124.925781 23.132812 126.214844 C 23.394531 126.933594 23.558594 127.695312 23.800781 128.441406 C 24.019531 129.09375 24.398438 129.667969 24.914062 130.136719 C 25.230469 130.417969 25.566406 130.691406 25.910156 130.953125 C 26.664062 131.527344 27.558594 131.773438 28.472656 131.875 C 29.015625 131.941406 29.589844 131.816406 30.152344 131.753906 C 30.960938 131.65625 31.773438 131.5625 32.574219 131.429688 C 33.710938 131.25 34.808594 130.933594 35.785156 130.289062 C 36.289062 129.957031 36.828125 129.679688 37.328125 129.339844 C 38.441406 128.574219 39.351562 127.601562 40.160156 126.519531 C 41.449219 124.796875 42.304688 122.863281 43.039062 120.855469 C 43.679688 119.09375 43.984375 117.277344 44.148438 115.425781 C 44.300781 113.757812 44.390625 112.074219 44.5 110.398438 C 44.632812 108.457031 44.777344 106.511719 44.878906 104.566406 C 44.980469 102.683594 45.136719 100.789062 44.761719 98.917969 Z M 44.761719 98.917969 "/></g></g></g><g clip-rule="nonzero" clip-path="url(#2f33b1b1a6)"><g clip-rule="nonzero" clip-path="url(#95beee6131)"><g clip-rule="nonzero" clip-path="url(#af3e7046f2)"><path style=" stroke:none;fill-rule:nonzero;fill:#c4ac81;fill-opacity:1;" d="M 35.753906 109.550781 C 34.882812 108.847656 34.078125 108.0625 33.410156 107.164062 C 33.011719 106.621094 32.625 106.058594 32.496094 105.359375 C 32.347656 104.546875 32.398438 103.792969 32.820312 103.054688 C 33.363281 102.097656 34.15625 101.460938 35.109375 100.960938 C 36.074219 100.453125 37.101562 100.125 38.160156 99.910156 C 39.097656 99.71875 40.054688 99.578125 41.015625 99.636719 C 41.773438 99.675781 42.542969 99.667969 43.292969 99.757812 C 44.125 99.859375 44.945312 100.035156 45.769531 100.203125 C 46.421875 100.339844 47.066406 100.5 47.707031 100.695312 C 48.589844 100.953125 49.46875 101.234375 50.339844 101.535156 C 51.398438 101.902344 52.445312 102.292969 53.496094 102.679688 C 54.636719 103.09375 55.773438 103.503906 56.910156 103.925781 C 57.765625 104.246094 58.550781 104.675781 59.175781 105.375 C 59.523438 105.761719 59.929688 106.109375 60.296875 106.496094 C 60.621094 106.835938 60.84375 107.25 60.957031 107.714844 C 61.027344 107.996094 61.082031 108.285156 61.128906 108.578125 C 61.230469 109.214844 61.085938 109.835938 60.855469 110.417969 C 60.714844 110.765625 60.457031 111.070312 60.234375 111.386719 C 59.917969 111.84375 59.597656 112.300781 59.257812 112.742188 C 58.78125 113.367188 58.234375 113.921875 57.53125 114.304688 C 57.167969 114.496094 56.828125 114.730469 56.460938 114.921875 C 55.640625 115.347656 54.761719 115.578125 53.847656 115.714844 C 52.394531 115.933594 50.953125 115.820312 49.511719 115.613281 C 48.242188 115.429688 47.050781 115.027344 45.882812 114.523438 C 44.832031 114.074219 43.789062 113.585938 42.746094 113.109375 C 41.535156 112.558594 40.316406 112.019531 39.117188 111.449219 C 37.949219 110.902344 36.761719 110.382812 35.753906 109.550781 Z M 35.753906 109.550781 "/></g></g></g><g clip-rule="nonzero" clip-path="url(#11205d129d)"><g clip-rule="nonzero" clip-path="url(#fe2b94015b)"><g clip-rule="nonzero" clip-path="url(#711ab7e3a0)"><path style=" stroke:none;fill-rule:nonzero;fill:#c4ac81;fill-opacity:1;" d="M 46.769531 114.71875 C 45.878906 114.144531 45.042969 113.492188 44.328125 112.710938 C 43.894531 112.242188 43.480469 111.753906 43.285156 111.113281 C 43.0625 110.363281 43.035156 109.648438 43.359375 108.914062 C 43.769531 107.960938 44.453125 107.285156 45.296875 106.71875 C 46.152344 106.144531 47.082031 105.734375 48.054688 105.421875 C 48.914062 105.148438 49.796875 104.921875 50.710938 104.875 C 51.425781 104.835938 52.144531 104.753906 52.859375 104.761719 C 53.648438 104.773438 54.4375 104.855469 55.230469 104.929688 C 55.855469 104.992188 56.480469 105.078125 57.101562 105.195312 C 57.957031 105.347656 58.808594 105.523438 59.65625 105.71875 C 60.683594 105.957031 61.710938 106.21875 62.734375 106.472656 C 63.847656 106.75 64.957031 107.019531 66.066406 107.300781 C 66.902344 107.511719 67.683594 107.839844 68.34375 108.429688 C 68.707031 108.761719 69.121094 109.046875 69.507812 109.371094 C 69.84375 109.660156 70.097656 110.027344 70.25 110.449219 C 70.34375 110.707031 70.421875 110.972656 70.496094 111.242188 C 70.65625 111.832031 70.585938 112.429688 70.425781 112.996094 C 70.332031 113.339844 70.117188 113.652344 69.945312 113.972656 C 69.691406 114.433594 69.4375 114.894531 69.160156 115.339844 C 68.777344 115.976562 68.320312 116.554688 67.699219 116.980469 C 67.378906 117.203125 67.082031 117.457031 66.757812 117.671875 C 66.027344 118.152344 65.226562 118.460938 64.382812 118.679688 C 63.039062 119.03125 61.675781 119.070312 60.296875 119.019531 C 59.089844 118.976562 57.929688 118.71875 56.78125 118.367188 C 55.75 118.050781 54.722656 117.695312 53.695312 117.355469 C 52.5 116.960938 51.304688 116.574219 50.117188 116.160156 C 48.96875 115.765625 47.796875 115.398438 46.769531 114.71875 Z M 46.769531 114.71875 "/></g></g></g><g clip-rule="nonzero" clip-path="url(#aa3208b752)"><g clip-rule="nonzero" clip-path="url(#9aa9fd8f57)"><g clip-rule="nonzero" clip-path="url(#ca7e42fd63)"><path style=" stroke:none;fill-rule:nonzero;fill:#c4ac81;fill-opacity:1;" d="M 47.863281 111.164062 C 47.175781 110.480469 46.558594 109.730469 46.070312 108.894531 C 45.773438 108.390625 45.496094 107.871094 45.449219 107.257812 C 45.394531 106.546875 45.511719 105.902344 45.941406 105.304688 C 46.496094 104.535156 47.238281 104.0625 48.105469 103.71875 C 48.984375 103.371094 49.894531 103.183594 50.828125 103.097656 C 51.648438 103.019531 52.484375 102.988281 53.308594 103.125 C 53.957031 103.230469 54.617188 103.296875 55.253906 103.441406 C 55.960938 103.605469 56.648438 103.832031 57.34375 104.054688 C 57.890625 104.230469 58.429688 104.429688 58.964844 104.65625 C 59.699219 104.960938 60.429688 105.285156 61.148438 105.625 C 62.023438 106.035156 62.890625 106.46875 63.757812 106.898438 C 64.699219 107.363281 65.640625 107.820312 66.578125 108.289062 C 67.285156 108.640625 67.917969 109.085938 68.394531 109.742188 C 68.65625 110.109375 68.972656 110.445312 69.253906 110.8125 C 69.5 111.136719 69.652344 111.511719 69.707031 111.921875 C 69.742188 112.167969 69.761719 112.425781 69.773438 112.679688 C 69.804688 113.238281 69.621094 113.757812 69.367188 114.234375 C 69.21875 114.523438 68.964844 114.761719 68.746094 115.011719 C 68.429688 115.375 68.113281 115.738281 67.777344 116.085938 C 67.3125 116.578125 66.792969 117.007812 66.152344 117.269531 C 65.820312 117.402344 65.507812 117.574219 65.171875 117.703125 C 64.425781 117.992188 63.648438 118.109375 62.851562 118.140625 C 61.582031 118.195312 60.355469 117.964844 59.132812 117.652344 C 58.058594 117.378906 57.070312 116.917969 56.113281 116.378906 C 55.25 115.894531 54.398438 115.378906 53.546875 114.871094 C 52.554688 114.289062 51.558594 113.710938 50.578125 113.105469 C 49.625 112.527344 48.652344 111.972656 47.863281 111.164062 Z M 47.863281 111.164062 "/></g></g></g></g></svg>