<svg xmlns="http://www.w3.org/2000/svg" xmlns:xlink="http://www.w3.org/1999/xlink" width="300" zoomAndPan="magnify" viewBox="0 0 224.87999 195.000001" height="260" preserveAspectRatio="xMidYMid meet" version="1.2"><g id="0ef906c0bb"><path style=" stroke:none;fill-rule:nonzero;fill:#c4ac81;fill-opacity:1;" d="M 26.632812 47.441406 C 18.726562 48.519531 11.921875 54.3125 8.4375 61.492188 C 4.957031 68.671875 4.507812 77.050781 5.90625 84.902344 C 7.308594 92.761719 10.460938 100.191406 13.925781 107.382812 C 20.128906 120.25 27.445312 132.636719 32.203125 146.105469 C 36.960938 159.578125 39.007812 174.585938 34.386719 188.101562 C 38.210938 189.160156 42.117188 190.234375 46.085938 190.042969 C 50.050781 189.847656 54.160156 188.171875 56.285156 184.816406 C 57.804688 182.417969 58.148438 179.480469 58.363281 176.652344 C 60.410156 149.839844 54.183594 122.453125 40.75 99.15625 C 36.472656 91.75 31.480469 84.722656 28.03125 76.894531 C 26.746094 73.976562 25.660156 70.824219 26.007812 67.65625 C 26.347656 64.578125 28.320312 61.578125 31.40625 60.761719 C 34.421875 59.957031 37.503906 61.667969 39.378906 58.28125 C 43.574219 50.714844 32.042969 46.707031 26.632812 47.441406 Z M 26.632812 47.441406 "/><path style=" stroke:none;fill-rule:nonzero;fill:#301829;fill-opacity:1;" d="M 39.863281 52.871094 C 39.078125 53.542969 38.808594 54.625 38.601562 55.636719 C 38.367188 56.78125 38.164062 57.957031 38.328125 59.113281 C 38.488281 60.269531 39.070312 61.425781 40.082031 62.007812 C 41.097656 62.585938 42.558594 62.429688 43.230469 61.472656 C 43.710938 60.796875 43.71875 59.90625 43.710938 59.074219 C 43.699219 57.496094 44.125 55.113281 43.554688 53.597656 C 43.019531 52.191406 40.945312 51.9375 39.863281 52.871094 Z M 39.863281 52.871094 "/><path style=" stroke:none;fill-rule:nonzero;fill:#ffe1d6;fill-opacity:1;" d="M 91.492188 88.574219 C 90.578125 93.484375 88.5625 99.101562 83.765625 100.484375 C 78.691406 101.945312 73.835938 97.769531 70.488281 93.699219 C 62.800781 84.351562 56.824219 73.601562 52.953125 62.132812 C 51.121094 56.714844 49.777344 50.664062 51.964844 45.378906 C 56.242188 35.0625 78.195312 29.398438 86.09375 38.40625 C 90.800781 43.769531 91.636719 54.210938 92.410156 60.980469 C 93.464844 70.160156 93.171875 79.492188 91.488281 88.578125 Z M 91.492188 88.574219 "/><path style=" stroke:none;fill-rule:nonzero;fill:#301829;fill-opacity:1;" d="M 79.105469 86.867188 C 79.9375 87.324219 80.941406 87.777344 81.171875 88.699219 C 81.339844 89.371094 80.996094 90.097656 80.449219 90.523438 C 79.902344 90.953125 79.199219 91.121094 78.507812 91.160156 C 76.625 91.265625 74.707031 90.429688 73.503906 88.972656 C 72.40625 87.644531 70.839844 82.722656 73.550781 82.0625 C 74.785156 81.765625 75.191406 83.039062 75.792969 83.878906 C 76.675781 85.109375 77.769531 86.140625 79.101562 86.871094 Z M 79.105469 86.867188 "/><path style=" stroke:none;fill-rule:nonzero;fill:#ab789c;fill-opacity:1;" d="M 72.777344 75.433594 C 73.679688 74.527344 74.316406 73.355469 74.585938 72.105469 C 74.664062 71.738281 74.6875 71.300781 74.40625 71.058594 C 74.128906 70.820312 73.683594 70.90625 73.414062 71.152344 C 73.144531 71.402344 73.015625 71.753906 72.886719 72.097656 C 73.226562 71.480469 72.605469 70.648438 71.898438 70.652344 C 71.195312 70.65625 70.617188 71.3125 70.519531 72.007812 C 70.417969 72.703125 70.695312 73.410156 71.085938 73.988281 C 71.5 74.605469 72.050781 75.132812 72.683594 75.519531 "/><path style=" stroke:none;fill-rule:nonzero;fill:#301829;fill-opacity:1;" d="M 88.0625 65.0625 C 88 65.3125 87.921875 65.5625 87.746094 65.769531 C 87.566406 65.976562 87.289062 66.132812 86.988281 66.125 C 86.558594 66.117188 86.210938 65.804688 85.964844 65.5 C 85.164062 64.484375 83.640625 60.253906 85.839844 59.988281 C 88.15625 59.710938 88.328125 63.9375 88.058594 65.0625 Z M 88.0625 65.0625 "/><path style=" stroke:none;fill-rule:nonzero;fill:#301829;fill-opacity:1;" d="M 76.164062 66.8125 C 76.105469 67.0625 76.023438 67.316406 75.847656 67.523438 C 75.671875 67.730469 75.394531 67.882812 75.089844 67.878906 C 74.664062 67.871094 74.316406 67.558594 74.070312 67.253906 C 73.269531 66.238281 71.746094 62.007812 73.941406 61.742188 C 76.261719 61.464844 76.433594 65.691406 76.160156 66.8125 Z M 76.164062 66.8125 "/><path style=" stroke:none;fill-rule:nonzero;fill:#c4ac81;fill-opacity:1;" d="M 61.453125 62.773438 C 59.105469 64.355469 56.382812 65.859375 55.425781 68.523438 C 54.664062 70.644531 55.261719 73.058594 56.464844 74.964844 C 57.664062 76.871094 59.402344 78.371094 61.113281 79.835938 C 56.386719 82.578125 49.960938 81.160156 46.042969 77.347656 C 42.125 73.535156 40.484375 67.824219 40.621094 62.359375 C 40.765625 56.539062 42.816406 50.726562 46.609375 46.308594 C 50.398438 41.886719 55.945312 38.9375 61.757812 38.570312 C 66.988281 38.246094 74.753906 41.324219 73.613281 47.773438 C 72.574219 53.648438 66.109375 59.625 61.453125 62.769531 Z M 61.453125 62.773438 "/><path style=" stroke:none;fill-rule:nonzero;fill:#ffe1d6;fill-opacity:1;" d="M 60.113281 64.664062 C 59.003906 62.300781 55.863281 61.226562 53.445312 62.214844 C 51.023438 63.199219 49.539062 65.949219 49.800781 68.550781 C 50.058594 71.152344 51.917969 73.464844 54.304688 74.527344 C 56.691406 75.59375 59.515625 75.46875 61.925781 74.457031 "/><path style=" stroke:none;fill-rule:nonzero;fill:#c4ac81;fill-opacity:1;" d="M 41.757812 99.769531 C 52.039062 90.578125 55.777344 76.171875 57.53125 62.496094 C 58.027344 58.589844 58.847656 51.164062 63.960938 50.539062 C 69.265625 49.890625 68.527344 55.570312 67.707031 58.824219 C 65.15625 69.007812 60.488281 78.648438 54.121094 86.996094 C 50.523438 91.71875 46.371094 96.023438 41.761719 99.769531 Z M 41.757812 99.769531 "/><path style=" stroke:none;fill-rule:nonzero;fill:#ab789c;fill-opacity:1;" d="M 90.058594 47.867188 C 92.445312 46.890625 94.828125 45.6875 96.484375 43.710938 C 98.136719 41.738281 98.910156 38.832031 97.777344 36.519531 C 95.890625 32.664062 90.484375 32.625 86.230469 33.246094 C 83.472656 25.316406 74.179688 20.78125 65.890625 22.105469 C 57.148438 23.507812 37.558594 39.3125 47.429688 48.914062 C 56.433594 57.667969 80.195312 51.878906 90.058594 47.867188 Z M 90.058594 47.867188 "/><path style=" stroke:none;fill-rule:nonzero;fill:#ffffff;fill-opacity:1;" d="M 60.082031 42.414062 C 57.414062 42.414062 54.75 42.183594 52.121094 41.703125 C 52 41.679688 51.921875 41.566406 51.945312 41.445312 C 51.964844 41.328125 52.082031 41.25 52.199219 41.269531 C 63.429688 43.308594 75.347656 40.882812 84.886719 34.617188 C 84.988281 34.550781 85.125 34.578125 85.191406 34.679688 C 85.257812 34.78125 85.230469 34.917969 85.128906 34.984375 C 77.730469 39.84375 68.914062 42.414062 60.082031 42.414062 Z M 60.082031 42.414062 "/><path style=" stroke:none;fill-rule:nonzero;fill:#ffffff;fill-opacity:1;" d="M 89.542969 75.207031 C 98.449219 86.910156 114.789062 93.214844 129.726562 90.730469 C 144.15625 88.332031 156.460938 77.675781 159.742188 64.78125 C 161.9375 56.152344 160.304688 46.8125 156.058594 38.792969 C 151.46875 30.136719 143.351562 22.515625 133.203125 19.917969 C 125.15625 17.859375 116.46875 19.074219 108.703125 21.957031 C 102.089844 24.414062 95.601562 27.980469 89.84375 32.046875 C 85.507812 35.113281 83.945312 40.46875 82.917969 45.335938 C 80.761719 55.539062 82.972656 66.574219 89.550781 75.207031 Z M 89.542969 75.207031 "/><path style=" stroke:none;fill-rule:nonzero;fill:#c4ac81;fill-opacity:1;" d="M 83.527344 73.375 C 76.601562 57.804688 78.527344 39.003906 90.179688 26.417969 C 101.476562 14.214844 121.816406 9.6875 137.289062 16.835938 C 147.117188 21.375 154.316406 29.949219 158.359375 39.222656 C 160.890625 45.03125 162.3125 51.171875 163.089844 57.347656 C 163.460938 60.261719 163.019531 63.847656 163.8125 66.644531 C 164.726562 69.875 166.207031 70.089844 169.519531 71.6875 C 182.390625 77.902344 194.914062 83.964844 207.097656 89.855469 C 209.757812 91.140625 212.527344 92.523438 214.171875 94.988281 C 215.816406 97.445312 215.839844 101.355469 213.4375 103.128906 C 210.792969 105.078125 207.203125 103.476562 204.414062 101.832031 C 190.074219 93.394531 175.28125 84.695312 160.019531 75.722656 C 154.445312 84.664062 145.59375 92.152344 134.871094 95.75 C 123.867188 99.445312 110.890625 98.785156 100.757812 93.042969 C 92.832031 88.558594 87.0625 81.324219 83.523438 73.367188 Z M 131.738281 85.75 C 145.476562 82.21875 155.914062 70.203125 156.902344 57.3125 C 157.878906 44.539062 149.582031 31.292969 136.921875 25.53125 C 124.765625 20 104.222656 20.9375 95.875 32.144531 C 87.316406 43.632812 84.125 59.464844 92.746094 71.945312 C 100.847656 83.671875 117.53125 89.398438 131.738281 85.75 Z M 131.738281 85.75 "/><path style=" stroke:none;fill-rule:nonzero;fill:#ffffff;fill-opacity:1;" d="M 212.710938 99.527344 C 212.710938 99.527344 212.710938 99.527344 212.707031 99.527344 C 211.273438 99.488281 209.945312 98.800781 208.78125 98.195312 L 159.675781 72.707031 C 152.414062 86.121094 135.390625 94.703125 119.09375 93.136719 C 101.648438 91.453125 86.394531 78.761719 82.824219 62.953125 C 82.796875 62.832031 82.871094 62.714844 82.988281 62.6875 C 83.109375 62.660156 83.226562 62.738281 83.253906 62.855469 C 86.78125 78.484375 101.871094 91.035156 119.136719 92.699219 C 135.34375 94.261719 152.269531 85.6875 159.390625 72.3125 C 159.445312 72.207031 159.578125 72.167969 159.683594 72.21875 L 208.984375 97.800781 C 210.109375 98.386719 211.386719 99.046875 212.71875 99.085938 C 212.84375 99.085938 212.9375 99.191406 212.9375 99.3125 C 212.9375 99.429688 212.835938 99.527344 212.714844 99.527344 Z M 212.710938 99.527344 "/><path style=" stroke:none;fill-rule:nonzero;fill:#ab789c;fill-opacity:1;" d="M 171.578125 85.394531 C 173.128906 88.730469 176.429688 90.847656 179.546875 92.769531 C 187.117188 97.441406 194.558594 102.039062 201.894531 106.5625 C 205.140625 108.566406 208.558594 110.613281 212.339844 110.652344 C 216.34375 110.691406 220.304688 108.222656 222.191406 104.558594 C 224.0625 100.921875 223.800781 96.242188 221.554688 92.9375 C 219.25 89.542969 215.308594 87.8125 211.539062 86.238281 C 202.089844 82.269531 192.507812 77.929688 182.613281 73.878906 C 175.4375 70.941406 167.902344 77.484375 171.578125 85.394531 Z M 171.578125 85.394531 "/><path style=" stroke:none;fill-rule:nonzero;fill:#ffe1d6;fill-opacity:1;" d="M 137.875 128.613281 C 144.597656 130.019531 151.394531 131.164062 158.113281 132.484375 C 162.011719 133.25 165.984375 134.019531 169.933594 133.558594 C 175.867188 132.867188 181.292969 129.144531 184.324219 124.03125 C 187.335938 118.953125 188.691406 112.808594 184.1875 108.128906 C 181.347656 105.179688 177.351562 103.679688 173.441406 102.46875 C 169.527344 101.261719 165.472656 100.214844 162.089844 97.914062 C 158.703125 95.609375 156.066406 91.683594 156.589844 87.625 C 157.113281 83.566406 161.816406 80.203125 165.476562 82.023438 C 166.710938 73.203125 170.800781 64.796875 176.980469 58.382812 C 180.117188 55.128906 184.75 52.222656 188.910156 53.980469 C 191.699219 55.15625 193.339844 58.1875 193.707031 61.191406 C 194.070312 64.195312 193.378906 67.214844 192.699219 70.160156 C 194.453125 65.871094 200.492188 64.546875 204.527344 66.816406 C 208.5625 69.09375 210.621094 73.917969 210.804688 78.546875 C 210.988281 83.175781 209.613281 87.707031 208.25 92.136719 C 205.953125 99.597656 203.65625 107.058594 201.359375 114.523438 C 198.421875 124.054688 194.816406 134.460938 186.171875 139.445312 C 179.414062 143.34375 171.082031 142.972656 163.332031 142.078125 C 145.664062 140.035156 128.238281 135.859375 111.5625 129.671875 C 106.757812 127.886719 101.152344 125.867188 97.40625 122.214844 C 93.4375 118.339844 97.90625 118.128906 101.585938 118.832031 C 111.042969 120.640625 120.015625 124.246094 129.316406 126.636719 C 132.152344 127.363281 135.007812 128.011719 137.878906 128.609375 Z M 137.875 128.613281 "/><path style=" stroke:none;fill-rule:nonzero;fill:#ffffff;fill-opacity:1;" d="M 200.179688 94.664062 C 199.8125 94.664062 199.453125 94.628906 199.105469 94.5625 C 196.183594 93.988281 193.582031 91.402344 192.476562 87.972656 C 191.589844 85.207031 191.621094 82.3125 191.816406 79.347656 C 190.003906 82.457031 188.074219 85.601562 185.394531 88.113281 C 182.113281 91.179688 178.160156 92.675781 174.542969 92.21875 C 169.441406 91.578125 165.238281 86.511719 165.550781 81.375 C 165.5625 81.253906 165.667969 81.164062 165.785156 81.167969 C 165.910156 81.179688 166 81.28125 165.992188 81.402344 C 165.695312 86.316406 169.71875 91.167969 174.601562 91.785156 C 178.085938 92.222656 181.914062 90.765625 185.09375 87.789062 C 187.964844 85.105469 189.972656 81.648438 191.914062 78.304688 C 191.96875 78.214844 192.074219 78.171875 192.167969 78.203125 C 192.265625 78.234375 192.332031 78.324219 192.324219 78.429688 C 192.078125 81.683594 191.9375 84.855469 192.894531 87.835938 C 193.953125 91.113281 196.421875 93.585938 199.1875 94.125 C 200.785156 94.4375 202.617188 93.957031 203.964844 92.875 C 205.101562 91.960938 205.742188 90.75 205.765625 89.46875 C 205.765625 89.34375 205.875 89.253906 205.988281 89.253906 C 206.113281 89.253906 206.210938 89.355469 206.203125 89.476562 C 206.179688 90.890625 205.476562 92.21875 204.238281 93.21875 C 203.082031 94.148438 201.601562 94.664062 200.171875 94.664062 Z M 200.179688 94.664062 "/><path style=" stroke:none;fill-rule:nonzero;fill:#ab789c;fill-opacity:1;" d="M 80.835938 182.605469 C 81.828125 187.242188 86.394531 191.476562 91.125 191.167969 C 96.046875 190.847656 98.824219 185.511719 100.578125 180.902344 C 104.90625 169.527344 108.898438 158.027344 112.546875 146.417969 C 114.035156 141.683594 115.484375 136.761719 114.878906 131.839844 C 114.046875 125.035156 109.332031 119.195312 103.640625 115.371094 C 98.25 111.753906 86.097656 104.039062 81.667969 110.894531 C 77.332031 117.605469 78.414062 126.378906 78.621094 134.257812 C 79.046875 150.238281 77.609375 167.550781 80.832031 182.609375 Z M 80.835938 182.605469 "/><path style=" stroke:none;fill-rule:nonzero;fill:#301829;fill-opacity:1;" d="M 93.839844 155.53125 C 94.949219 144.121094 95.6875 132.492188 93.320312 121.277344 C 92.753906 118.578125 91.953125 115.8125 90.125 113.746094 C 88.300781 111.683594 85.183594 110.523438 82.691406 111.703125 C 79.8125 113.066406 78.957031 116.6875 78.492188 119.839844 C 77.589844 125.96875 76.878906 132.128906 76.359375 138.300781 C 75.621094 147.125 75.035156 156.101562 74.921875 164.960938 C 74.8125 173.277344 76.296875 181.804688 82.070312 188.144531 C 85.355469 191.753906 90.78125 194.476562 95.023438 192.058594 C 97.234375 190.800781 98.550781 188.4375 99.703125 186.164062 C 104.496094 176.664062 108.207031 166.617188 110.742188 156.28125 C 105.132812 157.128906 99.359375 156.875 93.847656 155.53125 Z M 89.054688 155.996094 C 86.378906 158.914062 81.695312 158.710938 77.941406 157.460938 C 77.40625 151.367188 77.394531 145.226562 77.894531 139.132812 C 78.332031 133.863281 79.144531 128.625 80.339844 123.472656 C 80.917969 120.980469 82.167969 112.910156 86.097656 117.292969 C 88.820312 120.324219 89.375 128.449219 90.019531 132.367188 C 90.847656 137.398438 91.28125 142.5 91.292969 147.597656 C 91.300781 150.570312 91.0625 153.8125 89.054688 155.996094 Z M 89.054688 155.996094 "/><path style=" stroke:none;fill-rule:nonzero;fill:#ffe1d6;fill-opacity:1;" d="M 38.425781 93.835938 C 38.402344 90.449219 39.179688 86.222656 42.980469 85.820312 C 44.789062 85.625 46.574219 86.414062 47.765625 87.785156 C 55.144531 96.304688 59.902344 107.046875 61.292969 118.226562 C 61.605469 117.214844 62.0625 116.257812 62.628906 115.371094 C 63.90625 113.378906 67.011719 114.457031 66.742188 116.808594 C 65.832031 124.578125 61.210938 131.886719 56.113281 138.058594 C 49.457031 146.117188 41.570312 153.566406 38.257812 163.585938 C 37.878906 164.730469 38.125 166.027344 38.972656 166.878906 C 40.464844 168.382812 42.359375 167.394531 43.800781 166.394531 C 59.488281 155.476562 69.171875 138.074219 78.273438 121.265625 C 79.171875 119.605469 80.128906 117.882812 81.917969 117.054688 C 82.984375 116.5625 84.246094 116.566406 85.199219 117.246094 C 87.007812 118.542969 86.515625 121.226562 85.785156 123.277344 C 78.191406 144.628906 62.644531 162.78125 43.53125 174.945312 C 40.066406 177.152344 35.574219 179.183594 32.066406 177.054688 C 28.507812 174.894531 28.292969 169.816406 29.105469 165.730469 C 31.140625 155.414062 36.851562 146.335938 43.019531 138 C 45.8125 134.226562 48.355469 131.851562 46.386719 127.144531 C 44.277344 122.113281 42.125 117.269531 40.769531 111.953125 C 39.265625 106.035156 38.46875 99.9375 38.433594 93.835938 Z M 38.425781 93.835938 "/><path style=" stroke:none;fill-rule:nonzero;fill:#ffffff;fill-opacity:1;" d="M 50.09375 112.058594 C 50.015625 112.058594 49.9375 112.011719 49.898438 111.933594 C 46.140625 104.355469 43.347656 96.320312 41.597656 88.046875 C 41.570312 87.925781 41.652344 87.808594 41.769531 87.785156 C 41.886719 87.761719 42.007812 87.839844 42.03125 87.957031 C 43.773438 96.195312 46.550781 104.199219 50.292969 111.738281 C 50.347656 111.851562 50.300781 111.980469 50.191406 112.035156 C 50.160156 112.054688 50.125 112.058594 50.09375 112.058594 Z M 50.09375 112.058594 "/><path style=" stroke:none;fill-rule:nonzero;fill:#ffffff;fill-opacity:1;" d="M 46.226562 117.902344 C 46.191406 117.902344 46.15625 117.894531 46.121094 117.878906 C 46.015625 117.820312 45.972656 117.6875 46.03125 117.578125 C 48.636719 112.742188 52.796875 108.757812 57.742188 106.363281 C 57.851562 106.3125 57.984375 106.355469 58.035156 106.464844 C 58.089844 106.574219 58.046875 106.707031 57.933594 106.761719 C 53.074219 109.117188 48.984375 113.035156 46.417969 117.789062 C 46.378906 117.863281 46.304688 117.902344 46.226562 117.902344 Z M 46.226562 117.902344 "/><path style=" stroke:none;fill-rule:nonzero;fill:#301829;fill-opacity:1;" d="M 132.40625 70.503906 C 131.902344 72.613281 131.214844 74.734375 129.761719 76.46875 C 128.308594 78.203125 125.964844 79.511719 123.390625 79.449219 C 119.785156 79.359375 116.871094 76.765625 114.828125 74.179688 C 108.089844 65.648438 95.320312 30.101562 113.753906 27.894531 C 133.246094 25.558594 134.667969 61.082031 132.402344 70.503906 Z M 132.40625 70.503906 "/><path style=" stroke:none;fill-rule:nonzero;fill:#e6e7e8;fill-opacity:1;" d="M 150.265625 64.609375 C 150.265625 64.609375 150.226562 64.609375 150.210938 64.597656 C 150.089844 64.566406 150.023438 64.445312 150.054688 64.332031 C 152.089844 56.953125 151.140625 48.875 147.449219 42.167969 C 143.761719 35.464844 137.449219 30.335938 130.125 28.105469 C 130.011719 28.070312 129.945312 27.949219 129.980469 27.835938 C 130.015625 27.71875 130.140625 27.652344 130.253906 27.6875 C 137.683594 29.953125 144.089844 35.15625 147.835938 41.960938 C 151.578125 48.769531 152.542969 56.964844 150.480469 64.453125 C 150.453125 64.550781 150.363281 64.617188 150.265625 64.617188 Z M 150.265625 64.609375 "/><path style=" stroke:none;fill-rule:nonzero;fill:#e6e7e8;fill-opacity:1;" d="M 138.792969 77.792969 C 138.734375 77.792969 138.671875 77.765625 138.628906 77.71875 C 138.546875 77.625 138.558594 77.484375 138.648438 77.40625 C 142.53125 74.078125 145.351562 69.515625 146.582031 64.554688 C 147.820312 59.59375 147.472656 54.246094 145.605469 49.484375 C 145.5625 49.371094 145.617188 49.242188 145.730469 49.199219 C 145.84375 49.15625 145.972656 49.210938 146.015625 49.324219 C 147.914062 54.164062 148.265625 59.609375 147.007812 64.660156 C 145.75 69.710938 142.882812 74.355469 138.9375 77.742188 C 138.894531 77.777344 138.84375 77.792969 138.789062 77.792969 Z M 138.792969 77.792969 "/><path style=" stroke:none;fill-rule:nonzero;fill:#e6e7e8;fill-opacity:1;" d="M 107.507812 37.25 C 107.101562 39.292969 107.207031 41.40625 107.433594 43.476562 C 107.515625 44.253906 107.625 45.050781 107.980469 45.746094 C 108.339844 46.445312 109 47.039062 109.777344 47.105469 C 110.925781 47.199219 111.886719 46.15625 112.238281 45.066406 C 112.789062 43.375 112.355469 41.511719 112.707031 39.765625 C 112.9375 38.597656 113.515625 37.527344 113.867188 36.394531 C 114.511719 34.320312 113.769531 31.460938 111.027344 31.863281 C 108.910156 32.171875 107.855469 35.5 107.507812 37.25 Z M 107.507812 37.25 "/><path style=" stroke:none;fill-rule:nonzero;fill:#e6e7e8;fill-opacity:1;" d="M 109.519531 50.339844 C 108.933594 50.832031 108.730469 51.636719 108.667969 52.398438 C 108.554688 53.785156 108.808594 55.199219 109.398438 56.457031 C 109.601562 56.890625 109.847656 57.3125 110.210938 57.625 C 110.570312 57.9375 111.066406 58.117188 111.535156 58.011719 C 112.015625 57.902344 112.390625 57.507812 112.578125 57.058594 C 112.773438 56.609375 112.804688 56.105469 112.796875 55.613281 C 112.789062 54.359375 111.90625 48.335938 109.515625 50.34375 Z M 109.519531 50.339844 "/><path style=" stroke:none;fill-rule:nonzero;fill:#e6e7e8;fill-opacity:1;" d="M 126.511719 73.460938 C 126.46875 73.460938 126.429688 73.449219 126.390625 73.421875 C 126.289062 73.355469 126.261719 73.214844 126.328125 73.117188 C 129.875 67.859375 130.898438 61.097656 129.054688 55.027344 C 129.019531 54.914062 129.085938 54.789062 129.203125 54.753906 C 129.316406 54.71875 129.441406 54.785156 129.476562 54.902344 C 131.351562 61.09375 130.308594 67.996094 126.6875 73.363281 C 126.644531 73.425781 126.578125 73.460938 126.503906 73.460938 Z M 126.511719 73.460938 "/><path style=" stroke:none;fill-rule:nonzero;fill:#c4ac81;fill-opacity:1;" d="M 99.28125 10.902344 C 96.449219 10.910156 93.867188 13.472656 93.839844 16.308594 C 92.566406 13.824219 91.128906 11.179688 88.632812 9.929688 C 91.816406 8.898438 94.070312 5.53125 93.804688 2.195312 C 94.09375 5.785156 95.453125 9.769531 99.289062 10.902344 Z M 99.28125 10.902344 "/><path style=" stroke:none;fill-rule:nonzero;fill:#ab789c;fill-opacity:1;" d="M 87.730469 18.5625 C 86.441406 18.5625 85.269531 19.730469 85.257812 21.019531 C 84.675781 19.886719 84.023438 18.691406 82.886719 18.121094 C 84.335938 17.65625 85.359375 16.125 85.238281 14.609375 C 85.371094 16.242188 85.988281 18.050781 87.730469 18.566406 Z M 87.730469 18.5625 "/><path style=" stroke:none;fill-rule:nonzero;fill:#c4ac81;fill-opacity:1;" d="M 167.640625 40.554688 C 169.445312 40.558594 171.082031 42.191406 171.101562 43.992188 C 171.914062 42.410156 172.824219 40.730469 174.414062 39.933594 C 172.390625 39.277344 170.957031 37.132812 171.125 35.011719 C 170.945312 37.296875 170.078125 39.832031 167.640625 40.546875 Z M 167.640625 40.554688 "/><path style=" stroke:none;fill-rule:nonzero;fill:#c4ac81;fill-opacity:1;" d="M 127.464844 108.320312 C 129.851562 108.328125 132.023438 110.484375 132.050781 112.875 C 133.128906 110.78125 134.335938 108.554688 136.441406 107.5 C 133.757812 106.632812 131.855469 103.792969 132.082031 100.980469 C 131.839844 104.007812 130.691406 107.363281 127.464844 108.320312 Z M 127.464844 108.320312 "/><path style=" stroke:none;fill-rule:nonzero;fill:#ab789c;fill-opacity:1;" d="M 141.898438 102.496094 C 143.367188 102.5 144.707031 103.828125 144.726562 105.300781 C 145.390625 104.007812 146.132812 102.636719 147.429688 101.988281 C 145.777344 101.453125 144.605469 99.703125 144.742188 97.972656 C 144.59375 99.835938 143.886719 101.90625 141.898438 102.496094 Z M 141.898438 102.496094 "/><path style=" stroke:none;fill-rule:nonzero;fill:#ab789c;fill-opacity:1;" d="M 152.367188 14.890625 C 155.28125 14.898438 157.933594 17.53125 157.964844 20.445312 C 159.273438 17.894531 160.75 15.175781 163.316406 13.890625 C 160.046875 12.832031 157.730469 9.371094 158 5.941406 C 157.703125 9.636719 156.304688 13.730469 152.367188 14.890625 Z M 152.367188 14.890625 "/></g></svg>