<svg xmlns="http://www.w3.org/2000/svg" xmlns:xlink="http://www.w3.org/1999/xlink" width="500" zoomAndPan="magnify" viewBox="0 0 375 374.999991" height="500" preserveAspectRatio="xMidYMid meet" version="1.2"><defs><clipPath id="a39db264d6"><path d="M 187.5 0 C 83.945312 0 0 83.945312 0 187.5 C 0 291.054688 83.945312 375 187.5 375 C 291.054688 375 375 291.054688 375 187.5 C 375 83.945312 291.054688 0 187.5 0 Z M 187.5 0 "/></clipPath><clipPath id="a525b5a975"><path d="M 16 37 L 172 37 L 172 173 L 16 173 Z M 16 37 "/></clipPath><clipPath id="0f1e9b43d7"><path d="M -17.933594 69.863281 L 223.65625 -16.308594 L 265.230469 100.25 L 23.640625 186.421875 Z M -17.933594 69.863281 "/></clipPath><clipPath id="12f52fbb2a"><path d="M -17.933594 69.863281 L 223.65625 -16.308594 L 305.292969 212.570312 L 63.699219 298.738281 Z M -17.933594 69.863281 "/></clipPath><clipPath id="4ca313e035"><path d="M 184 27 L 223 27 L 223 82 L 184 82 Z M 184 27 "/></clipPath><clipPath id="eed3437756"><path d="M -17.933594 69.863281 L 223.65625 -16.308594 L 265.230469 100.25 L 23.640625 186.421875 Z M -17.933594 69.863281 "/></clipPath><clipPath id="713869abe0"><path d="M -17.933594 69.863281 L 223.65625 -16.308594 L 305.292969 212.570312 L 63.699219 298.738281 Z M -17.933594 69.863281 "/></clipPath><clipPath id="e7f7e3c6bd"><path d="M 206 33 L 239 33 L 239 101 L 206 101 Z M 206 33 "/></clipPath><clipPath id="e8da3d8a60"><path d="M -17.933594 69.863281 L 223.65625 -16.308594 L 265.230469 100.25 L 23.640625 186.421875 Z M -17.933594 69.863281 "/></clipPath><clipPath id="d1c8258932"><path d="M -17.933594 69.863281 L 223.65625 -16.308594 L 305.292969 212.570312 L 63.699219 298.738281 Z M -17.933594 69.863281 "/></clipPath><clipPath id="e0a7dbe0b9"><path d="M 88 89 L 266 89 L 266 187 L 88 187 Z M 88 89 "/></clipPath><clipPath id="52744dcae2"><path d="M -17.933594 69.863281 L 223.65625 -16.308594 L 265.230469 100.25 L 23.640625 186.421875 Z M -17.933594 69.863281 "/></clipPath><clipPath id="fe0d48bc78"><path d="M -17.933594 69.863281 L 223.65625 -16.308594 L 305.292969 212.570312 L 63.699219 298.738281 Z M -17.933594 69.863281 "/></clipPath><clipPath id="c8ed610a75"><path d="M 84.789062 139.734375 L 255.070312 79 L 302.96875 213.292969 L 132.6875 274.027344 Z M 84.789062 139.734375 "/></clipPath><clipPath id="e528755ab9"><path d="M 63 74 L 307 74 L 307 197 L 63 197 Z M 63 74 "/></clipPath><clipPath id="e0ffa0c08e"><path d="M 63.296875 156.277344 L 292.589844 74.492188 L 306.785156 114.285156 L 77.492188 196.066406 Z M 63.296875 156.277344 "/></clipPath><clipPath id="760f9e5b58"><path d="M 94 192 L 188 192 L 188 331.746094 L 94 331.746094 Z M 94 192 "/></clipPath><clipPath id="c0a6a020da"><path d="M 203 192 L 297 192 L 297 331.746094 L 203 331.746094 Z M 203 192 "/></clipPath><clipPath id="060107dca6"><path d="M 36 217 L 40 217 L 40 374 L 36 374 Z M 36 217 "/></clipPath><clipPath id="0b78efa1b7"><path d="M 214.382812 81.378906 L 350.488281 190.980469 L 172.207031 412.371094 L 36.101562 302.769531 Z M 214.382812 81.378906 "/></clipPath><clipPath id="0b65c184af"><path d="M 102.230469 499.070312 L -156.546875 290.683594 L 91.820312 -17.746094 L 350.597656 190.640625 Z M 102.230469 499.070312 "/></clipPath><clipPath id="fc9711fa6f"><path d="M -152.035156 288.894531 C -152.367188 294.019531 -127.832031 299.328125 -124.886719 299.964844 C -109.707031 303.25 -96.578125 303.484375 -87.160156 303.015625 C -84.183594 309.679688 -81.207031 316.34375 -78.234375 323.007812 C -80.070312 322.964844 -81.910156 322.925781 -83.75 322.882812 C -83.78125 324.238281 -83.667969 326.234375 -82.949219 328.511719 C -82.09375 331.214844 -80.753906 333.136719 -79.828125 334.265625 C -78.070312 334.179688 -76.308594 334.09375 -74.546875 334.007812 C -69.09375 345.441406 -63.636719 356.871094 -58.183594 368.304688 C -58.140625 368.34375 -58.09375 368.378906 -58.046875 368.417969 C -51.433594 370.84375 -44.449219 371.996094 -37.59375 373.609375 C -43.347656 357.925781 -49.097656 342.246094 -54.847656 326.5625 L -51.410156 326.28125 C -51.683594 325.453125 -51.953125 324.625 -52.226562 323.792969 C -53.550781 323.484375 -54.878906 323.171875 -56.207031 322.863281 C -58.265625 317.253906 -60.320312 311.640625 -62.378906 306.03125 L 10.386719 304.15625 C 13.394531 310.246094 16.402344 316.335938 19.414062 322.425781 C 24.300781 324.058594 29.1875 325.691406 34.074219 327.324219 L 25.035156 301.441406 C 27.292969 301.066406 29.554688 300.691406 31.8125 300.320312 C 31.84375 299.71875 31.871094 299.113281 31.902344 298.511719 C 29.847656 297.796875 27.792969 297.082031 25.738281 296.367188 C 30.234375 289.089844 34.734375 281.808594 39.234375 274.53125 C 34.183594 275.023438 29.136719 275.515625 24.089844 276.007812 C 19.738281 281.621094 15.390625 287.230469 11.039062 292.839844 L -60.8125 282.554688 L -53.203125 268.410156 L -49.800781 268.09375 L -49.128906 266.617188 C -49.601562 266.152344 -50.074219 265.691406 -50.546875 265.230469 C -41.164062 249.390625 -31.78125 233.554688 -22.398438 217.714844 C -25.015625 217.820312 -27.152344 217.984375 -28.613281 218.144531 C -33.359375 218.664062 -38.101562 219.410156 -42.871094 219.683594 C -43.542969 219.722656 -44.214844 219.75 -44.886719 219.769531 C -53.035156 231.007812 -61.1875 242.25 -69.335938 253.492188 C -71.082031 253.210938 -72.832031 252.929688 -74.578125 252.652344 C -75.671875 253.578125 -77.285156 255.1875 -78.574219 257.609375 C -79.609375 259.5625 -80.074219 261.359375 -80.296875 262.636719 C -78.589844 263.234375 -76.886719 263.832031 -75.183594 264.429688 C -78.949219 270.308594 -82.71875 276.1875 -86.484375 282.0625 C -96.847656 280.601562 -111.285156 279.574219 -128.257812 281.746094 C -135.371094 282.65625 -151.769531 284.753906 -152.035156 288.894531 Z M -152.035156 288.894531 "/></clipPath><clipPath id="f6ac5e0be9"><path d="M 40 155 L 328 155 L 328 309 L 40 309 Z M 40 155 "/></clipPath><clipPath id="4d8ea44786"><path d="M 214.382812 81.378906 L 350.488281 190.980469 L 172.207031 412.371094 L 36.101562 302.769531 Z M 214.382812 81.378906 "/></clipPath><clipPath id="a3e6460d7a"><path d="M 102.230469 499.070312 L -156.546875 290.683594 L 91.820312 -17.746094 L 350.597656 190.640625 Z M 102.230469 499.070312 "/></clipPath><clipPath id="0851a6803e"><path d="M 259.363281 273.253906 C 282.78125 260.808594 309.246094 241.996094 321.179688 217.671875 C 326.769531 206.84375 329.976562 193.746094 326.167969 181.789062 C 322.613281 170.117188 313.21875 161.128906 302.519531 155.851562 C 314.988281 164.632812 324.367188 177.929688 322.394531 193.722656 C 321.558594 201.054688 318.523438 207.917969 314.78125 214.222656 C 300.683594 238.554688 269.238281 257.183594 244.121094 268.671875 C 217.988281 280.554688 190.253906 288.789062 162.058594 294.199219 C 136.496094 299.085938 110.574219 301.535156 84.511719 301.808594 C 69.960938 301.976562 55.363281 301.382812 40.847656 300.359375 C 112.285156 316.414062 194.269531 307.253906 259.363281 273.253906 Z M 259.363281 273.253906 "/></clipPath><clipPath id="8b63ac1a94"><path d="M 239.628906 135.578125 L 290.628906 135.578125 L 290.628906 186.578125 L 239.628906 186.578125 Z M 239.628906 135.578125 "/></clipPath><clipPath id="28118d979b"><path d="M 42 222 L 46 222 L 46 375 L 42 375 Z M 42 222 "/></clipPath><clipPath id="f78faf4a26"><path d="M 219.460938 84.972656 L 356.210938 193.773438 L 179.234375 416.207031 L 42.484375 307.40625 Z M 219.460938 84.972656 "/></clipPath><clipPath id="d34ded7626"><path d="M 109.765625 503.3125 L -150.234375 296.453125 L 96.320312 -13.429688 L 356.316406 193.429688 Z M 109.765625 503.3125 "/></clipPath><clipPath id="803f35ca36"><path d="M -145.730469 294.636719 C -146.03125 299.765625 -121.464844 304.925781 -118.515625 305.546875 C -103.316406 308.742188 -90.1875 308.898438 -80.773438 308.375 C -77.757812 315.023438 -74.746094 321.667969 -71.730469 328.3125 C -73.566406 328.285156 -75.40625 328.253906 -77.246094 328.222656 C -77.269531 329.578125 -77.148438 331.574219 -76.414062 333.847656 C -75.542969 336.542969 -74.191406 338.460938 -73.261719 339.582031 C -71.5 339.488281 -69.738281 339.390625 -67.980469 339.296875 C -62.457031 350.695312 -56.9375 362.09375 -51.414062 373.492188 C -51.371094 373.53125 -51.324219 373.566406 -51.277344 373.605469 C -44.652344 375.992188 -37.65625 377.105469 -30.792969 378.675781 C -36.636719 363.027344 -42.480469 347.378906 -48.324219 331.734375 L -44.886719 331.433594 C -45.164062 330.605469 -45.441406 329.777344 -45.71875 328.949219 C -47.046875 328.644531 -48.375 328.34375 -49.703125 328.039062 C -51.792969 322.441406 -53.882812 316.84375 -55.976562 311.246094 L 16.777344 308.941406 C 19.824219 315.015625 22.867188 321.085938 25.910156 327.160156 C 30.808594 328.765625 35.707031 330.367188 40.601562 331.972656 L 31.410156 306.140625 C 33.667969 305.753906 35.925781 305.367188 38.179688 304.980469 C 38.207031 304.378906 38.234375 303.777344 38.261719 303.171875 C 36.203125 302.46875 34.144531 301.765625 32.082031 301.0625 C 36.539062 293.757812 40.996094 286.453125 45.449219 279.148438 C 40.40625 279.671875 35.359375 280.195312 30.316406 280.714844 C 25.996094 286.351562 21.679688 291.988281 17.363281 297.625 L -54.546875 287.761719 L -47.019531 273.570312 L -43.621094 273.234375 L -42.957031 271.753906 C -43.429688 271.292969 -43.90625 270.835938 -44.382812 270.375 C -35.09375 254.480469 -25.804688 238.589844 -16.515625 222.695312 C -19.132812 222.816406 -21.269531 222.996094 -22.722656 223.164062 C -27.46875 223.710938 -32.207031 224.484375 -36.972656 224.785156 C -37.644531 224.828125 -38.316406 224.859375 -38.992188 224.878906 C -47.074219 236.167969 -55.15625 247.457031 -63.238281 258.746094 C -64.988281 258.476562 -66.738281 258.207031 -68.488281 257.9375 C -69.574219 258.871094 -71.179688 260.488281 -72.453125 262.921875 C -73.476562 264.878906 -73.929688 266.679688 -74.144531 267.957031 C -72.4375 268.546875 -70.730469 269.132812 -69.023438 269.71875 C -72.753906 275.621094 -76.488281 281.519531 -80.21875 287.421875 C -90.59375 286.019531 -105.035156 285.078125 -121.992188 287.347656 C -129.101562 288.296875 -145.488281 290.492188 -145.730469 294.636719 Z M -145.730469 294.636719 "/></clipPath><clipPath id="d4335d2912"><path d="M 47 158 L 334 158 L 334 313 L 47 313 Z M 47 158 "/></clipPath><clipPath id="edbf8bf6ee"><path d="M 219.460938 84.972656 L 356.210938 193.773438 L 179.234375 416.207031 L 42.484375 307.40625 Z M 219.460938 84.972656 "/></clipPath><clipPath id="dbb3f2a790"><path d="M 109.765625 503.3125 L -150.234375 296.453125 L 96.320312 -13.429688 L 356.316406 193.429688 Z M 109.765625 503.3125 "/></clipPath><clipPath id="122996b2ed"><path d="M 265.570312 276.578125 C 288.914062 264 315.269531 245.027344 327.058594 220.636719 C 332.585938 209.773438 335.710938 196.65625 331.835938 184.722656 C 328.214844 173.070312 318.765625 164.140625 308.035156 158.925781 C 320.554688 167.632812 330.011719 180.875 328.132812 196.679688 C 327.339844 204.015625 324.34375 210.894531 320.640625 217.222656 C 306.683594 241.636719 275.351562 260.453125 250.300781 272.085938 C 224.234375 284.121094 196.550781 292.519531 168.386719 298.097656 C 142.855469 303.132812 116.945312 305.734375 90.886719 306.160156 C 76.339844 306.414062 61.734375 305.90625 47.214844 304.96875 C 118.75 320.601562 200.675781 310.960938 265.570312 276.578125 Z M 265.570312 276.578125 "/></clipPath><clipPath id="b1da140636"><path d="M 30 213 L 35 213 L 35 369 L 30 369 Z M 30 213 "/></clipPath><clipPath id="514fc9b8f0"><path d="M 210.304688 78.027344 L 345.84375 188.328125 L 166.425781 408.800781 L 30.886719 298.5 Z M 210.304688 78.027344 "/></clipPath><clipPath id="33b4927025"><path d="M 96 495.132812 L -161.699219 285.421875 L 88.253906 -21.726562 L 345.953125 187.988281 Z M 96 495.132812 "/></clipPath><clipPath id="97e5aa1f1c"><path d="M -157.175781 283.65625 C -157.535156 288.777344 -133.027344 294.210938 -130.085938 294.863281 C -114.921875 298.226562 -101.796875 298.527344 -92.375 298.109375 C -89.433594 304.789062 -86.492188 311.464844 -83.550781 318.144531 C -85.390625 318.09375 -87.226562 318.046875 -89.066406 317.996094 C -89.105469 319.347656 -89.003906 321.347656 -88.296875 323.628906 C -87.457031 326.332031 -86.125 328.261719 -85.207031 329.398438 C -83.445312 329.320312 -81.683594 329.242188 -79.921875 329.167969 C -74.527344 340.625 -69.132812 352.085938 -63.734375 363.542969 C -63.691406 363.582031 -63.644531 363.621094 -63.601562 363.660156 C -57 366.117188 -50.019531 367.308594 -43.171875 368.953125 C -48.84375 353.242188 -54.515625 337.535156 -60.1875 321.824219 L -56.746094 321.558594 C -57.015625 320.726562 -57.28125 319.898438 -57.546875 319.066406 C -58.875 318.75 -60.199219 318.433594 -61.523438 318.113281 C -63.554688 312.496094 -65.582031 306.875 -67.609375 301.253906 L 5.164062 299.75 C 8.140625 305.855469 11.117188 311.960938 14.097656 318.066406 C 18.976562 319.726562 23.855469 321.382812 28.730469 323.042969 L 19.828125 297.109375 C 22.085938 296.75 24.347656 296.386719 26.609375 296.023438 C 26.640625 295.421875 26.675781 294.820312 26.710938 294.21875 C 24.65625 293.492188 22.605469 292.765625 20.554688 292.042969 C 25.089844 284.785156 29.628906 277.53125 34.164062 270.277344 C 29.113281 270.742188 24.0625 271.207031 19.011719 271.675781 C 14.632812 277.261719 10.253906 282.851562 5.875 288.441406 L -65.921875 277.785156 L -58.242188 263.675781 L -54.835938 263.378906 L -54.15625 261.90625 C -54.628906 261.441406 -55.097656 260.976562 -55.570312 260.511719 C -46.105469 244.722656 -36.640625 228.933594 -27.175781 213.140625 C -29.792969 213.234375 -31.933594 213.390625 -33.390625 213.539062 C -38.140625 214.035156 -42.886719 214.757812 -47.65625 215.007812 C -48.328125 215.042969 -49.003906 215.0625 -49.675781 215.078125 C -57.882812 226.277344 -66.089844 237.476562 -74.296875 248.675781 C -76.042969 248.386719 -77.789062 248.097656 -79.535156 247.808594 C -80.632812 248.730469 -82.253906 250.332031 -83.554688 252.75 C -84.601562 254.695312 -85.074219 256.492188 -85.300781 257.765625 C -83.601562 258.371094 -81.902344 258.976562 -80.199219 259.582031 C -83.996094 265.441406 -87.792969 271.300781 -91.589844 277.160156 C -101.949219 275.644531 -116.378906 274.542969 -133.363281 276.625 C -140.480469 277.5 -156.890625 279.511719 -157.175781 283.65625 Z M -157.175781 283.65625 "/></clipPath><clipPath id="6a2c9ee3fc"><path d="M 35 152 L 324 152 L 324 305 L 35 305 Z M 35 152 "/></clipPath><clipPath id="671dbe5218"><path d="M 210.304688 78.027344 L 345.84375 188.328125 L 166.425781 408.800781 L 30.886719 298.5 Z M 210.304688 78.027344 "/></clipPath><clipPath id="dfe72c3096"><path d="M 96 495.132812 L -161.699219 285.421875 L 88.253906 -21.726562 L 345.953125 187.988281 Z M 96 495.132812 "/></clipPath><clipPath id="05b3f3ccc3"><path d="M 254.296875 270.128906 C 277.777344 257.808594 304.339844 239.128906 316.398438 214.871094 C 322.042969 204.066406 325.316406 190.984375 321.570312 179.011719 C 318.078125 167.320312 308.726562 158.285156 298.058594 152.953125 C 310.480469 161.796875 319.789062 175.140625 317.738281 190.925781 C 316.863281 198.253906 313.789062 205.101562 310.015625 211.386719 C 295.796875 235.644531 264.253906 254.113281 239.078125 265.46875 C 212.882812 277.21875 185.105469 285.3125 156.882812 290.574219 C 131.300781 295.332031 105.363281 297.648438 79.300781 297.785156 C 64.75 297.878906 50.152344 297.210938 35.644531 296.109375 C 107 312.535156 189.027344 303.796875 254.296875 270.128906 Z M 254.296875 270.128906 "/></clipPath><clipPath id="5d151ca1df"><path d="M 36 217 L 40 217 L 40 374 L 36 374 Z M 36 217 "/></clipPath><clipPath id="a1c69e21fa"><path d="M 214.382812 81.378906 L 350.488281 190.980469 L 172.207031 412.371094 L 36.101562 302.769531 Z M 214.382812 81.378906 "/></clipPath><clipPath id="9377adfef1"><path d="M 102.230469 499.070312 L -156.546875 290.683594 L 91.820312 -17.746094 L 350.597656 190.640625 Z M 102.230469 499.070312 "/></clipPath><clipPath id="94a6510fcd"><path d="M -152.035156 288.894531 C -152.367188 294.019531 -127.832031 299.328125 -124.886719 299.964844 C -109.707031 303.25 -96.578125 303.484375 -87.160156 303.015625 C -84.183594 309.679688 -81.207031 316.34375 -78.234375 323.007812 C -80.070312 322.964844 -81.910156 322.925781 -83.75 322.882812 C -83.78125 324.238281 -83.667969 326.234375 -82.949219 328.511719 C -82.09375 331.214844 -80.753906 333.136719 -79.828125 334.265625 C -78.070312 334.179688 -76.308594 334.09375 -74.546875 334.007812 C -69.09375 345.441406 -63.636719 356.871094 -58.183594 368.304688 C -58.140625 368.34375 -58.09375 368.378906 -58.046875 368.417969 C -51.433594 370.84375 -44.449219 371.996094 -37.59375 373.609375 C -43.347656 357.925781 -49.097656 342.246094 -54.847656 326.5625 L -51.410156 326.28125 C -51.683594 325.453125 -51.953125 324.625 -52.226562 323.792969 C -53.550781 323.484375 -54.878906 323.171875 -56.207031 322.863281 C -58.265625 317.253906 -60.320312 311.640625 -62.378906 306.03125 L 10.386719 304.15625 C 13.394531 310.246094 16.402344 316.335938 19.414062 322.425781 C 24.300781 324.058594 29.1875 325.691406 34.074219 327.324219 L 25.035156 301.441406 C 27.292969 301.066406 29.554688 300.691406 31.8125 300.320312 C 31.84375 299.71875 31.871094 299.113281 31.902344 298.511719 C 29.847656 297.796875 27.792969 297.082031 25.738281 296.367188 C 30.234375 289.089844 34.734375 281.808594 39.234375 274.53125 C 34.183594 275.023438 29.136719 275.515625 24.089844 276.007812 C 19.738281 281.621094 15.390625 287.230469 11.039062 292.839844 L -60.8125 282.554688 L -53.203125 268.410156 L -49.800781 268.09375 L -49.128906 266.617188 C -49.601562 266.152344 -50.074219 265.691406 -50.546875 265.230469 C -41.164062 249.390625 -31.78125 233.554688 -22.398438 217.714844 C -25.015625 217.820312 -27.152344 217.984375 -28.613281 218.144531 C -33.359375 218.664062 -38.101562 219.410156 -42.871094 219.683594 C -43.542969 219.722656 -44.214844 219.75 -44.886719 219.769531 C -53.035156 231.007812 -61.1875 242.25 -69.335938 253.492188 C -71.082031 253.210938 -72.832031 252.929688 -74.578125 252.652344 C -75.671875 253.578125 -77.285156 255.1875 -78.574219 257.609375 C -79.609375 259.5625 -80.074219 261.359375 -80.296875 262.636719 C -78.589844 263.234375 -76.886719 263.832031 -75.183594 264.429688 C -78.949219 270.308594 -82.71875 276.1875 -86.484375 282.0625 C -96.847656 280.601562 -111.285156 279.574219 -128.257812 281.746094 C -135.371094 282.65625 -151.769531 284.753906 -152.035156 288.894531 Z M -152.035156 288.894531 "/></clipPath><clipPath id="de35e98671"><path d="M 40 155 L 328 155 L 328 309 L 40 309 Z M 40 155 "/></clipPath><clipPath id="0d8a860ee3"><path d="M 214.382812 81.378906 L 350.488281 190.980469 L 172.207031 412.371094 L 36.101562 302.769531 Z M 214.382812 81.378906 "/></clipPath><clipPath id="d54e890d08"><path d="M 102.230469 499.070312 L -156.546875 290.683594 L 91.820312 -17.746094 L 350.597656 190.640625 Z M 102.230469 499.070312 "/></clipPath><clipPath id="1ba775c4bc"><path d="M 259.363281 273.253906 C 282.78125 260.808594 309.246094 241.996094 321.179688 217.671875 C 326.769531 206.84375 329.976562 193.746094 326.167969 181.789062 C 322.613281 170.117188 313.21875 161.128906 302.519531 155.851562 C 314.988281 164.632812 324.367188 177.929688 322.394531 193.722656 C 321.558594 201.054688 318.523438 207.917969 314.78125 214.222656 C 300.683594 238.554688 269.238281 257.183594 244.121094 268.671875 C 217.988281 280.554688 190.253906 288.789062 162.058594 294.199219 C 136.496094 299.085938 110.574219 301.535156 84.511719 301.808594 C 69.960938 301.976562 55.363281 301.382812 40.847656 300.359375 C 112.285156 316.414062 194.269531 307.253906 259.363281 273.253906 Z M 259.363281 273.253906 "/></clipPath></defs><g id="8c8b54b196"><g clip-rule="nonzero" clip-path="url(#a39db264d6)"><rect x="0" width="375" y="0" height="374.999991" style="fill:#522947;fill-opacity:1;stroke:none;"/></g><g clip-rule="nonzero" clip-path="url(#a525b5a975)"><g clip-rule="nonzero" clip-path="url(#0f1e9b43d7)"><g clip-rule="nonzero" clip-path="url(#12f52fbb2a)"><path style=" stroke:none;fill-rule:nonzero;fill:#c8baa0;fill-opacity:1;" d="M 163.417969 72.058594 C 163.417969 72.058594 142.457031 50.382812 121.113281 41.300781 C 94.363281 29.921875 70.207031 44.09375 90.332031 69.058594 C 104.898438 87.128906 126.589844 101.003906 156.523438 101.578125 C 156.523438 101.578125 137.644531 122.933594 105.125 125.839844 C 74.058594 128.617188 34.363281 131.472656 16.671875 166.890625 C 16.671875 166.890625 35.585938 148.925781 44.160156 172.550781 C 44.160156 172.550781 55.871094 146.140625 84.324219 142.761719 C 114.285156 139.199219 156.136719 125.183594 171.152344 93.75 C 171.152344 93.75 138.75 99.394531 116.703125 79.664062 C 94.65625 59.933594 97.339844 51.390625 100.199219 49.972656 C 108.1875 46.011719 133.070312 53.3125 163.417969 72.058594 "/></g></g></g><g clip-rule="nonzero" clip-path="url(#4ca313e035)"><g clip-rule="nonzero" clip-path="url(#eed3437756)"><g clip-rule="nonzero" clip-path="url(#713869abe0)"><path style=" stroke:none;fill-rule:nonzero;fill:#c8baa0;fill-opacity:1;" d="M 185.433594 81.007812 C 185.433594 81.007812 181.5 56.476562 189.882812 41.691406 C 198.039062 27.304688 212.414062 23.773438 222.597656 30.019531 C 222.597656 30.019531 187.855469 34.847656 185.433594 81.007812 "/></g></g></g><g clip-rule="nonzero" clip-path="url(#e7f7e3c6bd)"><g clip-rule="nonzero" clip-path="url(#e8da3d8a60)"><g clip-rule="nonzero" clip-path="url(#d1c8258932)"><path style=" stroke:none;fill-rule:nonzero;fill:#c8baa0;fill-opacity:1;" d="M 211.777344 38.863281 C 211.777344 38.863281 221.917969 31.683594 228.617188 40.914062 C 235.316406 50.140625 227.972656 80.796875 206.671875 100.996094 C 206.671875 100.996094 229.007812 88.640625 236.667969 64.066406 C 243.953125 40.6875 230.148438 24.359375 211.777344 38.863281 "/></g></g></g><g clip-rule="nonzero" clip-path="url(#e0a7dbe0b9)"><g clip-rule="nonzero" clip-path="url(#52744dcae2)"><g clip-rule="nonzero" clip-path="url(#fe0d48bc78)"><g clip-rule="nonzero" clip-path="url(#c8ed610a75)"><path style=" stroke:none;fill-rule:nonzero;fill:#522947;fill-opacity:1;" d="M 221.175781 103.113281 C 225.8125 96.839844 225.320312 89.65625 225.320312 89.65625 C 222.082031 95.144531 216.507812 102.03125 207.125 107.730469 C 188.21875 119.222656 156.09375 136.652344 163.527344 179.964844 C 163.527344 179.964844 156.320312 159.835938 139.675781 171.765625 C 139.675781 171.765625 143.347656 143.554688 159.964844 124.945312 L 88.640625 150.386719 L 107.046875 201.992188 L 122.617188 196.4375 L 148.304688 268.460938 L 218.5625 243.398438 L 192.875 171.378906 L 277.28125 141.273438 L 258.875 89.667969 L 221.175781 103.113281 "/></g></g></g></g><g clip-rule="nonzero" clip-path="url(#e528755ab9)"><g clip-rule="nonzero" clip-path="url(#e0ffa0c08e)"><path style=" stroke:none;fill-rule:nonzero;fill:#c8baa0;fill-opacity:1;" d="M 63.296875 156.277344 L 292.566406 74.503906 L 306.757812 114.292969 L 77.492188 196.066406 Z M 63.296875 156.277344 "/></g></g><g clip-rule="nonzero" clip-path="url(#760f9e5b58)"><path style=" stroke:none;fill-rule:nonzero;fill:#c8baa0;fill-opacity:1;" d="M 101.953125 331.738281 L 187.613281 331.738281 L 187.613281 192.691406 L 94.523438 192.691406 L 101.953125 331.738281 "/></g><g clip-rule="nonzero" clip-path="url(#c0a6a020da)"><path style=" stroke:none;fill-rule:nonzero;fill:#c8baa0;fill-opacity:1;" d="M 203.78125 331.738281 L 289.441406 331.738281 L 296.871094 192.691406 L 203.78125 192.691406 L 203.78125 331.738281 "/></g><g clip-rule="nonzero" clip-path="url(#060107dca6)"><g clip-rule="nonzero" clip-path="url(#0b78efa1b7)"><g clip-rule="nonzero" clip-path="url(#0b65c184af)"><g clip-rule="nonzero" clip-path="url(#fc9711fa6f)"><path style=" stroke:none;fill-rule:nonzero;fill:#c8baa0;fill-opacity:1;" d="M 38 375.136719 L 115.386719 279.039062 L 37.332031 216.183594 L -40.050781 312.285156 Z M 38 375.136719 "/></g></g></g></g><g clip-rule="nonzero" clip-path="url(#f6ac5e0be9)"><g clip-rule="nonzero" clip-path="url(#4d8ea44786)"><g clip-rule="nonzero" clip-path="url(#a3e6460d7a)"><g clip-rule="nonzero" clip-path="url(#0851a6803e)"><path style=" stroke:none;fill-rule:nonzero;fill:#c8baa0;fill-opacity:1;" d="M 216.242188 457.652344 L 408.410156 219.011719 L 154.582031 14.613281 L -37.585938 253.253906 Z M 216.242188 457.652344 "/></g></g></g></g><g clip-rule="nonzero" clip-path="url(#8b63ac1a94)"><path style=" stroke:none;fill-rule:nonzero;fill:#c8baa0;fill-opacity:1;" d="M 290.625 161.078125 C 271.5 164.597656 268.648438 167.453125 265.125 186.574219 C 261.605469 167.453125 258.753906 164.597656 239.628906 161.078125 C 258.753906 157.558594 261.605469 154.703125 265.125 135.578125 C 268.648438 154.703125 271.5 157.558594 290.625 161.078125 Z M 290.625 161.078125 "/></g><g clip-rule="nonzero" clip-path="url(#28118d979b)"><g clip-rule="nonzero" clip-path="url(#f78faf4a26)"><g clip-rule="nonzero" clip-path="url(#d34ded7626)"><g clip-rule="nonzero" clip-path="url(#803f35ca36)"><path style=" stroke:none;fill-rule:nonzero;fill:#522947;fill-opacity:1;" d="M 44.300781 376.445312 L 119.65625 281.734375 L 43.632812 221.25 L -31.71875 315.960938 Z M 44.300781 376.445312 "/></g></g></g></g><g clip-rule="nonzero" clip-path="url(#d4335d2912)"><g clip-rule="nonzero" clip-path="url(#edbf8bf6ee)"><g clip-rule="nonzero" clip-path="url(#dbb3f2a790)"><g clip-rule="nonzero" clip-path="url(#122996b2ed)"><path style=" stroke:none;fill-rule:nonzero;fill:#522947;fill-opacity:1;" d="M 223.878906 461.160156 L 414.484375 221.597656 L 159.050781 18.367188 L -31.554688 257.929688 Z M 223.878906 461.160156 "/></g></g></g></g><g clip-rule="nonzero" clip-path="url(#b1da140636)"><g clip-rule="nonzero" clip-path="url(#514fc9b8f0)"><g clip-rule="nonzero" clip-path="url(#33b4927025)"><g clip-rule="nonzero" clip-path="url(#97e5aa1f1c)"><path style=" stroke:none;fill-rule:nonzero;fill:#522947;fill-opacity:1;" d="M 32.859375 370.558594 L 110.445312 275.21875 L 32.191406 211.539062 L -45.394531 306.878906 Z M 32.859375 370.558594 "/></g></g></g></g><g clip-rule="nonzero" clip-path="url(#6a2c9ee3fc)"><g clip-rule="nonzero" clip-path="url(#671dbe5218)"><g clip-rule="nonzero" clip-path="url(#dfe72c3096)"><g clip-rule="nonzero" clip-path="url(#05b3f3ccc3)"><path style=" stroke:none;fill-rule:nonzero;fill:#522947;fill-opacity:1;" d="M 209.910156 454.347656 L 403.441406 216.53125 L 151.050781 11.136719 L -42.480469 248.957031 Z M 209.910156 454.347656 "/></g></g></g></g><g clip-rule="nonzero" clip-path="url(#5d151ca1df)"><g clip-rule="nonzero" clip-path="url(#a1c69e21fa)"><g clip-rule="nonzero" clip-path="url(#9377adfef1)"><g clip-rule="nonzero" clip-path="url(#94a6510fcd)"><path style=" stroke:none;fill-rule:nonzero;fill:#c8baa0;fill-opacity:1;" d="M 38 375.136719 L 115.386719 279.039062 L 37.332031 216.183594 L -40.050781 312.285156 Z M 38 375.136719 "/></g></g></g></g><g clip-rule="nonzero" clip-path="url(#de35e98671)"><g clip-rule="nonzero" clip-path="url(#0d8a860ee3)"><g clip-rule="nonzero" clip-path="url(#d54e890d08)"><g clip-rule="nonzero" clip-path="url(#1ba775c4bc)"><path style=" stroke:none;fill-rule:nonzero;fill:#c8baa0;fill-opacity:1;" d="M 216.242188 457.652344 L 408.410156 219.011719 L 154.582031 14.613281 L -37.585938 253.253906 Z M 216.242188 457.652344 "/></g></g></g></g></g></svg>