<svg xmlns="http://www.w3.org/2000/svg" xmlns:xlink="http://www.w3.org/1999/xlink" width="500" zoomAndPan="magnify" viewBox="0 0 375 374.999991" height="500" preserveAspectRatio="xMidYMid meet" version="1.2"><defs><clipPath id="e753fc6840"><path d="M 0.613281 0 L 374.667969 0 L 374.667969 375 L 0.613281 375 Z M 0.613281 0 "/></clipPath><clipPath id="f39f1ce5c4"><path d="M 17.863281 0 L 357.417969 0 C 361.992188 0 366.382812 1.816406 369.617188 5.050781 C 372.851562 8.289062 374.667969 12.675781 374.667969 17.25 L 374.667969 357.75 C 374.667969 362.324219 372.851562 366.710938 369.617188 369.949219 C 366.382812 373.183594 361.992188 375 357.417969 375 L 17.863281 375 C 13.289062 375 8.902344 373.183594 5.667969 369.949219 C 2.433594 366.710938 0.613281 362.324219 0.613281 357.75 L 0.613281 17.25 C 0.613281 12.675781 2.433594 8.289062 5.667969 5.050781 C 8.902344 1.816406 13.289062 0 17.863281 0 Z M 17.863281 0 "/></clipPath><clipPath id="35e1e44714"><path d="M 21 29 L 184 29 L 184 172 L 21 172 Z M 21 29 "/></clipPath><clipPath id="425a68e399"><path d="M -15.0625 63.558594 L 239.300781 -27.164062 L 283.4375 96.578125 L 29.074219 187.304688 Z M -15.0625 63.558594 "/></clipPath><clipPath id="75236b3cbd"><path d="M -15.0625 63.558594 L 239.300781 -27.164062 L 325.121094 213.449219 L 70.757812 304.175781 Z M -15.0625 63.558594 "/></clipPath><clipPath id="2df247175f"><path d="M 197 18 L 238 18 L 238 76 L 197 76 Z M 197 18 "/></clipPath><clipPath id="d1df2167a0"><path d="M -15.0625 63.558594 L 239.300781 -27.164062 L 283.4375 96.578125 L 29.074219 187.304688 Z M -15.0625 63.558594 "/></clipPath><clipPath id="8bdd76ef44"><path d="M -15.0625 63.558594 L 239.300781 -27.164062 L 325.121094 213.449219 L 70.757812 304.175781 Z M -15.0625 63.558594 "/></clipPath><clipPath id="34536e4075"><path d="M 221 25 L 255 25 L 255 97 L 221 97 Z M 221 25 "/></clipPath><clipPath id="239c2a892f"><path d="M -15.0625 63.558594 L 239.300781 -27.164062 L 283.4375 96.578125 L 29.074219 187.304688 Z M -15.0625 63.558594 "/></clipPath><clipPath id="164a765f62"><path d="M -15.0625 63.558594 L 239.300781 -27.164062 L 325.121094 213.449219 L 70.757812 304.175781 Z M -15.0625 63.558594 "/></clipPath><clipPath id="39bc699715"><path d="M 96 84 L 284 84 L 284 188 L 96 188 Z M 96 84 "/></clipPath><clipPath id="3f7e8b8b1a"><path d="M -15.0625 63.558594 L 239.300781 -27.164062 L 283.4375 96.578125 L 29.074219 187.304688 Z M -15.0625 63.558594 "/></clipPath><clipPath id="c712c3f0c7"><path d="M -15.0625 63.558594 L 239.300781 -27.164062 L 325.121094 213.449219 L 70.757812 304.175781 Z M -15.0625 63.558594 "/></clipPath><clipPath id="b3d55e38b7"><path d="M 92.929688 137.011719 L 271.953125 73.160156 L 322.308594 214.347656 L 143.289062 278.199219 Z M 92.929688 137.011719 "/></clipPath><clipPath id="047059ce7f"><path d="M 70 68 L 329 68 L 329 198 L 70 198 Z M 70 68 "/></clipPath><clipPath id="4eb32d2710"><path d="M 70.894531 155 L 313.519531 68.460938 L 328.535156 110.566406 L 85.910156 197.105469 Z M 70.894531 155 "/></clipPath><clipPath id="6c15230e9c"><path d="M 103 193 L 203 193 L 203 339.996094 L 103 339.996094 Z M 103 193 "/></clipPath><clipPath id="0aec7c3f54"><path d="M 219 193 L 319 193 L 319 339.996094 L 219 339.996094 Z M 219 193 "/></clipPath><clipPath id="f5567c570d"><path d="M 43 221 L 46 221 L 46 375 L 43 375 Z M 43 221 "/></clipPath><clipPath id="6eac0d2534"><path d="M 230.734375 75.753906 L 375.699219 192.488281 L 188.007812 425.566406 L 43.046875 308.832031 Z M 230.734375 75.753906 "/></clipPath><clipPath id="883f2c0e8a"><path d="M 112.074219 517.679688 L -160.796875 297.945312 L 102.425781 -28.933594 L 375.300781 190.800781 Z M 112.074219 517.679688 "/></clipPath><clipPath id="56680825a6"><path d="M -156.042969 296.0625 C -156.390625 301.46875 -130.519531 307.0625 -127.414062 307.734375 C -111.40625 311.199219 -97.5625 311.445312 -87.632812 310.953125 C -84.496094 317.976562 -81.359375 325.003906 -78.21875 332.03125 C -80.160156 331.988281 -82.097656 331.945312 -84.035156 331.902344 C -84.070312 333.332031 -83.953125 335.4375 -83.191406 337.839844 C -82.292969 340.683594 -80.878906 342.714844 -79.902344 343.90625 C -78.046875 343.816406 -76.191406 343.722656 -74.332031 343.632812 C -68.582031 355.6875 -62.828125 367.742188 -57.078125 379.796875 C -57.03125 379.835938 -56.984375 379.875 -56.933594 379.917969 C -49.960938 382.472656 -42.59375 383.691406 -35.367188 385.390625 C -41.433594 368.851562 -47.496094 352.316406 -53.5625 335.78125 L -49.9375 335.484375 C -50.222656 334.609375 -50.507812 333.734375 -50.796875 332.863281 C -52.195312 332.535156 -53.59375 332.207031 -54.992188 331.878906 C -57.164062 325.964844 -59.332031 320.046875 -61.503906 314.132812 L 15.226562 312.15625 C 18.398438 318.574219 21.574219 324.996094 24.746094 331.417969 C 29.898438 333.140625 35.050781 334.863281 40.207031 336.585938 L 30.675781 309.289062 C 33.054688 308.894531 35.4375 308.503906 37.820312 308.109375 C 37.851562 307.472656 37.882812 306.839844 37.917969 306.203125 C 35.75 305.449219 33.582031 304.695312 31.414062 303.941406 C 36.160156 296.265625 40.902344 288.589844 45.644531 280.917969 C 40.320312 281.4375 35 281.953125 29.675781 282.472656 C 25.089844 288.390625 20.503906 294.308594 15.917969 300.222656 L -59.851562 289.375 L -51.824219 274.460938 L -48.238281 274.128906 L -47.527344 272.570312 C -48.027344 272.082031 -48.527344 271.59375 -49.027344 271.109375 C -39.132812 254.40625 -29.238281 237.707031 -19.34375 221.003906 C -22.105469 221.117188 -24.359375 221.289062 -25.894531 221.457031 C -30.898438 222.007812 -35.898438 222.792969 -40.929688 223.082031 C -41.636719 223.121094 -42.347656 223.148438 -43.058594 223.167969 C -51.652344 235.023438 -60.242188 246.875 -68.835938 258.730469 C -70.679688 258.433594 -72.523438 258.140625 -74.367188 257.84375 C -75.515625 258.820312 -77.21875 260.515625 -78.578125 263.074219 C -79.671875 265.128906 -80.160156 267.027344 -80.394531 268.375 C -78.597656 269.003906 -76.800781 269.632812 -75.003906 270.261719 C -78.976562 276.460938 -82.949219 282.660156 -86.917969 288.859375 C -97.847656 287.316406 -113.070312 286.234375 -130.96875 288.523438 C -138.46875 289.480469 -155.761719 291.691406 -156.042969 296.0625 Z M -156.042969 296.0625 "/></clipPath><clipPath id="0c8214bef2"><path d="M 47 155 L 350 155 L 350 317 L 47 317 Z M 47 155 "/></clipPath><clipPath id="e9f2e51d01"><path d="M 230.734375 75.753906 L 375.699219 192.488281 L 188.007812 425.566406 L 43.046875 308.832031 Z M 230.734375 75.753906 "/></clipPath><clipPath id="76ddaa1660"><path d="M 112.074219 517.679688 L -160.796875 297.945312 L 102.425781 -28.933594 L 375.300781 190.800781 Z M 112.074219 517.679688 "/></clipPath><clipPath id="9038ef41a2"><path d="M 277.769531 279.566406 C 302.457031 266.449219 330.367188 246.605469 342.949219 220.960938 C 348.84375 209.539062 352.222656 195.726562 348.207031 183.121094 C 344.464844 170.8125 334.554688 161.339844 323.273438 155.773438 C 336.421875 165.027344 346.308594 179.050781 344.230469 195.707031 C 343.351562 203.4375 340.148438 210.671875 336.203125 217.324219 C 321.335938 242.980469 288.179688 262.625 261.691406 274.734375 C 234.136719 287.265625 204.890625 295.953125 175.160156 301.65625 C 148.207031 306.808594 120.871094 309.390625 93.386719 309.675781 C 78.046875 309.855469 62.652344 309.230469 47.347656 308.152344 C 122.679688 325.082031 209.125 315.421875 277.765625 279.566406 Z M 277.769531 279.566406 "/></clipPath><clipPath id="09bebded7e"><path d="M 257.46875 133.105469 L 312 133.105469 L 312 187.847656 L 257.46875 187.847656 Z M 257.46875 133.105469 "/></clipPath></defs><g id="0178530f29"><g clip-rule="nonzero" clip-path="url(#e753fc6840)"><g clip-rule="nonzero" clip-path="url(#f39f1ce5c4)"><path style=" stroke:none;fill-rule:nonzero;fill:#ffffff;fill-opacity:1;" d="M 0.613281 0 L 374.667969 0 L 374.667969 375.515625 L 0.613281 375.515625 Z M 0.613281 0 "/></g></g><g clip-rule="nonzero" clip-path="url(#35e1e44714)"><g clip-rule="nonzero" clip-path="url(#425a68e399)"><g clip-rule="nonzero" clip-path="url(#75236b3cbd)"><path style=" stroke:none;fill-rule:nonzero;fill:#c8baa0;fill-opacity:1;" d="M 175.59375 65.867188 C 175.59375 65.867188 153.554688 43.074219 131.117188 33.527344 C 102.996094 21.5625 77.601562 36.464844 98.757812 62.710938 C 114.070312 81.707031 136.875 96.292969 168.347656 96.898438 C 168.347656 96.898438 148.5 119.351562 114.308594 122.40625 C 81.652344 125.324219 39.914062 128.328125 21.316406 165.5625 C 21.316406 165.5625 41.199219 146.675781 50.21875 171.511719 C 50.21875 171.511719 62.527344 143.75 92.441406 140.195312 C 123.941406 136.449219 167.9375 121.714844 183.726562 88.667969 C 183.726562 88.667969 149.660156 94.601562 126.484375 73.859375 C 103.304688 53.117188 106.125 44.136719 109.132812 42.644531 C 117.53125 38.480469 143.691406 46.15625 175.59375 65.867188 "/></g></g></g><g clip-rule="nonzero" clip-path="url(#2df247175f)"><g clip-rule="nonzero" clip-path="url(#d1df2167a0)"><g clip-rule="nonzero" clip-path="url(#8bdd76ef44)"><path style=" stroke:none;fill-rule:nonzero;fill:#c8baa0;fill-opacity:1;" d="M 198.742188 75.273438 C 198.742188 75.273438 194.605469 49.484375 203.417969 33.9375 C 211.992188 18.816406 227.105469 15.101562 237.808594 21.667969 C 237.808594 21.667969 201.285156 26.742188 198.742188 75.273438 "/></g></g></g><g clip-rule="nonzero" clip-path="url(#34536e4075)"><g clip-rule="nonzero" clip-path="url(#239c2a892f)"><g clip-rule="nonzero" clip-path="url(#164a765f62)"><path style=" stroke:none;fill-rule:nonzero;fill:#c8baa0;fill-opacity:1;" d="M 226.433594 30.964844 C 226.433594 30.964844 237.09375 23.417969 244.136719 33.121094 C 251.183594 42.824219 243.460938 75.050781 221.070312 96.285156 C 221.070312 96.285156 244.550781 83.296875 252.605469 57.460938 C 260.261719 32.882812 245.75 15.71875 226.433594 30.964844 "/></g></g></g><g clip-rule="nonzero" clip-path="url(#39bc699715)"><g clip-rule="nonzero" clip-path="url(#3f7e8b8b1a)"><g clip-rule="nonzero" clip-path="url(#c712c3f0c7)"><g clip-rule="nonzero" clip-path="url(#b3d55e38b7)"><path style=" stroke:none;fill-rule:nonzero;fill:#522947;fill-opacity:1;" d="M 236.316406 98.511719 C 241.191406 91.917969 240.675781 84.363281 240.675781 84.363281 C 237.273438 90.136719 231.410156 97.375 221.546875 103.367188 C 201.671875 115.449219 167.894531 133.773438 175.710938 179.308594 C 175.710938 179.308594 168.132812 158.144531 150.632812 170.6875 C 150.632812 170.6875 154.492188 141.03125 171.964844 121.464844 L 96.976562 148.210938 L 116.328125 202.464844 L 132.699219 196.628906 L 159.703125 272.34375 L 233.566406 246 L 206.5625 170.28125 L 295.304688 138.628906 L 275.953125 84.375 L 236.316406 98.511719 "/></g></g></g></g><g clip-rule="nonzero" clip-path="url(#047059ce7f)"><g clip-rule="nonzero" clip-path="url(#4eb32d2710)"><path style=" stroke:none;fill-rule:nonzero;fill:#522947;fill-opacity:1;" d="M 70.894531 155 L 313.492188 68.472656 L 328.507812 110.578125 L 85.910156 197.105469 Z M 70.894531 155 "/></g></g><g clip-rule="nonzero" clip-path="url(#6c15230e9c)"><path style=" stroke:none;fill-rule:nonzero;fill:#522947;fill-opacity:1;" d="M 111.859375 340.910156 L 202.570312 340.910156 L 202.570312 193.664062 L 103.992188 193.664062 L 111.859375 340.910156 "/></g><g clip-rule="nonzero" clip-path="url(#0aec7c3f54)"><path style=" stroke:none;fill-rule:nonzero;fill:#522947;fill-opacity:1;" d="M 219.695312 340.910156 L 310.40625 340.910156 L 318.273438 193.664062 L 219.695312 193.664062 L 219.695312 340.910156 "/></g><g clip-rule="nonzero" clip-path="url(#f5567c570d)"><g clip-rule="nonzero" clip-path="url(#6eac0d2534)"><g clip-rule="nonzero" clip-path="url(#883f2c0e8a)"><g clip-rule="nonzero" clip-path="url(#56680825a6)"><path style=" stroke:none;fill-rule:nonzero;fill:#c8baa0;fill-opacity:1;" d="M 44.621094 376.269531 L 120.871094 281.582031 L 44.066406 219.734375 L -32.179688 314.421875 Z M 44.621094 376.269531 "/></g></g></g></g><g clip-rule="nonzero" clip-path="url(#0c8214bef2)"><g clip-rule="nonzero" clip-path="url(#e9f2e51d01)"><g clip-rule="nonzero" clip-path="url(#76ddaa1660)"><g clip-rule="nonzero" clip-path="url(#9038ef41a2)"><path style=" stroke:none;fill-rule:nonzero;fill:#c8baa0;fill-opacity:1;" d="M 232.292969 474.011719 L 434.929688 222.371094 L 167.277344 6.839844 L -35.359375 258.480469 Z M 232.292969 474.011719 "/></g></g></g></g><g clip-rule="nonzero" clip-path="url(#09bebded7e)"><path style=" stroke:none;fill-rule:nonzero;fill:#c8baa0;fill-opacity:1;" d="M 311.464844 160.101562 C 291.214844 163.832031 288.191406 166.851562 284.464844 187.101562 C 280.738281 166.851562 277.714844 163.832031 257.46875 160.101562 C 277.714844 156.375 280.738281 153.351562 284.464844 133.105469 C 288.191406 153.351562 291.214844 156.375 311.464844 160.101562 Z M 311.464844 160.101562 "/></g></g></svg>