<svg xmlns="http://www.w3.org/2000/svg" xmlns:xlink="http://www.w3.org/1999/xlink" width="500" zoomAndPan="magnify" viewBox="0 0 375 374.999991" height="500" preserveAspectRatio="xMidYMid meet" version="1.2"><defs><clipPath id="b1f49429c3"><path d="M 12.226562 14.507812 L 362.773438 14.507812 L 362.773438 365.054688 L 12.226562 365.054688 Z M 12.226562 14.507812 "/></clipPath><clipPath id="bfd32c36df"><path d="M 187.5 14.507812 C 90.699219 14.507812 12.226562 92.980469 12.226562 189.78125 C 12.226562 286.582031 90.699219 365.054688 187.5 365.054688 C 284.300781 365.054688 362.773438 286.582031 362.773438 189.78125 C 362.773438 92.980469 284.300781 14.507812 187.5 14.507812 Z M 187.5 14.507812 "/></clipPath><clipPath id="e7606d96e2"><path d="M 23 43 L 172 43 L 172 174 L 23 174 Z M 23 43 "/></clipPath><clipPath id="bd073937d9"><path d="M -9.773438 74.992188 L 222.199219 -7.746094 L 262.449219 105.105469 L 30.476562 187.847656 Z M -9.773438 74.992188 "/></clipPath><clipPath id="634d2db07d"><path d="M -9.773438 74.992188 L 222.199219 -7.746094 L 300.464844 211.691406 L 68.492188 294.429688 Z M -9.773438 74.992188 "/></clipPath><clipPath id="5bb8da2fe0"><path d="M 184 33 L 221 33 L 221 86 L 184 86 Z M 184 33 "/></clipPath><clipPath id="f149800bd2"><path d="M -9.773438 74.992188 L 222.199219 -7.746094 L 262.449219 105.105469 L 30.476562 187.847656 Z M -9.773438 74.992188 "/></clipPath><clipPath id="f6cebb8fff"><path d="M -9.773438 74.992188 L 222.199219 -7.746094 L 300.464844 211.691406 L 68.492188 294.429688 Z M -9.773438 74.992188 "/></clipPath><clipPath id="0eb67bc21e"><path d="M 205 40 L 237 40 L 237 105 L 205 105 Z M 205 40 "/></clipPath><clipPath id="f5b45b0b59"><path d="M -9.773438 74.992188 L 222.199219 -7.746094 L 262.449219 105.105469 L 30.476562 187.847656 Z M -9.773438 74.992188 "/></clipPath><clipPath id="a80a448dde"><path d="M -9.773438 74.992188 L 222.199219 -7.746094 L 300.464844 211.691406 L 68.492188 294.429688 Z M -9.773438 74.992188 "/></clipPath><clipPath id="d4febfd9fd"><path d="M 92 93 L 263 93 L 263 188 L 92 188 Z M 92 93 "/></clipPath><clipPath id="e01a26cc41"><path d="M -9.773438 74.992188 L 222.199219 -7.746094 L 262.449219 105.105469 L 30.476562 187.847656 Z M -9.773438 74.992188 "/></clipPath><clipPath id="c3af183203"><path d="M -9.773438 74.992188 L 222.199219 -7.746094 L 300.464844 211.691406 L 68.492188 294.429688 Z M -9.773438 74.992188 "/></clipPath><clipPath id="1653bfdb81"><path d="M 88.710938 141.980469 L 251.976562 83.75 L 297.902344 212.507812 L 134.636719 270.742188 Z M 88.710938 141.980469 "/></clipPath><clipPath id="2fd007018c"><path d="M 68 79 L 304 79 L 304 197 L 68 197 Z M 68 79 "/></clipPath><clipPath id="82de54a357"><path d="M 68.617188 158.386719 L 289.882812 79.464844 L 303.578125 117.863281 L 82.3125 196.785156 Z M 68.617188 158.386719 "/></clipPath><clipPath id="b8dc1893b8"><path d="M 98 193 L 189 193 L 189 327.097656 L 98 327.097656 Z M 98 193 "/></clipPath><clipPath id="e46a242f27"><path d="M 204 193 L 295 193 L 295 327.097656 L 204 327.097656 Z M 204 193 "/></clipPath><clipPath id="3f47db3cad"><path d="M 43 218 L 46 218 L 46 369 L 43 369 Z M 43 218 "/></clipPath><clipPath id="e02a2e9e52"><path d="M 214.390625 86.113281 L 346.59375 192.574219 L 175.421875 405.136719 L 43.21875 298.675781 Z M 214.390625 86.113281 "/></clipPath><clipPath id="b61f95b44b"><path d="M 106.171875 489.140625 L -142.679688 288.746094 L 97.375 -9.359375 L 346.230469 191.035156 Z M 106.171875 489.140625 "/></clipPath><clipPath id="4befa19b59"><path d="M -138.34375 287.03125 C -138.660156 291.960938 -115.066406 297.0625 -112.234375 297.675781 C -97.640625 300.832031 -85.011719 301.058594 -75.957031 300.609375 C -73.09375 307.019531 -70.234375 313.425781 -67.371094 319.835938 C -69.140625 319.796875 -70.90625 319.753906 -72.675781 319.714844 C -72.707031 321.019531 -72.601562 322.9375 -71.90625 325.128906 C -71.085938 327.726562 -69.796875 329.578125 -68.90625 330.664062 C -67.214844 330.582031 -65.523438 330.496094 -63.828125 330.414062 C -58.582031 341.40625 -53.335938 352.402344 -48.089844 363.394531 C -48.046875 363.429688 -48.003906 363.46875 -47.960938 363.503906 C -41.601562 365.835938 -34.882812 366.945312 -28.292969 368.496094 C -33.824219 353.414062 -39.351562 338.335938 -44.882812 323.253906 L -41.578125 322.984375 C -41.839844 322.1875 -42.101562 321.386719 -42.363281 320.589844 C -43.636719 320.292969 -44.914062 319.996094 -46.191406 319.695312 C -48.167969 314.300781 -50.148438 308.90625 -52.125 303.511719 L 17.847656 301.707031 C 20.742188 307.5625 23.636719 313.417969 26.53125 319.277344 C 31.230469 320.847656 35.929688 322.417969 40.628906 323.988281 L 31.9375 299.09375 C 34.109375 298.734375 36.28125 298.375 38.453125 298.015625 C 38.484375 297.4375 38.511719 296.859375 38.542969 296.28125 C 36.566406 295.589844 34.589844 294.902344 32.613281 294.214844 C 36.9375 287.214844 41.265625 280.21875 45.589844 273.21875 C 40.734375 273.691406 35.878906 274.164062 31.027344 274.640625 C 26.84375 280.035156 22.660156 285.429688 18.476562 290.824219 L -50.621094 280.933594 L -43.300781 267.328125 L -40.03125 267.027344 L -39.382812 265.605469 C -39.839844 265.160156 -40.292969 264.714844 -40.75 264.273438 C -31.726562 249.042969 -22.703125 233.808594 -13.679688 218.578125 C -16.195312 218.683594 -18.25 218.839844 -19.652344 218.992188 C -24.21875 219.492188 -28.777344 220.210938 -33.363281 220.472656 C -34.011719 220.511719 -34.65625 220.535156 -35.304688 220.554688 C -43.140625 231.363281 -50.980469 242.171875 -58.816406 252.984375 C -60.496094 252.714844 -62.175781 252.445312 -63.859375 252.175781 C -64.90625 253.066406 -66.460938 254.613281 -67.699219 256.945312 C -68.695312 258.820312 -69.140625 260.550781 -69.355469 261.78125 C -67.714844 262.355469 -66.078125 262.929688 -64.4375 263.503906 C -68.0625 269.15625 -71.683594 274.808594 -75.304688 280.460938 C -85.273438 279.054688 -99.15625 278.066406 -115.476562 280.15625 C -122.316406 281.03125 -138.089844 283.046875 -138.34375 287.03125 Z M -138.34375 287.03125 "/></clipPath><clipPath id="f66954cd40"><path d="M 47 159 L 324 159 L 324 306 L 47 306 Z M 47 159 "/></clipPath><clipPath id="374886db56"><path d="M 214.390625 86.113281 L 346.59375 192.574219 L 175.421875 405.136719 L 43.21875 298.675781 Z M 214.390625 86.113281 "/></clipPath><clipPath id="fbe4e6820b"><path d="M 106.171875 489.140625 L -142.679688 288.746094 L 97.375 -9.359375 L 346.230469 191.035156 Z M 106.171875 489.140625 "/></clipPath><clipPath id="0927df7a5a"><path d="M 257.28125 271.988281 C 279.796875 260.023438 305.25 241.929688 316.722656 218.539062 C 322.101562 208.125 325.183594 195.527344 321.519531 184.03125 C 318.105469 172.804688 309.070312 164.164062 298.78125 159.089844 C 310.773438 167.53125 319.789062 180.320312 317.894531 195.507812 C 317.089844 202.558594 314.167969 209.15625 310.570312 215.222656 C 297.015625 238.621094 266.777344 256.535156 242.621094 267.582031 C 217.488281 279.007812 190.820312 286.929688 163.703125 292.132812 C 139.125 296.832031 114.195312 299.1875 89.132812 299.445312 C 75.140625 299.609375 61.101562 299.039062 47.144531 298.054688 C 115.84375 313.496094 194.679688 304.683594 257.28125 271.988281 Z M 257.28125 271.988281 "/></clipPath><clipPath id="385c07a0f4"><path d="M 238.765625 138.417969 L 288.691406 138.417969 L 288.691406 188 L 238.765625 188 Z M 238.765625 138.417969 "/></clipPath></defs><g id="dd1c178a73"><g clip-rule="nonzero" clip-path="url(#b1f49429c3)"><g clip-rule="nonzero" clip-path="url(#bfd32c36df)"><path style=" stroke:none;fill-rule:nonzero;fill:#f4ece3;fill-opacity:1;" d="M 12.226562 14.507812 L 362.773438 14.507812 L 362.773438 365.054688 L 12.226562 365.054688 Z M 12.226562 14.507812 "/></g></g><g clip-rule="nonzero" clip-path="url(#e7606d96e2)"><g clip-rule="nonzero" clip-path="url(#bd073937d9)"><g clip-rule="nonzero" clip-path="url(#634d2db07d)"><path style=" stroke:none;fill-rule:nonzero;fill:#c8baa0;fill-opacity:1;" d="M 164.097656 77.097656 C 164.097656 77.097656 144.003906 56.3125 123.539062 47.605469 C 97.890625 36.695312 74.734375 50.285156 94.027344 74.21875 C 107.992188 91.542969 128.789062 104.847656 157.488281 105.398438 C 157.488281 105.398438 139.390625 125.875 108.210938 128.660156 C 78.425781 131.320312 40.363281 134.058594 23.402344 168.019531 C 23.402344 168.019531 41.535156 150.792969 49.761719 173.445312 C 49.761719 173.445312 60.988281 148.125 88.269531 144.882812 C 116.996094 141.46875 157.117188 128.03125 171.515625 97.890625 C 171.515625 97.890625 140.449219 103.304688 119.3125 84.386719 C 98.175781 65.472656 100.746094 57.28125 103.488281 55.921875 C 111.148438 52.121094 135.003906 59.121094 164.097656 77.097656 "/></g></g></g><g clip-rule="nonzero" clip-path="url(#5bb8da2fe0)"><g clip-rule="nonzero" clip-path="url(#f149800bd2)"><g clip-rule="nonzero" clip-path="url(#f6cebb8fff)"><path style=" stroke:none;fill-rule:nonzero;fill:#c8baa0;fill-opacity:1;" d="M 185.210938 85.675781 C 185.210938 85.675781 181.4375 62.15625 189.476562 47.976562 C 197.292969 34.1875 211.078125 30.800781 220.839844 36.789062 C 220.839844 36.789062 187.53125 41.417969 185.210938 85.675781 "/></g></g></g><g clip-rule="nonzero" clip-path="url(#0eb67bc21e)"><g clip-rule="nonzero" clip-path="url(#f5b45b0b59)"><g clip-rule="nonzero" clip-path="url(#a80a448dde)"><path style=" stroke:none;fill-rule:nonzero;fill:#c8baa0;fill-opacity:1;" d="M 210.464844 45.269531 C 210.464844 45.269531 220.1875 38.382812 226.613281 47.230469 C 233.035156 56.082031 225.992188 85.476562 205.570312 104.839844 C 205.570312 104.839844 226.988281 92.992188 234.332031 69.429688 C 241.316406 47.019531 228.078125 31.363281 210.464844 45.269531 "/></g></g></g><g clip-rule="nonzero" clip-path="url(#d4febfd9fd)"><g clip-rule="nonzero" clip-path="url(#e01a26cc41)"><g clip-rule="nonzero" clip-path="url(#c3af183203)"><g clip-rule="nonzero" clip-path="url(#1653bfdb81)"><path style=" stroke:none;fill-rule:nonzero;fill:#522947;fill-opacity:1;" d="M 219.480469 106.871094 C 223.925781 100.855469 223.453125 93.964844 223.453125 93.964844 C 220.347656 99.230469 215.003906 105.832031 206.007812 111.296875 C 187.882812 122.316406 157.078125 139.027344 164.207031 180.550781 C 164.207031 180.550781 157.296875 161.253906 141.335938 172.691406 C 141.335938 172.691406 144.859375 145.644531 160.792969 127.800781 L 92.402344 152.195312 L 110.050781 201.671875 L 124.980469 196.347656 L 149.609375 265.402344 L 216.972656 241.375 L 192.34375 172.320312 L 273.273438 143.457031 L 255.625 93.976562 L 219.480469 106.871094 "/></g></g></g></g><g clip-rule="nonzero" clip-path="url(#2fd007018c)"><g clip-rule="nonzero" clip-path="url(#82de54a357)"><path style=" stroke:none;fill-rule:nonzero;fill:#522947;fill-opacity:1;" d="M 68.617188 158.386719 L 289.859375 79.472656 L 303.554688 117.871094 L 82.3125 196.785156 Z M 68.617188 158.386719 "/></g></g><g clip-rule="nonzero" clip-path="url(#b8dc1893b8)"><path style=" stroke:none;fill-rule:nonzero;fill:#522947;fill-opacity:1;" d="M 105.976562 327.929688 L 188.703125 327.929688 L 188.703125 193.644531 L 98.800781 193.644531 L 105.976562 327.929688 "/></g><g clip-rule="nonzero" clip-path="url(#e46a242f27)"><path style=" stroke:none;fill-rule:nonzero;fill:#522947;fill-opacity:1;" d="M 204.320312 327.929688 L 287.046875 327.929688 L 294.21875 193.644531 L 204.320312 193.644531 L 204.320312 327.929688 "/></g><g clip-rule="nonzero" clip-path="url(#3f47db3cad)"><g clip-rule="nonzero" clip-path="url(#e02a2e9e52)"><g clip-rule="nonzero" clip-path="url(#b61f95b44b)"><g clip-rule="nonzero" clip-path="url(#4befa19b59)"><path style=" stroke:none;fill-rule:nonzero;fill:#c8baa0;fill-opacity:1;" d="M 44.65625 369.652344 L 118.824219 277.550781 L 44.152344 217.421875 L -30.015625 309.523438 Z M 44.65625 369.652344 "/></g></g></g></g><g clip-rule="nonzero" clip-path="url(#f66954cd40)"><g clip-rule="nonzero" clip-path="url(#374886db56)"><g clip-rule="nonzero" clip-path="url(#fbe4e6820b)"><g clip-rule="nonzero" clip-path="url(#0927df7a5a)"><path style=" stroke:none;fill-rule:nonzero;fill:#c8baa0;fill-opacity:1;" d="M 215.808594 449.316406 L 400.609375 219.828125 L 156.515625 23.265625 L -28.285156 252.753906 Z M 215.808594 449.316406 "/></g></g></g></g><g clip-rule="nonzero" clip-path="url(#385c07a0f4)"><path style=" stroke:none;fill-rule:nonzero;fill:#c8baa0;fill-opacity:1;" d="M 288.011719 163.039062 C 269.542969 166.4375 266.789062 169.195312 263.390625 187.660156 C 259.988281 169.195312 257.234375 166.4375 238.765625 163.039062 C 257.234375 159.640625 259.988281 156.882812 263.390625 138.417969 C 266.789062 156.882812 269.542969 159.640625 288.011719 163.039062 Z M 288.011719 163.039062 "/></g></g></svg>