<svg xmlns="http://www.w3.org/2000/svg" xmlns:xlink="http://www.w3.org/1999/xlink" width="270" zoomAndPan="magnify" viewBox="0 0 202.5 61.499998" height="82" preserveAspectRatio="xMidYMid meet" version="1.2"><defs><clipPath id="a961a1feec"><path d="M 1 2 L 32 2 L 32 30 L 1 30 Z M 1 2 "/></clipPath><clipPath id="5003cc525e"><path d="M -5.652344 8.726562 L 42.277344 -8.367188 L 50.382812 14.367188 L 2.457031 31.464844 Z M -5.652344 8.726562 "/></clipPath><clipPath id="884c81e508"><path d="M -5.652344 8.726562 L 42.277344 -8.367188 L 58.492188 37.105469 L 10.566406 54.199219 Z M -5.652344 8.726562 "/></clipPath><clipPath id="91f9148707"><path d="M 34 0 L 42 0 L 42 11 L 34 11 Z M 34 0 "/></clipPath><clipPath id="7f9762fe28"><path d="M -5.652344 8.726562 L 42.277344 -8.367188 L 50.382812 14.367188 L 2.457031 31.464844 Z M -5.652344 8.726562 "/></clipPath><clipPath id="f3aef7c393"><path d="M -5.652344 8.726562 L 42.277344 -8.367188 L 58.492188 37.105469 L 10.566406 54.199219 Z M -5.652344 8.726562 "/></clipPath><clipPath id="b3adefd5e2"><path d="M 38 1 L 46 1 L 46 15 L 38 15 Z M 38 1 "/></clipPath><clipPath id="38a596731e"><path d="M -5.652344 8.726562 L 42.277344 -8.367188 L 50.382812 14.367188 L 2.457031 31.464844 Z M -5.652344 8.726562 "/></clipPath><clipPath id="463a8978b9"><path d="M -5.652344 8.726562 L 42.277344 -8.367188 L 58.492188 37.105469 L 10.566406 54.199219 Z M -5.652344 8.726562 "/></clipPath><clipPath id="3798ae2343"><path d="M 15 12 L 51 12 L 51 32 L 15 32 Z M 15 12 "/></clipPath><clipPath id="fbaaa05901"><path d="M -5.652344 8.726562 L 42.277344 -8.367188 L 50.382812 14.367188 L 2.457031 31.464844 Z M -5.652344 8.726562 "/></clipPath><clipPath id="9f6b4d91c2"><path d="M -5.652344 8.726562 L 42.277344 -8.367188 L 58.492188 37.105469 L 10.566406 54.199219 Z M -5.652344 8.726562 "/></clipPath><clipPath id="bb48a43317"><path d="M 14.664062 22.542969 L 48.339844 10.53125 L 57.8125 37.089844 L 24.136719 49.105469 Z M 14.664062 22.542969 "/></clipPath><clipPath id="9dfa3e0235"><path d="M 10 9 L 59 9 L 59 34 L 10 34 Z M 10 9 "/></clipPath><clipPath id="d55f79c1d8"><path d="M 10.414062 25.816406 L 55.753906 9.644531 L 58.5625 17.511719 L 13.21875 33.683594 Z M 10.414062 25.816406 "/></clipPath><clipPath id="d4955cf113"><path d="M 16 32 L 35 32 L 35 60.449219 L 16 60.449219 Z M 16 32 "/></clipPath><clipPath id="21ac223285"><path d="M 38 32 L 57 32 L 57 60.449219 L 38 60.449219 Z M 38 32 "/></clipPath><clipPath id="1fbb853107"><path d="M 5 37 L 6 37 L 6 61.003906 L 5 61.003906 Z M 5 37 "/></clipPath><clipPath id="4080c57592"><path d="M 40.285156 11.007812 L 67.214844 32.691406 L 32.027344 76.390625 L 5.097656 54.703125 Z M 40.285156 11.007812 "/></clipPath><clipPath id="0facbe8b3a"><path d="M 18.105469 93.597656 L -33.214844 52.273438 L 15.886719 -8.699219 L 67.203125 32.625 Z M 18.105469 93.597656 "/></clipPath><clipPath id="21cbc1c67e"><path d="M -32.183594 52.027344 C -32.25 53.039062 -27.398438 54.089844 -26.816406 54.214844 C -23.8125 54.867188 -21.214844 54.914062 -19.351562 54.820312 C -18.765625 56.136719 -18.175781 57.457031 -17.585938 58.773438 C -17.949219 58.765625 -18.316406 58.757812 -18.679688 58.75 C -18.683594 59.015625 -18.664062 59.414062 -18.519531 59.863281 C -18.351562 60.398438 -18.085938 60.777344 -17.902344 61 C -17.554688 60.984375 -17.207031 60.96875 -16.859375 60.949219 C -15.78125 63.210938 -14.699219 65.472656 -13.621094 67.734375 C -13.613281 67.742188 -13.605469 67.75 -13.59375 67.753906 C -12.285156 68.234375 -10.90625 68.464844 -9.550781 68.78125 C -10.6875 65.679688 -11.824219 62.578125 -12.960938 59.476562 L -12.28125 59.421875 C -12.335938 59.257812 -12.390625 59.09375 -12.441406 58.929688 C -12.707031 58.867188 -12.96875 58.808594 -13.230469 58.746094 C -13.636719 57.636719 -14.042969 56.527344 -14.453125 55.417969 L -0.0585938 55.046875 C 0.535156 56.25 1.132812 57.453125 1.726562 58.660156 C 2.691406 58.980469 3.660156 59.304688 4.625 59.628906 L 2.839844 54.507812 C 3.285156 54.433594 3.730469 54.359375 4.179688 54.285156 C 4.183594 54.167969 4.191406 54.046875 4.195312 53.929688 C 3.789062 53.789062 3.382812 53.644531 2.976562 53.503906 C 3.867188 52.066406 4.757812 50.625 5.648438 49.1875 C 4.648438 49.28125 3.648438 49.378906 2.652344 49.476562 C 1.789062 50.585938 0.929688 51.699219 0.0703125 52.808594 L -14.140625 50.773438 L -12.636719 47.972656 L -11.964844 47.914062 L -11.832031 47.621094 C -11.925781 47.527344 -12.019531 47.4375 -12.113281 47.347656 C -10.253906 44.214844 -8.398438 41.082031 -6.542969 37.949219 C -7.0625 37.96875 -7.484375 38 -7.773438 38.03125 C -8.710938 38.136719 -9.648438 38.285156 -10.59375 38.335938 C -10.726562 38.34375 -10.859375 38.351562 -10.992188 38.355469 C -12.605469 40.578125 -14.214844 42.800781 -15.828125 45.023438 C -16.171875 44.96875 -16.519531 44.914062 -16.863281 44.859375 C -17.082031 45.042969 -17.398438 45.359375 -17.65625 45.839844 C -17.859375 46.226562 -17.949219 46.582031 -17.996094 46.832031 C -17.65625 46.953125 -17.320312 47.070312 -16.984375 47.1875 C -17.730469 48.351562 -18.472656 49.511719 -19.21875 50.675781 C -21.269531 50.386719 -24.125 50.183594 -27.480469 50.613281 C -28.886719 50.792969 -32.132812 51.207031 -32.183594 52.027344 Z M -32.183594 52.027344 "/></clipPath><clipPath id="56d266002c"><path d="M 5 25 L 63 25 L 63 56 L 5 56 Z M 5 25 "/></clipPath><clipPath id="efc8be52a3"><path d="M 40.285156 11.007812 L 67.214844 32.691406 L 32.027344 76.390625 L 5.097656 54.703125 Z M 40.285156 11.007812 "/></clipPath><clipPath id="4432b8bcb4"><path d="M 18.105469 93.597656 L -33.214844 52.273438 L 15.886719 -8.699219 L 67.203125 32.625 Z M 18.105469 93.597656 "/></clipPath><clipPath id="1683fe1202"><path d="M 49.1875 48.933594 C 53.816406 46.472656 59.054688 42.75 61.414062 37.941406 C 62.519531 35.796875 63.152344 33.207031 62.398438 30.84375 C 61.695312 28.53125 59.839844 26.757812 57.722656 25.710938 C 60.1875 27.449219 62.042969 30.078125 61.652344 33.203125 C 61.488281 34.652344 60.886719 36.011719 60.148438 37.257812 C 57.359375 42.070312 51.140625 45.753906 46.171875 48.027344 C 41.003906 50.375 35.515625 52.007812 29.941406 53.074219 C 24.882812 54.042969 19.757812 54.527344 14.601562 54.582031 C 11.722656 54.613281 8.835938 54.496094 5.964844 54.292969 C 20.097656 57.46875 36.3125 55.65625 49.1875 48.933594 Z M 49.1875 48.933594 "/></clipPath><clipPath id="20c5b4a761"><path d="M 45.28125 21.722656 L 55.066406 21.722656 L 55.066406 31.507812 L 45.28125 31.507812 Z M 45.28125 21.722656 "/></clipPath></defs><g id="1975ef87ed"><g style="fill:#522947;fill-opacity:1;"><g transform="translate(67.184169, 52.018221)"><path style="stroke:none" d="M 30.53125 -15.609375 L 30.53125 -3.15625 C 28.894531 -1.96875 27.148438 -1.082031 25.296875 -0.5 C 23.453125 0.0703125 21.425781 0.359375 19.21875 0.359375 C 16.601562 0.359375 14.242188 -0.0390625 12.140625 -0.84375 C 10.046875 -1.65625 8.253906 -2.789062 6.765625 -4.25 C 5.273438 -5.707031 4.128906 -7.457031 3.328125 -9.5 C 2.523438 -11.539062 2.125 -13.785156 2.125 -16.234375 C 2.125 -18.703125 2.515625 -20.957031 3.296875 -23 C 4.078125 -25.039062 5.179688 -26.789062 6.609375 -28.25 C 8.046875 -29.707031 9.789062 -30.835938 11.84375 -31.640625 C 13.90625 -32.441406 16.207031 -32.84375 18.75 -32.84375 C 20.03125 -32.84375 21.222656 -32.75 22.328125 -32.5625 C 23.429688 -32.375 24.445312 -32.097656 25.375 -31.734375 C 26.3125 -31.378906 27.179688 -30.945312 27.984375 -30.4375 C 28.785156 -29.9375 29.535156 -29.367188 30.234375 -28.734375 L 28.984375 -26.75 C 28.785156 -26.445312 28.53125 -26.253906 28.21875 -26.171875 C 27.914062 -26.085938 27.578125 -26.15625 27.203125 -26.375 C 26.835938 -26.59375 26.421875 -26.851562 25.953125 -27.15625 C 25.484375 -27.457031 24.910156 -27.742188 24.234375 -28.015625 C 23.566406 -28.296875 22.773438 -28.535156 21.859375 -28.734375 C 20.941406 -28.929688 19.859375 -29.03125 18.609375 -29.03125 C 16.773438 -29.03125 15.117188 -28.734375 13.640625 -28.140625 C 12.160156 -27.546875 10.898438 -26.691406 9.859375 -25.578125 C 8.816406 -24.460938 8.015625 -23.113281 7.453125 -21.53125 C 6.898438 -19.957031 6.625 -18.191406 6.625 -16.234375 C 6.625 -14.191406 6.910156 -12.363281 7.484375 -10.75 C 8.066406 -9.144531 8.898438 -7.78125 9.984375 -6.65625 C 11.066406 -5.53125 12.378906 -4.671875 13.921875 -4.078125 C 15.460938 -3.492188 17.191406 -3.203125 19.109375 -3.203125 C 20.617188 -3.203125 21.957031 -3.367188 23.125 -3.703125 C 24.300781 -4.046875 25.445312 -4.519531 26.5625 -5.125 L 26.5625 -12.265625 L 21.515625 -12.265625 C 21.222656 -12.265625 20.988281 -12.347656 20.8125 -12.515625 C 20.644531 -12.679688 20.5625 -12.882812 20.5625 -13.125 L 20.5625 -15.609375 Z M 30.53125 -15.609375 "/></g></g><g style="fill:#522947;fill-opacity:1;"><g transform="translate(100.294332, 52.018221)"><path style="stroke:none" d="M 7.453125 -22.953125 L 7.453125 0 L 3.421875 0 L 3.421875 -22.953125 Z M 8.3125 -30.171875 C 8.3125 -29.773438 8.234375 -29.40625 8.078125 -29.0625 C 7.921875 -28.726562 7.707031 -28.425781 7.4375 -28.15625 C 7.175781 -27.894531 6.867188 -27.6875 6.515625 -27.53125 C 6.160156 -27.382812 5.785156 -27.3125 5.390625 -27.3125 C 5.003906 -27.3125 4.640625 -27.382812 4.296875 -27.53125 C 3.953125 -27.6875 3.648438 -27.894531 3.390625 -28.15625 C 3.140625 -28.425781 2.9375 -28.726562 2.78125 -29.0625 C 2.632812 -29.40625 2.5625 -29.773438 2.5625 -30.171875 C 2.5625 -30.554688 2.632812 -30.925781 2.78125 -31.28125 C 2.9375 -31.644531 3.140625 -31.957031 3.390625 -32.21875 C 3.648438 -32.476562 3.953125 -32.679688 4.296875 -32.828125 C 4.640625 -32.984375 5.003906 -33.0625 5.390625 -33.0625 C 5.785156 -33.0625 6.160156 -32.984375 6.515625 -32.828125 C 6.867188 -32.679688 7.175781 -32.476562 7.4375 -32.21875 C 7.707031 -31.957031 7.921875 -31.644531 8.078125 -31.28125 C 8.234375 -30.925781 8.3125 -30.554688 8.3125 -30.171875 Z M 8.3125 -30.171875 "/></g></g><g style="fill:#522947;fill-opacity:1;"><g transform="translate(111.17242, 52.018221)"><path style="stroke:none" d="M 4.6875 0 L 4.6875 -19.515625 L 2.15625 -19.8125 C 1.832031 -19.882812 1.566406 -20 1.359375 -20.15625 C 1.160156 -20.3125 1.0625 -20.539062 1.0625 -20.84375 L 1.0625 -22.5 L 4.6875 -22.5 L 4.6875 -24.71875 C 4.6875 -26.039062 4.867188 -27.210938 5.234375 -28.234375 C 5.609375 -29.253906 6.140625 -30.113281 6.828125 -30.8125 C 7.515625 -31.507812 8.34375 -32.039062 9.3125 -32.40625 C 10.28125 -32.769531 11.367188 -32.953125 12.578125 -32.953125 C 13.609375 -32.953125 14.550781 -32.800781 15.40625 -32.5 L 15.328125 -30.484375 C 15.296875 -30.117188 15.09375 -29.921875 14.71875 -29.890625 C 14.351562 -29.859375 13.859375 -29.84375 13.234375 -29.84375 C 12.535156 -29.84375 11.90625 -29.75 11.34375 -29.5625 C 10.78125 -29.382812 10.289062 -29.09375 9.875 -28.6875 C 9.46875 -28.28125 9.15625 -27.742188 8.9375 -27.078125 C 8.71875 -26.421875 8.609375 -25.597656 8.609375 -24.609375 L 8.609375 -22.5 L 15.234375 -22.5 L 15.234375 -19.578125 L 8.75 -19.578125 L 8.75 0 Z M 4.6875 0 "/></g></g><g style="fill:#522947;fill-opacity:1;"><g transform="translate(127.058951, 52.018221)"><path style="stroke:none" d="M 15.640625 -10.328125 C 13.773438 -10.273438 12.1875 -10.128906 10.875 -9.890625 C 9.570312 -9.660156 8.507812 -9.351562 7.6875 -8.96875 C 6.863281 -8.59375 6.265625 -8.148438 5.890625 -7.640625 C 5.523438 -7.128906 5.34375 -6.554688 5.34375 -5.921875 C 5.34375 -5.316406 5.441406 -4.789062 5.640625 -4.34375 C 5.835938 -3.90625 6.101562 -3.546875 6.4375 -3.265625 C 6.78125 -2.992188 7.179688 -2.789062 7.640625 -2.65625 C 8.109375 -2.53125 8.609375 -2.46875 9.140625 -2.46875 C 9.847656 -2.46875 10.492188 -2.539062 11.078125 -2.6875 C 11.671875 -2.832031 12.226562 -3.039062 12.75 -3.3125 C 13.269531 -3.582031 13.765625 -3.90625 14.234375 -4.28125 C 14.710938 -4.65625 15.179688 -5.085938 15.640625 -5.578125 Z M 2.609375 -19.71875 C 3.878906 -20.9375 5.242188 -21.847656 6.703125 -22.453125 C 8.171875 -23.054688 9.796875 -23.359375 11.578125 -23.359375 C 12.859375 -23.359375 14 -23.144531 15 -22.71875 C 16 -22.300781 16.835938 -21.710938 17.515625 -20.953125 C 18.203125 -20.203125 18.71875 -19.289062 19.0625 -18.21875 C 19.40625 -17.144531 19.578125 -15.96875 19.578125 -14.6875 L 19.578125 0 L 17.796875 0 C 17.398438 0 17.09375 -0.0625 16.875 -0.1875 C 16.664062 -0.320312 16.503906 -0.578125 16.390625 -0.953125 L 15.9375 -3.125 C 15.332031 -2.570312 14.738281 -2.078125 14.15625 -1.640625 C 13.582031 -1.210938 12.976562 -0.847656 12.34375 -0.546875 C 11.71875 -0.253906 11.046875 -0.03125 10.328125 0.125 C 9.609375 0.28125 8.8125 0.359375 7.9375 0.359375 C 7.039062 0.359375 6.195312 0.234375 5.40625 -0.015625 C 4.625 -0.265625 3.941406 -0.632812 3.359375 -1.125 C 2.785156 -1.625 2.328125 -2.253906 1.984375 -3.015625 C 1.640625 -3.785156 1.46875 -4.691406 1.46875 -5.734375 C 1.46875 -6.640625 1.71875 -7.507812 2.21875 -8.34375 C 2.71875 -9.1875 3.523438 -9.929688 4.640625 -10.578125 C 5.765625 -11.234375 7.222656 -11.769531 9.015625 -12.1875 C 10.816406 -12.601562 13.023438 -12.835938 15.640625 -12.890625 L 15.640625 -14.6875 C 15.640625 -16.46875 15.253906 -17.816406 14.484375 -18.734375 C 13.710938 -19.648438 12.585938 -20.109375 11.109375 -20.109375 C 10.109375 -20.109375 9.269531 -19.984375 8.59375 -19.734375 C 7.925781 -19.484375 7.347656 -19.203125 6.859375 -18.890625 C 6.367188 -18.578125 5.941406 -18.296875 5.578125 -18.046875 C 5.222656 -17.796875 4.875 -17.671875 4.53125 -17.671875 C 4.257812 -17.671875 4.023438 -17.742188 3.828125 -17.890625 C 3.628906 -18.035156 3.460938 -18.210938 3.328125 -18.421875 Z M 2.609375 -19.71875 "/></g></g><g style="fill:#522947;fill-opacity:1;"><g transform="translate(149.585649, 52.018221)"><path style="stroke:none" d="M 7.453125 -22.953125 L 7.453125 0 L 3.421875 0 L 3.421875 -22.953125 Z M 8.3125 -30.171875 C 8.3125 -29.773438 8.234375 -29.40625 8.078125 -29.0625 C 7.921875 -28.726562 7.707031 -28.425781 7.4375 -28.15625 C 7.175781 -27.894531 6.867188 -27.6875 6.515625 -27.53125 C 6.160156 -27.382812 5.785156 -27.3125 5.390625 -27.3125 C 5.003906 -27.3125 4.640625 -27.382812 4.296875 -27.53125 C 3.953125 -27.6875 3.648438 -27.894531 3.390625 -28.15625 C 3.140625 -28.425781 2.9375 -28.726562 2.78125 -29.0625 C 2.632812 -29.40625 2.5625 -29.773438 2.5625 -30.171875 C 2.5625 -30.554688 2.632812 -30.925781 2.78125 -31.28125 C 2.9375 -31.644531 3.140625 -31.957031 3.390625 -32.21875 C 3.648438 -32.476562 3.953125 -32.679688 4.296875 -32.828125 C 4.640625 -32.984375 5.003906 -33.0625 5.390625 -33.0625 C 5.785156 -33.0625 6.160156 -32.984375 6.515625 -32.828125 C 6.867188 -32.679688 7.175781 -32.476562 7.4375 -32.21875 C 7.707031 -31.957031 7.921875 -31.644531 8.078125 -31.28125 C 8.234375 -30.925781 8.3125 -30.554688 8.3125 -30.171875 Z M 8.3125 -30.171875 "/></g></g><g style="fill:#522947;fill-opacity:1;"><g transform="translate(160.463736, 52.018221)"><path style="stroke:none" d="M 7.03125 -18.359375 C 7.75 -19.929688 8.632812 -21.15625 9.6875 -22.03125 C 10.75 -22.914062 12.046875 -23.359375 13.578125 -23.359375 C 14.054688 -23.359375 14.519531 -23.304688 14.96875 -23.203125 C 15.414062 -23.097656 15.8125 -22.929688 16.15625 -22.703125 L 15.859375 -19.6875 C 15.773438 -19.3125 15.550781 -19.125 15.1875 -19.125 C 14.976562 -19.125 14.664062 -19.171875 14.25 -19.265625 C 13.84375 -19.359375 13.382812 -19.40625 12.875 -19.40625 C 12.144531 -19.40625 11.492188 -19.296875 10.921875 -19.078125 C 10.359375 -18.867188 9.851562 -18.554688 9.40625 -18.140625 C 8.96875 -17.722656 8.570312 -17.207031 8.21875 -16.59375 C 7.863281 -15.988281 7.539062 -15.289062 7.25 -14.5 L 7.25 0 L 3.203125 0 L 3.203125 -22.953125 L 5.5 -22.953125 C 5.945312 -22.953125 6.25 -22.867188 6.40625 -22.703125 C 6.570312 -22.535156 6.6875 -22.25 6.75 -21.84375 Z M 7.03125 -18.359375 "/></g></g><g style="fill:#522947;fill-opacity:1;"><g transform="translate(176.962157, 52.018221)"><path style="stroke:none" d="M 23 -22.953125 L 10.203125 6.78125 C 10.066406 7.082031 9.894531 7.320312 9.6875 7.5 C 9.488281 7.6875 9.175781 7.78125 8.75 7.78125 L 5.75 7.78125 L 9.953125 -1.34375 L 0.46875 -22.953125 L 3.96875 -22.953125 C 4.3125 -22.953125 4.582031 -22.863281 4.78125 -22.6875 C 4.988281 -22.519531 5.132812 -22.332031 5.21875 -22.125 L 11.359375 -7.65625 C 11.597656 -7.019531 11.800781 -6.359375 11.96875 -5.671875 C 12.175781 -6.378906 12.398438 -7.050781 12.640625 -7.6875 L 18.609375 -22.125 C 18.703125 -22.363281 18.859375 -22.5625 19.078125 -22.71875 C 19.296875 -22.875 19.539062 -22.953125 19.8125 -22.953125 Z M 23 -22.953125 "/></g></g><g clip-rule="nonzero" clip-path="url(#a961a1feec)"><g clip-rule="nonzero" clip-path="url(#5003cc525e)"><g clip-rule="nonzero" clip-path="url(#884c81e508)"><path style=" stroke:none;fill-rule:nonzero;fill:#c8baa0;fill-opacity:1;" d="M 30.214844 9.160156 C 30.214844 9.160156 26.066406 4.871094 21.847656 3.078125 C 16.554688 0.824219 11.777344 3.628906 15.757812 8.566406 C 18.640625 12.140625 22.929688 14.882812 28.851562 14.996094 C 28.851562 14.996094 25.117188 19.222656 18.683594 19.796875 C 12.539062 20.34375 4.6875 20.910156 1.191406 27.914062 C 1.191406 27.914062 4.929688 24.363281 6.628906 29.035156 C 6.628906 29.035156 8.945312 23.8125 14.570312 23.140625 C 20.496094 22.4375 28.773438 19.664062 31.742188 13.449219 C 31.742188 13.449219 25.335938 14.566406 20.972656 10.664062 C 16.613281 6.761719 17.144531 5.070312 17.710938 4.792969 C 19.289062 4.007812 24.210938 5.453125 30.214844 9.160156 "/></g></g></g><g clip-rule="nonzero" clip-path="url(#91f9148707)"><g clip-rule="nonzero" clip-path="url(#7f9762fe28)"><g clip-rule="nonzero" clip-path="url(#f3aef7c393)"><path style=" stroke:none;fill-rule:nonzero;fill:#c8baa0;fill-opacity:1;" d="M 34.566406 10.929688 C 34.566406 10.929688 33.789062 6.078125 35.449219 3.152344 C 37.058594 0.308594 39.902344 -0.390625 41.917969 0.84375 C 41.917969 0.84375 35.046875 1.800781 34.566406 10.929688 "/></g></g></g><g clip-rule="nonzero" clip-path="url(#b3adefd5e2)"><g clip-rule="nonzero" clip-path="url(#38a596731e)"><g clip-rule="nonzero" clip-path="url(#463a8978b9)"><path style=" stroke:none;fill-rule:nonzero;fill:#c8baa0;fill-opacity:1;" d="M 39.777344 2.59375 C 39.777344 2.59375 41.78125 1.175781 43.109375 3 C 44.433594 4.824219 42.980469 10.886719 38.769531 14.882812 C 38.769531 14.882812 43.183594 12.4375 44.699219 7.578125 C 46.140625 2.953125 43.410156 -0.273438 39.777344 2.59375 "/></g></g></g><g clip-rule="nonzero" clip-path="url(#3798ae2343)"><g clip-rule="nonzero" clip-path="url(#fbaaa05901)"><g clip-rule="nonzero" clip-path="url(#9f6b4d91c2)"><g clip-rule="nonzero" clip-path="url(#bb48a43317)"><path style=" stroke:none;fill-rule:nonzero;fill:#522947;fill-opacity:1;" d="M 41.636719 15.300781 C 42.554688 14.058594 42.457031 12.640625 42.457031 12.640625 C 41.816406 13.726562 40.714844 15.085938 38.859375 16.214844 C 35.117188 18.488281 28.765625 21.933594 30.234375 30.5 C 30.234375 30.5 28.808594 26.519531 25.519531 28.878906 C 25.519531 28.878906 26.242188 23.300781 29.53125 19.617188 L 15.425781 24.648438 L 19.0625 34.855469 L 22.144531 33.757812 L 27.222656 48.003906 L 41.121094 43.046875 L 36.039062 28.800781 L 52.734375 22.847656 L 49.09375 12.640625 L 41.636719 15.300781 "/></g></g></g></g><g clip-rule="nonzero" clip-path="url(#9dfa3e0235)"><g clip-rule="nonzero" clip-path="url(#d55f79c1d8)"><path style=" stroke:none;fill-rule:nonzero;fill:#522947;fill-opacity:1;" d="M 10.414062 25.816406 L 55.75 9.644531 L 58.558594 17.511719 L 13.21875 33.683594 Z M 10.414062 25.816406 "/></g></g><g clip-rule="nonzero" clip-path="url(#d4955cf113)"><path style=" stroke:none;fill-rule:nonzero;fill:#522947;fill-opacity:1;" d="M 18.039062 60.449219 L 34.960938 60.449219 L 34.960938 32.984375 L 16.570312 32.984375 L 18.039062 60.449219 "/></g><g clip-rule="nonzero" clip-path="url(#21ac223285)"><path style=" stroke:none;fill-rule:nonzero;fill:#522947;fill-opacity:1;" d="M 38.152344 60.449219 L 55.074219 60.449219 L 56.542969 32.984375 L 38.152344 32.984375 L 38.152344 60.449219 "/></g><g clip-rule="nonzero" clip-path="url(#1fbb853107)"><g clip-rule="nonzero" clip-path="url(#4080c57592)"><g clip-rule="nonzero" clip-path="url(#0facbe8b3a)"><g clip-rule="nonzero" clip-path="url(#21cbc1c67e)"><path style=" stroke:none;fill-rule:nonzero;fill:#c8baa0;fill-opacity:1;" d="M 5.429688 61.273438 L 16.910156 47.015625 L 5.3125 37.679688 L -6.164062 51.933594 Z M 5.429688 61.273438 "/></g></g></g></g><g clip-rule="nonzero" clip-path="url(#56d266002c)"><g clip-rule="nonzero" clip-path="url(#efc8be52a3)"><g clip-rule="nonzero" clip-path="url(#4432b8bcb4)"><g clip-rule="nonzero" clip-path="url(#1683fe1202)"><path style=" stroke:none;fill-rule:nonzero;fill:#c8baa0;fill-opacity:1;" d="M 40.65625 85.40625 L 78.667969 38.203125 L 28.460938 -2.222656 L -9.546875 44.976562 Z M 40.65625 85.40625 "/></g></g></g></g><g clip-rule="nonzero" clip-path="url(#20c5b4a761)"><path style=" stroke:none;fill-rule:nonzero;fill:#c8baa0;fill-opacity:1;" d="M 55.066406 26.617188 C 51.398438 27.292969 50.847656 27.839844 50.171875 31.507812 C 49.496094 27.839844 48.949219 27.292969 45.28125 26.617188 C 48.949219 25.941406 49.496094 25.394531 50.171875 21.722656 C 50.847656 25.394531 51.398438 25.941406 55.066406 26.617188 Z M 55.066406 26.617188 "/></g></g></svg>