<svg xmlns="http://www.w3.org/2000/svg" xmlns:xlink="http://www.w3.org/1999/xlink" width="272" zoomAndPan="magnify" viewBox="0 0 204 80.249996" height="107" preserveAspectRatio="xMidYMid meet" version="1.2"><defs><clipPath id="5fa13b0fe0"><path d="M 6 11 L 34 11 L 34 35 L 6 35 Z M 6 11 "/></clipPath><clipPath id="563c90fb11"><path d="M 0.945312 16.851562 L 42.386719 2.070312 L 49.578125 22.230469 L 8.136719 37.011719 Z M 0.945312 16.851562 "/></clipPath><clipPath id="f6d301cc44"><path d="M 0.945312 16.851562 L 42.386719 2.070312 L 56.367188 41.269531 L 14.929688 56.050781 Z M 0.945312 16.851562 "/></clipPath><clipPath id="f38bd7c069"><path d="M 35 9 L 43 9 L 43 19 L 35 19 Z M 35 9 "/></clipPath><clipPath id="d471791697"><path d="M 0.945312 16.851562 L 42.386719 2.070312 L 49.578125 22.230469 L 8.136719 37.011719 Z M 0.945312 16.851562 "/></clipPath><clipPath id="dfbe3831a7"><path d="M 0.945312 16.851562 L 42.386719 2.070312 L 56.367188 41.269531 L 14.929688 56.050781 Z M 0.945312 16.851562 "/></clipPath><clipPath id="7a70091dd6"><path d="M 39 10 L 45 10 L 45 23 L 39 23 Z M 39 10 "/></clipPath><clipPath id="3f35179b6d"><path d="M 0.945312 16.851562 L 42.386719 2.070312 L 49.578125 22.230469 L 8.136719 37.011719 Z M 0.945312 16.851562 "/></clipPath><clipPath id="bcf3501e9b"><path d="M 0.945312 16.851562 L 42.386719 2.070312 L 56.367188 41.269531 L 14.929688 56.050781 Z M 0.945312 16.851562 "/></clipPath><clipPath id="ad75c1180c"><path d="M 19 20 L 50 20 L 50 38 L 19 38 Z M 19 20 "/></clipPath><clipPath id="351ec10634"><path d="M 0.945312 16.851562 L 42.386719 2.070312 L 49.578125 22.230469 L 8.136719 37.011719 Z M 0.945312 16.851562 "/></clipPath><clipPath id="7e12f26519"><path d="M 0.945312 16.851562 L 42.386719 2.070312 L 56.367188 41.269531 L 14.929688 56.050781 Z M 0.945312 16.851562 "/></clipPath><clipPath id="1c154199c2"><path d="M 18.539062 28.816406 L 47.707031 18.414062 L 55.910156 41.417969 L 26.746094 51.820312 Z M 18.539062 28.816406 "/></clipPath><clipPath id="0e810cbbf3"><path d="M 14 17 L 57 17 L 57 39 L 14 39 Z M 14 17 "/></clipPath><clipPath id="c94757f3f5"><path d="M 14.949219 31.75 L 54.480469 17.648438 L 56.925781 24.511719 L 17.398438 38.609375 Z M 14.949219 31.75 "/></clipPath><clipPath id="cc8cc62cfe"><path d="M 20 38 L 37 38 L 37 61.886719 L 20 61.886719 Z M 20 38 "/></clipPath><clipPath id="0bd5ac88b7"><path d="M 39 38 L 56 38 L 56 61.886719 L 39 61.886719 Z M 39 38 "/></clipPath><clipPath id="ae30c101c7"><path d="M 10 42 L 11 42 L 11 70 L 10 70 Z M 10 42 "/></clipPath><clipPath id="b786c75302"><path d="M 40.992188 18.835938 L 64.609375 37.855469 L 34.03125 75.828125 L 10.414062 56.8125 Z M 40.992188 18.835938 "/></clipPath><clipPath id="b0e8f8f0df"><path d="M 21.660156 90.835938 L -22.796875 55.039062 L 20.085938 1.78125 L 64.542969 37.582031 Z M 21.660156 90.835938 "/></clipPath><clipPath id="67dd17c53c"><path d="M -22.023438 54.730469 C -22.078125 55.613281 -17.863281 56.523438 -17.359375 56.632812 C -14.75 57.195312 -12.496094 57.238281 -10.878906 57.15625 C -10.367188 58.300781 -9.855469 59.445312 -9.34375 60.589844 C -9.660156 60.585938 -9.976562 60.578125 -10.292969 60.570312 C -10.296875 60.800781 -10.277344 61.144531 -10.152344 61.535156 C -10.007812 62 -9.777344 62.332031 -9.617188 62.527344 C -9.316406 62.511719 -9.011719 62.496094 -8.710938 62.480469 C -7.773438 64.445312 -6.835938 66.410156 -5.898438 68.371094 C -5.890625 68.378906 -5.882812 68.386719 -5.875 68.390625 C -4.738281 68.808594 -3.539062 69.007812 -2.363281 69.285156 C -3.351562 66.589844 -4.339844 63.894531 -5.328125 61.203125 L -4.734375 61.152344 C -4.78125 61.011719 -4.828125 60.867188 -4.875 60.726562 C -5.105469 60.671875 -5.332031 60.621094 -5.558594 60.566406 C -5.914062 59.601562 -6.265625 58.636719 -6.621094 57.675781 L 5.878906 57.351562 C 6.398438 58.398438 6.914062 59.445312 7.429688 60.492188 C 8.269531 60.773438 9.109375 61.050781 9.949219 61.332031 L 8.398438 56.886719 C 8.785156 56.820312 9.171875 56.757812 9.5625 56.691406 C 9.566406 56.589844 9.570312 56.488281 9.578125 56.382812 C 9.222656 56.261719 8.871094 56.136719 8.519531 56.015625 C 9.289062 54.765625 10.0625 53.511719 10.835938 52.261719 C 9.96875 52.347656 9.101562 52.433594 8.234375 52.515625 C 7.488281 53.480469 6.742188 54.445312 5.992188 55.410156 L -6.351562 53.640625 L -5.042969 51.210938 L -4.460938 51.15625 L -4.34375 50.902344 C -4.425781 50.824219 -4.507812 50.746094 -4.585938 50.664062 C -2.976562 47.945312 -1.363281 45.222656 0.25 42.503906 C -0.203125 42.519531 -0.570312 42.550781 -0.820312 42.578125 C -1.632812 42.664062 -2.449219 42.792969 -3.269531 42.839844 C -3.382812 42.847656 -3.5 42.851562 -3.613281 42.855469 C -5.015625 44.785156 -6.414062 46.71875 -7.816406 48.648438 C -8.117188 48.601562 -8.414062 48.550781 -8.714844 48.503906 C -8.902344 48.664062 -9.179688 48.941406 -9.402344 49.355469 C -9.578125 49.691406 -9.660156 50 -9.699219 50.21875 C -9.40625 50.324219 -9.113281 50.425781 -8.820312 50.527344 C -9.46875 51.539062 -10.113281 52.546875 -10.761719 53.558594 C -12.542969 53.304688 -15.023438 53.128906 -17.9375 53.503906 C -19.160156 53.660156 -21.976562 54.019531 -22.023438 54.730469 Z M -22.023438 54.730469 "/></clipPath><clipPath id="8dc3757cfa"><path d="M 11 31 L 61 31 L 61 59 L 11 59 Z M 11 31 "/></clipPath><clipPath id="95c7def384"><path d="M 40.992188 18.835938 L 64.609375 37.855469 L 34.03125 75.828125 L 10.414062 56.8125 Z M 40.992188 18.835938 "/></clipPath><clipPath id="9ce4f87173"><path d="M 21.660156 90.835938 L -22.796875 55.039062 L 20.085938 1.78125 L 64.542969 37.582031 Z M 21.660156 90.835938 "/></clipPath><clipPath id="a69c5f74cf"><path d="M 48.652344 52.042969 C 52.675781 49.90625 57.222656 46.671875 59.273438 42.496094 C 60.234375 40.632812 60.785156 38.382812 60.128906 36.332031 C 59.519531 34.324219 57.90625 32.78125 56.066406 31.875 C 58.210938 33.382812 59.820312 35.667969 59.484375 38.378906 C 59.339844 39.640625 58.816406 40.820312 58.175781 41.902344 C 55.753906 46.082031 50.351562 49.28125 46.035156 51.257812 C 41.546875 53.296875 36.78125 54.710938 31.9375 55.640625 C 27.546875 56.480469 23.09375 56.902344 18.613281 56.949219 C 16.117188 56.976562 13.605469 56.875 11.113281 56.699219 C 23.386719 59.457031 37.472656 57.882812 48.652344 52.042969 Z M 48.652344 52.042969 "/></clipPath><clipPath id="ee7e76f1e1"><path d="M 45.347656 28.179688 L 54.265625 28.179688 L 54.265625 37 L 45.347656 37 Z M 45.347656 28.179688 "/></clipPath></defs><g id="14f95aba46"><g style="fill:#522947;fill-opacity:1;"><g transform="translate(64.441342, 54.591196)"><path style="stroke:none" d="M 26.609375 -13.609375 L 26.609375 -2.75 C 25.191406 -1.71875 23.675781 -0.945312 22.0625 -0.4375 C 20.445312 0.0625 18.675781 0.3125 16.75 0.3125 C 14.476562 0.3125 12.425781 -0.0351562 10.59375 -0.734375 C 8.757812 -1.441406 7.191406 -2.429688 5.890625 -3.703125 C 4.597656 -4.972656 3.601562 -6.5 2.90625 -8.28125 C 2.207031 -10.0625 1.859375 -12.015625 1.859375 -14.140625 C 1.859375 -16.304688 2.195312 -18.273438 2.875 -20.046875 C 3.550781 -21.828125 4.515625 -23.351562 5.765625 -24.625 C 7.015625 -25.894531 8.535156 -26.878906 10.328125 -27.578125 C 12.117188 -28.273438 14.125 -28.625 16.34375 -28.625 C 17.457031 -28.625 18.492188 -28.539062 19.453125 -28.375 C 20.421875 -28.21875 21.3125 -27.984375 22.125 -27.671875 C 22.945312 -27.359375 23.707031 -26.976562 24.40625 -26.53125 C 25.101562 -26.09375 25.753906 -25.597656 26.359375 -25.046875 L 25.265625 -23.3125 C 25.097656 -23.050781 24.878906 -22.882812 24.609375 -22.8125 C 24.335938 -22.738281 24.035156 -22.800781 23.703125 -23 C 23.390625 -23.1875 23.03125 -23.410156 22.625 -23.671875 C 22.21875 -23.929688 21.71875 -24.179688 21.125 -24.421875 C 20.539062 -24.671875 19.847656 -24.878906 19.046875 -25.046875 C 18.253906 -25.222656 17.3125 -25.3125 16.21875 -25.3125 C 14.625 -25.3125 13.179688 -25.050781 11.890625 -24.53125 C 10.597656 -24.007812 9.5 -23.265625 8.59375 -22.296875 C 7.6875 -21.328125 6.988281 -20.15625 6.5 -18.78125 C 6.007812 -17.40625 5.765625 -15.859375 5.765625 -14.140625 C 5.765625 -12.367188 6.019531 -10.78125 6.53125 -9.375 C 7.039062 -7.96875 7.765625 -6.773438 8.703125 -5.796875 C 9.640625 -4.816406 10.78125 -4.066406 12.125 -3.546875 C 13.46875 -3.035156 14.976562 -2.78125 16.65625 -2.78125 C 17.96875 -2.78125 19.132812 -2.925781 20.15625 -3.21875 C 21.175781 -3.519531 22.175781 -3.9375 23.15625 -4.46875 L 23.15625 -10.6875 L 18.75 -10.6875 C 18.5 -10.6875 18.296875 -10.757812 18.140625 -10.90625 C 17.992188 -11.050781 17.921875 -11.226562 17.921875 -11.4375 L 17.921875 -13.609375 Z M 26.609375 -13.609375 "/></g></g><g style="fill:#522947;fill-opacity:1;"><g transform="translate(93.305825, 54.591196)"><path style="stroke:none" d="M 6.5 -20.015625 L 6.5 0 L 2.984375 0 L 2.984375 -20.015625 Z M 7.25 -26.296875 C 7.25 -25.953125 7.179688 -25.628906 7.046875 -25.328125 C 6.910156 -25.035156 6.722656 -24.773438 6.484375 -24.546875 C 6.253906 -24.316406 5.984375 -24.132812 5.671875 -24 C 5.367188 -23.875 5.046875 -23.8125 4.703125 -23.8125 C 4.359375 -23.8125 4.035156 -23.875 3.734375 -24 C 3.441406 -24.132812 3.179688 -24.316406 2.953125 -24.546875 C 2.734375 -24.773438 2.554688 -25.035156 2.421875 -25.328125 C 2.296875 -25.628906 2.234375 -25.953125 2.234375 -26.296875 C 2.234375 -26.640625 2.296875 -26.960938 2.421875 -27.265625 C 2.554688 -27.578125 2.734375 -27.847656 2.953125 -28.078125 C 3.179688 -28.316406 3.441406 -28.5 3.734375 -28.625 C 4.035156 -28.757812 4.359375 -28.828125 4.703125 -28.828125 C 5.046875 -28.828125 5.367188 -28.757812 5.671875 -28.625 C 5.984375 -28.5 6.253906 -28.316406 6.484375 -28.078125 C 6.722656 -27.847656 6.910156 -27.578125 7.046875 -27.265625 C 7.179688 -26.960938 7.25 -26.640625 7.25 -26.296875 Z M 7.25 -26.296875 "/></g></g><g style="fill:#522947;fill-opacity:1;"><g transform="translate(102.789028, 54.591196)"><path style="stroke:none" d="M 4.09375 0 L 4.09375 -17.015625 L 1.875 -17.265625 C 1.601562 -17.328125 1.375 -17.425781 1.1875 -17.5625 C 1.007812 -17.707031 0.921875 -17.910156 0.921875 -18.171875 L 0.921875 -19.625 L 4.09375 -19.625 L 4.09375 -21.5625 C 4.09375 -22.707031 4.253906 -23.722656 4.578125 -24.609375 C 4.898438 -25.492188 5.359375 -26.242188 5.953125 -26.859375 C 6.554688 -27.472656 7.28125 -27.9375 8.125 -28.25 C 8.96875 -28.570312 9.914062 -28.734375 10.96875 -28.734375 C 11.863281 -28.734375 12.6875 -28.597656 13.4375 -28.328125 L 13.359375 -26.578125 C 13.328125 -26.253906 13.148438 -26.078125 12.828125 -26.046875 C 12.503906 -26.023438 12.070312 -26.015625 11.53125 -26.015625 C 10.925781 -26.015625 10.375 -25.9375 9.875 -25.78125 C 9.382812 -25.625 8.960938 -25.367188 8.609375 -25.015625 C 8.253906 -24.660156 7.984375 -24.191406 7.796875 -23.609375 C 7.609375 -23.023438 7.515625 -22.304688 7.515625 -21.453125 L 7.515625 -19.625 L 13.28125 -19.625 L 13.28125 -17.078125 L 7.625 -17.078125 L 7.625 0 Z M 4.09375 0 "/></g></g><g style="fill:#522947;fill-opacity:1;"><g transform="translate(116.638447, 54.591196)"><path style="stroke:none" d="M 13.640625 -9.015625 C 12.015625 -8.960938 10.628906 -8.832031 9.484375 -8.625 C 8.347656 -8.414062 7.421875 -8.144531 6.703125 -7.8125 C 5.984375 -7.488281 5.460938 -7.101562 5.140625 -6.65625 C 4.816406 -6.207031 4.65625 -5.707031 4.65625 -5.15625 C 4.65625 -4.625 4.738281 -4.164062 4.90625 -3.78125 C 5.082031 -3.40625 5.316406 -3.09375 5.609375 -2.84375 C 5.910156 -2.601562 6.257812 -2.425781 6.65625 -2.3125 C 7.0625 -2.207031 7.5 -2.15625 7.96875 -2.15625 C 8.582031 -2.15625 9.144531 -2.21875 9.65625 -2.34375 C 10.175781 -2.46875 10.660156 -2.644531 11.109375 -2.875 C 11.566406 -3.113281 12.003906 -3.398438 12.421875 -3.734375 C 12.835938 -4.066406 13.242188 -4.441406 13.640625 -4.859375 Z M 2.265625 -17.1875 C 3.378906 -18.257812 4.570312 -19.054688 5.84375 -19.578125 C 7.125 -20.109375 8.539062 -20.375 10.09375 -20.375 C 11.21875 -20.375 12.210938 -20.1875 13.078125 -19.8125 C 13.953125 -19.445312 14.679688 -18.929688 15.265625 -18.265625 C 15.859375 -17.609375 16.304688 -16.8125 16.609375 -15.875 C 16.921875 -14.945312 17.078125 -13.921875 17.078125 -12.796875 L 17.078125 0 L 15.515625 0 C 15.171875 0 14.90625 -0.0507812 14.71875 -0.15625 C 14.53125 -0.269531 14.382812 -0.492188 14.28125 -0.828125 L 13.890625 -2.734375 C 13.359375 -2.242188 12.84375 -1.8125 12.34375 -1.4375 C 11.84375 -1.0625 11.316406 -0.742188 10.765625 -0.484375 C 10.210938 -0.222656 9.625 -0.0234375 9 0.109375 C 8.375 0.242188 7.679688 0.3125 6.921875 0.3125 C 6.140625 0.3125 5.40625 0.207031 4.71875 0 C 4.03125 -0.21875 3.429688 -0.546875 2.921875 -0.984375 C 2.421875 -1.421875 2.019531 -1.972656 1.71875 -2.640625 C 1.425781 -3.304688 1.28125 -4.09375 1.28125 -5 C 1.28125 -5.789062 1.5 -6.550781 1.9375 -7.28125 C 2.375 -8.007812 3.078125 -8.65625 4.046875 -9.21875 C 5.023438 -9.789062 6.296875 -10.253906 7.859375 -10.609375 C 9.429688 -10.972656 11.359375 -11.179688 13.640625 -11.234375 L 13.640625 -12.796875 C 13.640625 -14.359375 13.300781 -15.535156 12.625 -16.328125 C 11.957031 -17.128906 10.976562 -17.53125 9.6875 -17.53125 C 8.8125 -17.53125 8.082031 -17.421875 7.5 -17.203125 C 6.914062 -16.984375 6.40625 -16.738281 5.96875 -16.46875 C 5.539062 -16.195312 5.171875 -15.953125 4.859375 -15.734375 C 4.554688 -15.515625 4.253906 -15.40625 3.953125 -15.40625 C 3.710938 -15.40625 3.503906 -15.46875 3.328125 -15.59375 C 3.160156 -15.71875 3.019531 -15.875 2.90625 -16.0625 Z M 2.265625 -17.1875 "/></g></g><g style="fill:#522947;fill-opacity:1;"><g transform="translate(136.276571, 54.591196)"><path style="stroke:none" d="M 6.5 -20.015625 L 6.5 0 L 2.984375 0 L 2.984375 -20.015625 Z M 7.25 -26.296875 C 7.25 -25.953125 7.179688 -25.628906 7.046875 -25.328125 C 6.910156 -25.035156 6.722656 -24.773438 6.484375 -24.546875 C 6.253906 -24.316406 5.984375 -24.132812 5.671875 -24 C 5.367188 -23.875 5.046875 -23.8125 4.703125 -23.8125 C 4.359375 -23.8125 4.035156 -23.875 3.734375 -24 C 3.441406 -24.132812 3.179688 -24.316406 2.953125 -24.546875 C 2.734375 -24.773438 2.554688 -25.035156 2.421875 -25.328125 C 2.296875 -25.628906 2.234375 -25.953125 2.234375 -26.296875 C 2.234375 -26.640625 2.296875 -26.960938 2.421875 -27.265625 C 2.554688 -27.578125 2.734375 -27.847656 2.953125 -28.078125 C 3.179688 -28.316406 3.441406 -28.5 3.734375 -28.625 C 4.035156 -28.757812 4.359375 -28.828125 4.703125 -28.828125 C 5.046875 -28.828125 5.367188 -28.757812 5.671875 -28.625 C 5.984375 -28.5 6.253906 -28.316406 6.484375 -28.078125 C 6.722656 -27.847656 6.910156 -27.578125 7.046875 -27.265625 C 7.179688 -26.960938 7.25 -26.640625 7.25 -26.296875 Z M 7.25 -26.296875 "/></g></g><g style="fill:#522947;fill-opacity:1;"><g transform="translate(145.759773, 54.591196)"><path style="stroke:none" d="M 6.125 -16 C 6.757812 -17.375 7.535156 -18.445312 8.453125 -19.21875 C 9.378906 -19.988281 10.503906 -20.375 11.828125 -20.375 C 12.253906 -20.375 12.660156 -20.328125 13.046875 -20.234375 C 13.441406 -20.140625 13.789062 -19.992188 14.09375 -19.796875 L 13.828125 -17.171875 C 13.753906 -16.835938 13.554688 -16.671875 13.234375 -16.671875 C 13.054688 -16.671875 12.785156 -16.707031 12.421875 -16.78125 C 12.066406 -16.863281 11.664062 -16.90625 11.21875 -16.90625 C 10.59375 -16.90625 10.03125 -16.8125 9.53125 -16.625 C 9.039062 -16.445312 8.597656 -16.175781 8.203125 -15.8125 C 7.816406 -15.445312 7.46875 -15 7.15625 -14.46875 C 6.851562 -13.9375 6.578125 -13.328125 6.328125 -12.640625 L 6.328125 0 L 2.78125 0 L 2.78125 -20.015625 L 4.796875 -20.015625 C 5.179688 -20.015625 5.445312 -19.941406 5.59375 -19.796875 C 5.738281 -19.648438 5.835938 -19.398438 5.890625 -19.046875 Z M 6.125 -16 "/></g></g><g style="fill:#522947;fill-opacity:1;"><g transform="translate(160.142619, 54.591196)"><path style="stroke:none" d="M 20.046875 -20.015625 L 8.890625 5.90625 C 8.773438 6.164062 8.628906 6.375 8.453125 6.53125 C 8.273438 6.695312 8 6.78125 7.625 6.78125 L 5.015625 6.78125 L 8.671875 -1.171875 L 0.421875 -20.015625 L 3.453125 -20.015625 C 3.753906 -20.015625 3.992188 -19.9375 4.171875 -19.78125 C 4.359375 -19.632812 4.484375 -19.46875 4.546875 -19.28125 L 9.90625 -6.671875 C 10.113281 -6.117188 10.289062 -5.539062 10.4375 -4.9375 C 10.613281 -5.5625 10.8125 -6.148438 11.03125 -6.703125 L 16.21875 -19.28125 C 16.300781 -19.488281 16.4375 -19.660156 16.625 -19.796875 C 16.8125 -19.941406 17.023438 -20.015625 17.265625 -20.015625 Z M 20.046875 -20.015625 "/></g></g><g clip-rule="nonzero" clip-path="url(#5fa13b0fe0)"><g clip-rule="nonzero" clip-path="url(#563c90fb11)"><g clip-rule="nonzero" clip-path="url(#f6d301cc44)"><path style=" stroke:none;fill-rule:nonzero;fill:#c8baa0;fill-opacity:1;" d="M 32.007812 17.226562 C 32.007812 17.226562 28.417969 13.515625 24.761719 11.957031 C 20.179688 10.007812 16.042969 12.4375 19.488281 16.710938 C 21.984375 19.808594 25.699219 22.183594 30.828125 22.28125 C 30.828125 22.28125 27.59375 25.941406 22.023438 26.4375 C 16.703125 26.914062 9.902344 27.402344 6.875 33.46875 C 6.875 33.46875 10.113281 30.394531 11.582031 34.4375 C 11.582031 34.4375 13.585938 29.914062 18.460938 29.335938 C 23.59375 28.726562 30.761719 26.324219 33.332031 20.941406 C 33.332031 20.941406 27.78125 21.910156 24.007812 18.53125 C 20.230469 15.148438 20.691406 13.6875 21.179688 13.445312 C 22.546875 12.765625 26.808594 14.015625 32.007812 17.226562 "/></g></g></g><g clip-rule="nonzero" clip-path="url(#f38bd7c069)"><g clip-rule="nonzero" clip-path="url(#d471791697)"><g clip-rule="nonzero" clip-path="url(#dfbe3831a7)"><path style=" stroke:none;fill-rule:nonzero;fill:#c8baa0;fill-opacity:1;" d="M 35.777344 18.757812 C 35.777344 18.757812 35.105469 14.558594 36.539062 12.023438 C 37.9375 9.5625 40.398438 8.957031 42.144531 10.027344 C 42.144531 10.027344 36.195312 10.851562 35.777344 18.757812 "/></g></g></g><g clip-rule="nonzero" clip-path="url(#7a70091dd6)"><g clip-rule="nonzero" clip-path="url(#3f35179b6d)"><g clip-rule="nonzero" clip-path="url(#bcf3501e9b)"><path style=" stroke:none;fill-rule:nonzero;fill:#c8baa0;fill-opacity:1;" d="M 40.289062 11.542969 C 40.289062 11.542969 42.027344 10.3125 43.175781 11.890625 C 44.324219 13.472656 43.066406 18.722656 39.417969 22.183594 C 39.417969 22.183594 43.242188 20.066406 44.554688 15.859375 C 45.800781 11.855469 43.4375 9.058594 40.289062 11.542969 "/></g></g></g><g clip-rule="nonzero" clip-path="url(#ad75c1180c)"><g clip-rule="nonzero" clip-path="url(#351ec10634)"><g clip-rule="nonzero" clip-path="url(#7e12f26519)"><g clip-rule="nonzero" clip-path="url(#1c154199c2)"><path style=" stroke:none;fill-rule:nonzero;fill:#522947;fill-opacity:1;" d="M 41.902344 22.546875 C 42.695312 21.472656 42.609375 20.242188 42.609375 20.242188 C 42.054688 21.179688 41.101562 22.359375 39.496094 23.335938 C 36.257812 25.304688 30.753906 28.289062 32.027344 35.707031 C 32.027344 35.707031 30.792969 32.261719 27.941406 34.304688 C 27.941406 34.304688 28.570312 29.472656 31.417969 26.285156 L 19.199219 30.644531 L 22.351562 39.480469 L 25.019531 38.53125 L 29.417969 50.867188 L 41.453125 46.574219 L 37.054688 34.238281 L 51.511719 29.082031 L 48.359375 20.242188 L 41.902344 22.546875 "/></g></g></g></g><g clip-rule="nonzero" clip-path="url(#0e810cbbf3)"><g clip-rule="nonzero" clip-path="url(#c94757f3f5)"><path style=" stroke:none;fill-rule:nonzero;fill:#522947;fill-opacity:1;" d="M 14.949219 31.75 L 54.472656 17.652344 L 56.921875 24.511719 L 17.398438 38.609375 Z M 14.949219 31.75 "/></g></g><g clip-rule="nonzero" clip-path="url(#cc8cc62cfe)"><path style=" stroke:none;fill-rule:nonzero;fill:#522947;fill-opacity:1;" d="M 21.625 62.039062 L 36.402344 62.039062 L 36.402344 38.046875 L 20.34375 38.046875 L 21.625 62.039062 "/></g><g clip-rule="nonzero" clip-path="url(#0bd5ac88b7)"><path style=" stroke:none;fill-rule:nonzero;fill:#522947;fill-opacity:1;" d="M 39.191406 62.039062 L 53.972656 62.039062 L 55.253906 38.046875 L 39.191406 38.046875 L 39.191406 62.039062 "/></g><g clip-rule="nonzero" clip-path="url(#ae30c101c7)"><g clip-rule="nonzero" clip-path="url(#b786c75302)"><g clip-rule="nonzero" clip-path="url(#b0e8f8f0df)"><g clip-rule="nonzero" clip-path="url(#67dd17c53c)"><path style=" stroke:none;fill-rule:nonzero;fill:#c8baa0;fill-opacity:1;" d="M 10.667969 69.492188 L 23.917969 53.039062 L 10.578125 42.296875 L -2.671875 58.75 Z M 10.667969 69.492188 "/></g></g></g></g><g clip-rule="nonzero" clip-path="url(#8dc3757cfa)"><g clip-rule="nonzero" clip-path="url(#95c7def384)"><g clip-rule="nonzero" clip-path="url(#9ce4f87173)"><g clip-rule="nonzero" clip-path="url(#a69c5f74cf)"><path style=" stroke:none;fill-rule:nonzero;fill:#c8baa0;fill-opacity:1;" d="M 41.246094 83.722656 L 74.257812 42.726562 L 30.652344 7.609375 L -2.359375 48.609375 Z M 41.246094 83.722656 "/></g></g></g></g><g clip-rule="nonzero" clip-path="url(#ee7e76f1e1)"><path style=" stroke:none;fill-rule:nonzero;fill:#c8baa0;fill-opacity:1;" d="M 54.144531 32.582031 C 50.84375 33.1875 50.351562 33.679688 49.746094 36.980469 C 49.136719 33.679688 48.644531 33.1875 45.347656 32.582031 C 48.644531 31.972656 49.136719 31.480469 49.746094 28.179688 C 50.351562 31.480469 50.84375 31.972656 54.144531 32.582031 Z M 54.144531 32.582031 "/></g></g></svg>